<?xml version="1.0" encoding="UTF-8" standalone="no"?><svg xmlns="http://www.w3.org/2000/svg" xmlns:xlink="http://www.w3.org/1999/xlink" contentScriptType="application/ecmascript" contentStyleType="text/css" height="299px" preserveAspectRatio="none" style="width:1137px;height:299px;" version="1.1" viewBox="0 0 1137 299" width="1137px" zoomAndPan="magnify"><defs><filter height="300%" id="fbxc7rc" width="300%" x="-1" y="-1"><feGaussianBlur result="blurOut" stdDeviation="2.0"/><feColorMatrix in="blurOut" result="blurOut2" type="matrix" values="0 0 0 0 0 0 0 0 0 0 0 0 0 0 0 0 0 0 .4 0"/><feOffset dx="4.0" dy="4.0" in="blurOut2" result="blurOut3"/><feBlend in="SourceGraphic" in2="blurOut3" mode="normal"/></filter></defs><g><!--cluster Find User--><polygon fill="#DDDDDD" filter="url(#fbxc7rc)" points="22,128,96,128,103,151.6094,483,151.6094,483,292,22,292,22,128" style="stroke: #000000; stroke-width: 2.0;"/><line style="stroke: #000000; stroke-width: 2.0;" x1="22" x2="103" y1="151.6094" y2="151.6094"/><text fill="#000000" font-family="sans-serif" font-size="14" font-weight="bold" lengthAdjust="spacingAndGlyphs" textLength="68" x="26" y="144.5332">Find User</text><!--cluster Delete User--><polygon fill="#DDDDDD" filter="url(#fbxc7rc)" points="507,149,596,149,603,172.6094,693,172.6094,693,271,507,271,507,149" style="stroke: #000000; stroke-width: 2.0;"/><line style="stroke: #000000; stroke-width: 2.0;" x1="507" x2="603" y1="172.6094" y2="172.6094"/><text fill="#000000" font-family="sans-serif" font-size="14" font-weight="bold" lengthAdjust="spacingAndGlyphs" textLength="83" x="511" y="165.5332">Delete User</text><!--cluster Save User--><polygon fill="#DDDDDD" filter="url(#fbxc7rc)" points="717,149,795,149,802,172.6094,1091,172.6094,1091,271,717,271,717,149" style="stroke: #000000; stroke-width: 2.0;"/><line style="stroke: #000000; stroke-width: 2.0;" x1="717" x2="802" y1="172.6094" y2="172.6094"/><text fill="#000000" font-family="sans-serif" font-size="14" font-weight="bold" lengthAdjust="spacingAndGlyphs" textLength="72" x="721" y="165.5332">Save User</text><!--class IET_Find_User--><rect fill="#FEFECE" filter="url(#fbxc7rc)" height="111.5313" style="stroke: #A80036; stroke-width: 1.5;" width="196" x="38" y="164"/><ellipse cx="72.35" cy="184.0938" fill="#ADD1B2" rx="11" ry="11" style="stroke: #A80036; stroke-width: 1.0;"/><path d="M75.1156,179.9688 Q75.2719,179.75 75.4594,179.6406 Q75.6469,179.5313 75.8656,179.5313 Q76.2406,179.5313 76.475,179.7891 Q76.7094,180.0469 76.7094,180.6563 L76.7094,182.1094 Q76.7094,182.7188 76.475,182.9844 Q76.2406,183.25 75.8656,183.25 Q75.5219,183.25 75.3188,183.0469 Q75.1156,182.8594 75.0063,182.3438 Q74.9594,181.9844 74.7719,181.7969 Q74.4438,181.4219 73.8344,181.2031 Q73.225,180.9844 72.6,180.9844 Q71.8344,180.9844 71.2016,181.3125 Q70.5688,181.6406 70.0766,182.3906 Q69.5844,183.1406 69.5844,184.1719 L69.5844,185.2656 Q69.5844,186.5 70.475,187.3203 Q71.3656,188.1406 72.9594,188.1406 Q73.8969,188.1406 74.5531,187.8906 Q74.9438,187.7344 75.3656,187.2969 Q75.6313,187.0313 75.7797,186.9531 Q75.9281,186.875 76.1313,186.875 Q76.4594,186.875 76.7172,187.1328 Q76.975,187.3906 76.975,187.7344 Q76.975,188.0781 76.6313,188.4844 Q76.1313,189.0625 75.3344,189.3906 Q74.2563,189.8438 72.9594,189.8438 Q71.4438,189.8438 70.2406,189.2188 Q69.2563,188.7188 68.5688,187.6484 Q67.8813,186.5781 67.8813,185.2969 L67.8813,184.1406 Q67.8813,182.8125 68.4984,181.6641 Q69.1156,180.5156 70.2094,179.8984 Q71.3031,179.2813 72.5375,179.2813 Q73.2719,179.2813 73.9203,179.4453 Q74.5688,179.6094 75.1156,179.9688 Z "/><text fill="#000000" font-family="sans-serif" font-size="12" font-style="italic" lengthAdjust="spacingAndGlyphs" textLength="125" x="88.65" y="181.457">«Interface Entity Type»</text><text fill="#000000" font-family="sans-serif" font-size="12" lengthAdjust="spacingAndGlyphs" textLength="83" x="109.65" y="196.5508">IET_Find_User</text><line style="stroke: #A80036; stroke-width: 1.5;" x1="39" x2="233" y1="204.1875" y2="204.1875"/><text fill="#000000" font-family="sans-serif" font-size="11" lengthAdjust="spacingAndGlyphs" textLength="152" x="44" y="219.6064">IAT_Username: DTY_Text [0..1]</text><text fill="#000000" font-family="sans-serif" font-size="11" lengthAdjust="spacingAndGlyphs" textLength="153" x="44" y="233.4424">IAT_Password: DTY_Text [0..1]</text><text fill="#000000" font-family="sans-serif" font-size="11" lengthAdjust="spacingAndGlyphs" textLength="127" x="44" y="247.2783">IAT_Email: DTY_Text [0..1]</text><text fill="#000000" font-family="sans-serif" font-size="11" lengthAdjust="spacingAndGlyphs" textLength="184" x="44" y="261.1143">IAT_User_Role_ID: DTY_Number [0..1]</text><line style="stroke: #A80036; stroke-width: 1.5;" x1="39" x2="233" y1="267.5313" y2="267.5313"/><!--class IET_Paginated_List_of_Users--><rect fill="#FEFECE" filter="url(#fbxc7rc)" height="70.0234" style="stroke: #A80036; stroke-width: 1.5;" width="198" x="269" y="185"/><ellipse cx="284" cy="205.0938" fill="#ADD1B2" rx="11" ry="11" style="stroke: #A80036; stroke-width: 1.0;"/><path d="M286.7656,200.9688 Q286.9219,200.75 287.1094,200.6406 Q287.2969,200.5313 287.5156,200.5313 Q287.8906,200.5313 288.125,200.7891 Q288.3594,201.0469 288.3594,201.6563 L288.3594,203.1094 Q288.3594,203.7188 288.125,203.9844 Q287.8906,204.25 287.5156,204.25 Q287.1719,204.25 286.9688,204.0469 Q286.7656,203.8594 286.6563,203.3438 Q286.6094,202.9844 286.4219,202.7969 Q286.0938,202.4219 285.4844,202.2031 Q284.875,201.9844 284.25,201.9844 Q283.4844,201.9844 282.8516,202.3125 Q282.2188,202.6406 281.7266,203.3906 Q281.2344,204.1406 281.2344,205.1719 L281.2344,206.2656 Q281.2344,207.5 282.125,208.3203 Q283.0156,209.1406 284.6094,209.1406 Q285.5469,209.1406 286.2031,208.8906 Q286.5938,208.7344 287.0156,208.2969 Q287.2813,208.0313 287.4297,207.9531 Q287.5781,207.875 287.7813,207.875 Q288.1094,207.875 288.3672,208.1328 Q288.625,208.3906 288.625,208.7344 Q288.625,209.0781 288.2813,209.4844 Q287.7813,210.0625 286.9844,210.3906 Q285.9063,210.8438 284.6094,210.8438 Q283.0938,210.8438 281.8906,210.2188 Q280.9063,209.7188 280.2188,208.6484 Q279.5313,207.5781 279.5313,206.2969 L279.5313,205.1406 Q279.5313,203.8125 280.1484,202.6641 Q280.7656,201.5156 281.8594,200.8984 Q282.9531,200.2813 284.1875,200.2813 Q284.9219,200.2813 285.5703,200.4453 Q286.2188,200.6094 286.7656,200.9688 Z "/><text fill="#000000" font-family="sans-serif" font-size="12" font-style="italic" lengthAdjust="spacingAndGlyphs" textLength="125" x="318.5" y="202.457">«Interface Entity Type»</text><text fill="#000000" font-family="sans-serif" font-size="12" lengthAdjust="spacingAndGlyphs" textLength="166" x="298" y="217.5508">IET_Paginated_List_of_Users</text><line style="stroke: #A80036; stroke-width: 1.5;" x1="270" x2="466" y1="225.1875" y2="225.1875"/><text fill="#000000" font-family="sans-serif" font-size="11" lengthAdjust="spacingAndGlyphs" textLength="70" x="275" y="240.6064">see ETY_User</text><line style="stroke: #A80036; stroke-width: 1.5;" x1="270" x2="466" y1="247.0234" y2="247.0234"/><!--class IET_Delete_User--><rect fill="#FEFECE" filter="url(#fbxc7rc)" height="70.0234" style="stroke: #A80036; stroke-width: 1.5;" width="153" x="523.5" y="185"/><ellipse cx="538.5" cy="205.0938" fill="#ADD1B2" rx="11" ry="11" style="stroke: #A80036; stroke-width: 1.0;"/><path d="M541.2656,200.9688 Q541.4219,200.75 541.6094,200.6406 Q541.7969,200.5313 542.0156,200.5313 Q542.3906,200.5313 542.625,200.7891 Q542.8594,201.0469 542.8594,201.6563 L542.8594,203.1094 Q542.8594,203.7188 542.625,203.9844 Q542.3906,204.25 542.0156,204.25 Q541.6719,204.25 541.4688,204.0469 Q541.2656,203.8594 541.1563,203.3438 Q541.1094,202.9844 540.9219,202.7969 Q540.5938,202.4219 539.9844,202.2031 Q539.375,201.9844 538.75,201.9844 Q537.9844,201.9844 537.3516,202.3125 Q536.7188,202.6406 536.2266,203.3906 Q535.7344,204.1406 535.7344,205.1719 L535.7344,206.2656 Q535.7344,207.5 536.625,208.3203 Q537.5156,209.1406 539.1094,209.1406 Q540.0469,209.1406 540.7031,208.8906 Q541.0938,208.7344 541.5156,208.2969 Q541.7813,208.0313 541.9297,207.9531 Q542.0781,207.875 542.2813,207.875 Q542.6094,207.875 542.8672,208.1328 Q543.125,208.3906 543.125,208.7344 Q543.125,209.0781 542.7813,209.4844 Q542.2813,210.0625 541.4844,210.3906 Q540.4063,210.8438 539.1094,210.8438 Q537.5938,210.8438 536.3906,210.2188 Q535.4063,209.7188 534.7188,208.6484 Q534.0313,207.5781 534.0313,206.2969 L534.0313,205.1406 Q534.0313,203.8125 534.6484,202.6641 Q535.2656,201.5156 536.3594,200.8984 Q537.4531,200.2813 538.6875,200.2813 Q539.4219,200.2813 540.0703,200.4453 Q540.7188,200.6094 541.2656,200.9688 Z "/><text fill="#000000" font-family="sans-serif" font-size="12" font-style="italic" lengthAdjust="spacingAndGlyphs" textLength="125" x="550.5" y="202.457">«Interface Entity Type»</text><text fill="#000000" font-family="sans-serif" font-size="12" lengthAdjust="spacingAndGlyphs" textLength="95" x="565.5" y="217.5508">IET_Delete_User</text><line style="stroke: #A80036; stroke-width: 1.5;" x1="524.5" x2="675.5" y1="225.1875" y2="225.1875"/><text fill="#000000" font-family="sans-serif" font-size="11" lengthAdjust="spacingAndGlyphs" textLength="130" x="529.5" y="240.6064">IAT_User_ID: DTY_Number</text><line style="stroke: #A80036; stroke-width: 1.5;" x1="524.5" x2="675.5" y1="247.0234" y2="247.0234"/><!--class IET_Save_User--><rect fill="#FEFECE" filter="url(#fbxc7rc)" height="70.0234" style="stroke: #A80036; stroke-width: 1.5;" width="153" x="733.5" y="185"/><ellipse cx="748.5" cy="205.0938" fill="#ADD1B2" rx="11" ry="11" style="stroke: #A80036; stroke-width: 1.0;"/><path d="M751.2656,200.9688 Q751.4219,200.75 751.6094,200.6406 Q751.7969,200.5313 752.0156,200.5313 Q752.3906,200.5313 752.625,200.7891 Q752.8594,201.0469 752.8594,201.6563 L752.8594,203.1094 Q752.8594,203.7188 752.625,203.9844 Q752.3906,204.25 752.0156,204.25 Q751.6719,204.25 751.4688,204.0469 Q751.2656,203.8594 751.1563,203.3438 Q751.1094,202.9844 750.9219,202.7969 Q750.5938,202.4219 749.9844,202.2031 Q749.375,201.9844 748.75,201.9844 Q747.9844,201.9844 747.3516,202.3125 Q746.7188,202.6406 746.2266,203.3906 Q745.7344,204.1406 745.7344,205.1719 L745.7344,206.2656 Q745.7344,207.5 746.625,208.3203 Q747.5156,209.1406 749.1094,209.1406 Q750.0469,209.1406 750.7031,208.8906 Q751.0938,208.7344 751.5156,208.2969 Q751.7813,208.0313 751.9297,207.9531 Q752.0781,207.875 752.2813,207.875 Q752.6094,207.875 752.8672,208.1328 Q753.125,208.3906 753.125,208.7344 Q753.125,209.0781 752.7813,209.4844 Q752.2813,210.0625 751.4844,210.3906 Q750.4063,210.8438 749.1094,210.8438 Q747.5938,210.8438 746.3906,210.2188 Q745.4063,209.7188 744.7188,208.6484 Q744.0313,207.5781 744.0313,206.2969 L744.0313,205.1406 Q744.0313,203.8125 744.6484,202.6641 Q745.2656,201.5156 746.3594,200.8984 Q747.4531,200.2813 748.6875,200.2813 Q749.4219,200.2813 750.0703,200.4453 Q750.7188,200.6094 751.2656,200.9688 Z "/><text fill="#000000" font-family="sans-serif" font-size="12" font-style="italic" lengthAdjust="spacingAndGlyphs" textLength="125" x="760.5" y="202.457">«Interface Entity Type»</text><text fill="#000000" font-family="sans-serif" font-size="12" lengthAdjust="spacingAndGlyphs" textLength="86" x="780" y="217.5508">IET_Save_User</text><line style="stroke: #A80036; stroke-width: 1.5;" x1="734.5" x2="885.5" y1="225.1875" y2="225.1875"/><text fill="#000000" font-family="sans-serif" font-size="11" lengthAdjust="spacingAndGlyphs" textLength="70" x="739.5" y="240.6064">see ETY_User</text><line style="stroke: #A80036; stroke-width: 1.5;" x1="734.5" x2="885.5" y1="247.0234" y2="247.0234"/><!--class IET_User--><rect fill="#FEFECE" filter="url(#fbxc7rc)" height="70.0234" style="stroke: #A80036; stroke-width: 1.5;" width="153" x="921.5" y="185"/><ellipse cx="936.5" cy="205.0938" fill="#ADD1B2" rx="11" ry="11" style="stroke: #A80036; stroke-width: 1.0;"/><path d="M939.2656,200.9688 Q939.4219,200.75 939.6094,200.6406 Q939.7969,200.5313 940.0156,200.5313 Q940.3906,200.5313 940.625,200.7891 Q940.8594,201.0469 940.8594,201.6563 L940.8594,203.1094 Q940.8594,203.7188 940.625,203.9844 Q940.3906,204.25 940.0156,204.25 Q939.6719,204.25 939.4688,204.0469 Q939.2656,203.8594 939.1563,203.3438 Q939.1094,202.9844 938.9219,202.7969 Q938.5938,202.4219 937.9844,202.2031 Q937.375,201.9844 936.75,201.9844 Q935.9844,201.9844 935.3516,202.3125 Q934.7188,202.6406 934.2266,203.3906 Q933.7344,204.1406 933.7344,205.1719 L933.7344,206.2656 Q933.7344,207.5 934.625,208.3203 Q935.5156,209.1406 937.1094,209.1406 Q938.0469,209.1406 938.7031,208.8906 Q939.0938,208.7344 939.5156,208.2969 Q939.7813,208.0313 939.9297,207.9531 Q940.0781,207.875 940.2813,207.875 Q940.6094,207.875 940.8672,208.1328 Q941.125,208.3906 941.125,208.7344 Q941.125,209.0781 940.7813,209.4844 Q940.2813,210.0625 939.4844,210.3906 Q938.4063,210.8438 937.1094,210.8438 Q935.5938,210.8438 934.3906,210.2188 Q933.4063,209.7188 932.7188,208.6484 Q932.0313,207.5781 932.0313,206.2969 L932.0313,205.1406 Q932.0313,203.8125 932.6484,202.6641 Q933.2656,201.5156 934.3594,200.8984 Q935.4531,200.2813 936.6875,200.2813 Q937.4219,200.2813 938.0703,200.4453 Q938.7188,200.6094 939.2656,200.9688 Z "/><text fill="#000000" font-family="sans-serif" font-size="12" font-style="italic" lengthAdjust="spacingAndGlyphs" textLength="125" x="948.5" y="202.457">«Interface Entity Type»</text><text fill="#000000" font-family="sans-serif" font-size="12" lengthAdjust="spacingAndGlyphs" textLength="52" x="985" y="217.5508">IET_User</text><line style="stroke: #A80036; stroke-width: 1.5;" x1="922.5" x2="1073.5" y1="225.1875" y2="225.1875"/><text fill="#000000" font-family="sans-serif" font-size="11" lengthAdjust="spacingAndGlyphs" textLength="70" x="927.5" y="240.6064">see ETY_User</text><line style="stroke: #A80036; stroke-width: 1.5;" x1="922.5" x2="1073.5" y1="247.0234" y2="247.0234"/><!--class EIF_Manage_User--><rect fill="#FEFECE" filter="url(#fbxc7rc)" height="56.1875" style="stroke: #A80036; stroke-width: 1.5;" width="138" x="531" y="8"/><ellipse cx="546" cy="28.0938" fill="#ADD1B2" rx="11" ry="11" style="stroke: #A80036; stroke-width: 1.0;"/><path d="M548.7656,23.9688 Q548.9219,23.75 549.1094,23.6406 Q549.2969,23.5313 549.5156,23.5313 Q549.8906,23.5313 550.125,23.7891 Q550.3594,24.0469 550.3594,24.6563 L550.3594,26.1094 Q550.3594,26.7188 550.125,26.9844 Q549.8906,27.25 549.5156,27.25 Q549.1719,27.25 548.9688,27.0469 Q548.7656,26.8594 548.6563,26.3438 Q548.6094,25.9844 548.4219,25.7969 Q548.0938,25.4219 547.4844,25.2031 Q546.875,24.9844 546.25,24.9844 Q545.4844,24.9844 544.8516,25.3125 Q544.2188,25.6406 543.7266,26.3906 Q543.2344,27.1406 543.2344,28.1719 L543.2344,29.2656 Q543.2344,30.5 544.125,31.3203 Q545.0156,32.1406 546.6094,32.1406 Q547.5469,32.1406 548.2031,31.8906 Q548.5938,31.7344 549.0156,31.2969 Q549.2813,31.0313 549.4297,30.9531 Q549.5781,30.875 549.7813,30.875 Q550.1094,30.875 550.3672,31.1328 Q550.625,31.3906 550.625,31.7344 Q550.625,32.0781 550.2813,32.4844 Q549.7813,33.0625 548.9844,33.3906 Q547.9063,33.8438 546.6094,33.8438 Q545.0938,33.8438 543.8906,33.2188 Q542.9063,32.7188 542.2188,31.6484 Q541.5313,30.5781 541.5313,29.2969 L541.5313,28.1406 Q541.5313,26.8125 542.1484,25.6641 Q542.7656,24.5156 543.8594,23.8984 Q544.9531,23.2813 546.1875,23.2813 Q546.9219,23.2813 547.5703,23.4453 Q548.2188,23.6094 548.7656,23.9688 Z "/><text fill="#000000" font-family="sans-serif" font-size="12" font-style="italic" lengthAdjust="spacingAndGlyphs" textLength="110" x="558" y="25.457">«External Interface»</text><text fill="#000000" font-family="sans-serif" font-size="12" lengthAdjust="spacingAndGlyphs" textLength="103" x="561.5" y="40.5508">EIF_Manage_User</text><line style="stroke: #A80036; stroke-width: 1.5;" x1="532" x2="668" y1="48.1875" y2="48.1875"/><line style="stroke: #A80036; stroke-width: 1.5;" x1="532" x2="668" y1="56.1875" y2="56.1875"/><path d="M530.95,41.573 C438.746,48.709 281.297,64.799 232,94 C210.096,106.975 191.433,127.03 176.548,147.304 " fill="none" style="stroke: #A80036; stroke-width: 1.0;"/><polygon fill="none" points="182.278,151.327,165.189,163.857,170.734,143.405,182.278,151.327" style="stroke: #A80036; stroke-width: 1.0;"/><text fill="#000000" font-family="sans-serif" font-size="13" lengthAdjust="spacingAndGlyphs" textLength="154" x="233" y="108.4951">&lt;&lt;uses input parameter&gt;&gt;</text><path d="M669.105,48.214 C700.192,56.353 735.354,70.28 760,94 C779.735,112.994 791.879,140.792 799.247,165.353 " fill="none" style="stroke: #A80036; stroke-width: 1.0;"/><polygon fill="none" points="806.087,163.839,804.375,184.959,792.542,167.381,806.087,163.839" style="stroke: #A80036; stroke-width: 1.0;"/><text fill="#000000" font-family="sans-serif" font-size="13" lengthAdjust="spacingAndGlyphs" textLength="154" x="776" y="108.4951">&lt;&lt;uses input parameter&gt;&gt;</text><path d="M600,64.247 C600,90.603 600,131.297 600,164.341 " fill="none" style="stroke: #A80036; stroke-width: 1.0;"/><polygon fill="none" points="607,164.724,600,184.724,593,164.724,607,164.724" style="stroke: #A80036; stroke-width: 1.0;"/><text fill="#000000" font-family="sans-serif" font-size="13" lengthAdjust="spacingAndGlyphs" textLength="154" x="601" y="108.4951">&lt;&lt;uses input parameter&gt;&gt;</text><path d="M530.628,41.954 C490.361,48.304 441.359,62.5 409,94 C389.918,112.575 379.712,140.162 374.257,164.697 " fill="none" style="stroke: #A80036; stroke-width: 1.0;"/><polygon fill="none" points="381.08,166.306,370.641,184.745,367.302,163.82,381.08,166.306" style="stroke: #A80036; stroke-width: 1.0;"/><text fill="#000000" font-family="sans-serif" font-size="13" lengthAdjust="spacingAndGlyphs" textLength="181" x="410" y="108.4951">&lt;&lt;provides output parameter&gt;&gt;</text><path d="M669.322,41.149 C755.874,47.585 897.609,62.652 939,94 C961.944,111.377 976.34,139.909 985.161,165.329 " fill="none" style="stroke: #A80036; stroke-width: 1.0;"/><polygon fill="none" points="991.953,163.603,991.097,184.776,978.563,167.691,991.953,163.603" style="stroke: #A80036; stroke-width: 1.0;"/><text fill="#000000" font-family="sans-serif" font-size="13" lengthAdjust="spacingAndGlyphs" textLength="181" x="955" y="108.4951">&lt;&lt;provides output parameter&gt;&gt;</text></g></svg>