<?xml version="1.0" encoding="UTF-8" standalone="no"?><svg xmlns="http://www.w3.org/2000/svg" xmlns:xlink="http://www.w3.org/1999/xlink" contentScriptType="application/ecmascript" contentStyleType="text/css" height="317px" preserveAspectRatio="none" style="width:1243px;height:317px;" version="1.1" viewBox="0 0 1243 317" width="1243px" zoomAndPan="magnify"><defs><filter height="300%" id="f2krs61hyb5cd" width="300%" x="-1" y="-1"><feGaussianBlur result="blurOut" stdDeviation="2.0"/><feColorMatrix in="blurOut" result="blurOut2" type="matrix" values="0 0 0 0 0 0 0 0 0 0 0 0 0 0 0 0 0 0 .4 0"/><feOffset dx="4.0" dy="4.0" in="blurOut2" result="blurOut3"/><feBlend in="SourceGraphic" in2="blurOut3" mode="normal"/></filter></defs><g><!--cluster Save Entity_Name--><polygon fill="#DDDDDD" filter="url(#f2krs61hyb5cd)" points="22,155.5,153,155.5,160,179.1094,404,179.1094,404,277.5,22,277.5,22,155.5" style="stroke: #000000; stroke-width: 1.5;"/><line style="stroke: #000000; stroke-width: 1.5;" x1="22" x2="160" y1="179.1094" y2="179.1094"/><text fill="#000000" font-family="sans-serif" font-size="14" font-weight="bold" lengthAdjust="spacingAndGlyphs" textLength="125" x="26" y="172.0332">Save Entity_Name</text><!--cluster Delete Entity_Name--><polygon fill="#DDDDDD" filter="url(#f2krs61hyb5cd)" points="428,155.5,570,155.5,577,179.1094,644,179.1094,644,277.5,428,277.5,428,155.5" style="stroke: #000000; stroke-width: 1.5;"/><line style="stroke: #000000; stroke-width: 1.5;" x1="428" x2="577" y1="179.1094" y2="179.1094"/><text fill="#000000" font-family="sans-serif" font-size="14" font-weight="bold" lengthAdjust="spacingAndGlyphs" textLength="136" x="432" y="172.0332">Delete Entity_Name</text><!--cluster Find Entity_Name--><polygon fill="#DDDDDD" filter="url(#f2krs61hyb5cd)" points="668,128,795,128,802,151.6094,1221,151.6094,1221,305,668,305,668,128" style="stroke: #000000; stroke-width: 1.5;"/><line style="stroke: #000000; stroke-width: 1.5;" x1="668" x2="802" y1="151.6094" y2="151.6094"/><text fill="#000000" font-family="sans-serif" font-size="14" font-weight="bold" lengthAdjust="spacingAndGlyphs" textLength="121" x="672" y="144.5332">Find Entity_Name</text><!--class IET_Save_Entity_Name--><rect fill="#FEFECE" filter="url(#f2krs61hyb5cd)" height="70.0234" id="IET_Save_Entity_Name" style="stroke: #A80036; stroke-width: 1.5;" width="161" x="38.5" y="191.5"/><ellipse cx="53.5" cy="211.5938" fill="#ADD1B2" rx="11" ry="11" style="stroke: #A80036; stroke-width: 1.0;"/><path d="M56.2656,207.4688 Q56.4219,207.25 56.6094,207.1406 Q56.7969,207.0313 57.0156,207.0313 Q57.3906,207.0313 57.625,207.2891 Q57.8594,207.5469 57.8594,208.1563 L57.8594,209.6094 Q57.8594,210.2188 57.625,210.4844 Q57.3906,210.75 57.0156,210.75 Q56.6719,210.75 56.4688,210.5469 Q56.2656,210.3594 56.1563,209.8438 Q56.1094,209.4844 55.9219,209.2969 Q55.5938,208.9219 54.9844,208.7031 Q54.375,208.4844 53.75,208.4844 Q52.9844,208.4844 52.3516,208.8125 Q51.7188,209.1406 51.2266,209.8906 Q50.7344,210.6406 50.7344,211.6719 L50.7344,212.7656 Q50.7344,214 51.625,214.8203 Q52.5156,215.6406 54.1094,215.6406 Q55.0469,215.6406 55.7031,215.3906 Q56.0938,215.2344 56.5156,214.7969 Q56.7813,214.5313 56.9297,214.4531 Q57.0781,214.375 57.2813,214.375 Q57.6094,214.375 57.8672,214.6328 Q58.125,214.8906 58.125,215.2344 Q58.125,215.5781 57.7813,215.9844 Q57.2813,216.5625 56.4844,216.8906 Q55.4063,217.3438 54.1094,217.3438 Q52.5938,217.3438 51.3906,216.7188 Q50.4063,216.2188 49.7188,215.1484 Q49.0313,214.0781 49.0313,212.7969 L49.0313,211.6406 Q49.0313,210.3125 49.6484,209.1641 Q50.2656,208.0156 51.3594,207.3984 Q52.4531,206.7813 53.6875,206.7813 Q54.4219,206.7813 55.0703,206.9453 Q55.7188,207.1094 56.2656,207.4688 Z "/><text fill="#000000" font-family="sans-serif" font-size="12" font-style="italic" lengthAdjust="spacingAndGlyphs" textLength="125" x="69.5" y="208.957">«Interface Entity Type»</text><text fill="#000000" font-family="sans-serif" font-size="12" lengthAdjust="spacingAndGlyphs" textLength="129" x="67.5" y="224.0508">IET_Save_Entity_Name</text><line style="stroke: #A80036; stroke-width: 1.5;" x1="39.5" x2="198.5" y1="231.6875" y2="231.6875"/><text fill="#000000" font-family="sans-serif" font-size="11" lengthAdjust="spacingAndGlyphs" textLength="106" x="44.5" y="247.1064">see ETY_Entity_Name</text><line style="stroke: #A80036; stroke-width: 1.5;" x1="39.5" x2="198.5" y1="253.5234" y2="253.5234"/><!--class IET_Entity_Name--><rect fill="#FEFECE" filter="url(#f2krs61hyb5cd)" height="70.0234" id="IET_Entity_Name" style="stroke: #A80036; stroke-width: 1.5;" width="153" x="234.5" y="191.5"/><ellipse cx="249.5" cy="211.5938" fill="#ADD1B2" rx="11" ry="11" style="stroke: #A80036; stroke-width: 1.0;"/><path d="M252.2656,207.4688 Q252.4219,207.25 252.6094,207.1406 Q252.7969,207.0313 253.0156,207.0313 Q253.3906,207.0313 253.625,207.2891 Q253.8594,207.5469 253.8594,208.1563 L253.8594,209.6094 Q253.8594,210.2188 253.625,210.4844 Q253.3906,210.75 253.0156,210.75 Q252.6719,210.75 252.4688,210.5469 Q252.2656,210.3594 252.1563,209.8438 Q252.1094,209.4844 251.9219,209.2969 Q251.5938,208.9219 250.9844,208.7031 Q250.375,208.4844 249.75,208.4844 Q248.9844,208.4844 248.3516,208.8125 Q247.7188,209.1406 247.2266,209.8906 Q246.7344,210.6406 246.7344,211.6719 L246.7344,212.7656 Q246.7344,214 247.625,214.8203 Q248.5156,215.6406 250.1094,215.6406 Q251.0469,215.6406 251.7031,215.3906 Q252.0938,215.2344 252.5156,214.7969 Q252.7813,214.5313 252.9297,214.4531 Q253.0781,214.375 253.2813,214.375 Q253.6094,214.375 253.8672,214.6328 Q254.125,214.8906 254.125,215.2344 Q254.125,215.5781 253.7813,215.9844 Q253.2813,216.5625 252.4844,216.8906 Q251.4063,217.3438 250.1094,217.3438 Q248.5938,217.3438 247.3906,216.7188 Q246.4063,216.2188 245.7188,215.1484 Q245.0313,214.0781 245.0313,212.7969 L245.0313,211.6406 Q245.0313,210.3125 245.6484,209.1641 Q246.2656,208.0156 247.3594,207.3984 Q248.4531,206.7813 249.6875,206.7813 Q250.4219,206.7813 251.0703,206.9453 Q251.7188,207.1094 252.2656,207.4688 Z "/><text fill="#000000" font-family="sans-serif" font-size="12" font-style="italic" lengthAdjust="spacingAndGlyphs" textLength="125" x="261.5" y="208.957">«Interface Entity Type»</text><text fill="#000000" font-family="sans-serif" font-size="12" lengthAdjust="spacingAndGlyphs" textLength="95" x="276.5" y="224.0508">IET_Entity_Name</text><line style="stroke: #A80036; stroke-width: 1.5;" x1="235.5" x2="386.5" y1="231.6875" y2="231.6875"/><text fill="#000000" font-family="sans-serif" font-size="11" lengthAdjust="spacingAndGlyphs" textLength="106" x="240.5" y="247.1064">see ETY_Entity_Name</text><line style="stroke: #A80036; stroke-width: 1.5;" x1="235.5" x2="386.5" y1="253.5234" y2="253.5234"/><!--class IET_Delete_Entity_Name--><rect fill="#FEFECE" filter="url(#f2krs61hyb5cd)" height="70.0234" id="IET_Delete_Entity_Name" style="stroke: #A80036; stroke-width: 1.5;" width="184" x="444" y="191.5"/><ellipse cx="465.3" cy="211.5938" fill="#ADD1B2" rx="11" ry="11" style="stroke: #A80036; stroke-width: 1.0;"/><path d="M468.0656,207.4688 Q468.2219,207.25 468.4094,207.1406 Q468.5969,207.0313 468.8156,207.0313 Q469.1906,207.0313 469.425,207.2891 Q469.6594,207.5469 469.6594,208.1563 L469.6594,209.6094 Q469.6594,210.2188 469.425,210.4844 Q469.1906,210.75 468.8156,210.75 Q468.4719,210.75 468.2688,210.5469 Q468.0656,210.3594 467.9563,209.8438 Q467.9094,209.4844 467.7219,209.2969 Q467.3938,208.9219 466.7844,208.7031 Q466.175,208.4844 465.55,208.4844 Q464.7844,208.4844 464.1516,208.8125 Q463.5188,209.1406 463.0266,209.8906 Q462.5344,210.6406 462.5344,211.6719 L462.5344,212.7656 Q462.5344,214 463.425,214.8203 Q464.3156,215.6406 465.9094,215.6406 Q466.8469,215.6406 467.5031,215.3906 Q467.8938,215.2344 468.3156,214.7969 Q468.5813,214.5313 468.7297,214.4531 Q468.8781,214.375 469.0813,214.375 Q469.4094,214.375 469.6672,214.6328 Q469.925,214.8906 469.925,215.2344 Q469.925,215.5781 469.5813,215.9844 Q469.0813,216.5625 468.2844,216.8906 Q467.2063,217.3438 465.9094,217.3438 Q464.3938,217.3438 463.1906,216.7188 Q462.2063,216.2188 461.5188,215.1484 Q460.8313,214.0781 460.8313,212.7969 L460.8313,211.6406 Q460.8313,210.3125 461.4484,209.1641 Q462.0656,208.0156 463.1594,207.3984 Q464.2531,206.7813 465.4875,206.7813 Q466.2219,206.7813 466.8703,206.9453 Q467.5188,207.1094 468.0656,207.4688 Z "/><text fill="#000000" font-family="sans-serif" font-size="12" font-style="italic" lengthAdjust="spacingAndGlyphs" textLength="125" x="487.2" y="208.957">«Interface Entity Type»</text><text fill="#000000" font-family="sans-serif" font-size="12" lengthAdjust="spacingAndGlyphs" textLength="138" x="480.7" y="224.0508">IET_Delete_Entity_Name</text><line style="stroke: #A80036; stroke-width: 1.5;" x1="445" x2="627" y1="231.6875" y2="231.6875"/><text fill="#000000" font-family="sans-serif" font-size="11" lengthAdjust="spacingAndGlyphs" textLength="172" x="450" y="247.1064">IAT_Entity_Name1_ID: DTY_Number</text><line style="stroke: #A80036; stroke-width: 1.5;" x1="445" x2="627" y1="253.5234" y2="253.5234"/><!--class IET_Find_Entity_Name--><rect fill="#FEFECE" filter="url(#f2krs61hyb5cd)" height="125.3672" id="IET_Find_Entity_Name" style="stroke: #A80036; stroke-width: 1.5;" width="237" x="684.5" y="164"/><ellipse cx="735.75" cy="184.0938" fill="#ADD1B2" rx="11" ry="11" style="stroke: #A80036; stroke-width: 1.0;"/><path d="M738.5156,179.9688 Q738.6719,179.75 738.8594,179.6406 Q739.0469,179.5313 739.2656,179.5313 Q739.6406,179.5313 739.875,179.7891 Q740.1094,180.0469 740.1094,180.6563 L740.1094,182.1094 Q740.1094,182.7188 739.875,182.9844 Q739.6406,183.25 739.2656,183.25 Q738.9219,183.25 738.7188,183.0469 Q738.5156,182.8594 738.4063,182.3438 Q738.3594,181.9844 738.1719,181.7969 Q737.8438,181.4219 737.2344,181.2031 Q736.625,180.9844 736,180.9844 Q735.2344,180.9844 734.6016,181.3125 Q733.9688,181.6406 733.4766,182.3906 Q732.9844,183.1406 732.9844,184.1719 L732.9844,185.2656 Q732.9844,186.5 733.875,187.3203 Q734.7656,188.1406 736.3594,188.1406 Q737.2969,188.1406 737.9531,187.8906 Q738.3438,187.7344 738.7656,187.2969 Q739.0313,187.0313 739.1797,186.9531 Q739.3281,186.875 739.5313,186.875 Q739.8594,186.875 740.1172,187.1328 Q740.375,187.3906 740.375,187.7344 Q740.375,188.0781 740.0313,188.4844 Q739.5313,189.0625 738.7344,189.3906 Q737.6563,189.8438 736.3594,189.8438 Q734.8438,189.8438 733.6406,189.2188 Q732.6563,188.7188 731.9688,187.6484 Q731.2813,186.5781 731.2813,185.2969 L731.2813,184.1406 Q731.2813,182.8125 731.8984,181.6641 Q732.5156,180.5156 733.6094,179.8984 Q734.7031,179.2813 735.9375,179.2813 Q736.6719,179.2813 737.3203,179.4453 Q737.9688,179.6094 738.5156,179.9688 Z "/><text fill="#000000" font-family="sans-serif" font-size="12" font-style="italic" lengthAdjust="spacingAndGlyphs" textLength="125" x="756.75" y="181.457">«Interface Entity Type»</text><text fill="#000000" font-family="sans-serif" font-size="12" lengthAdjust="spacingAndGlyphs" textLength="126" x="756.25" y="196.5508">IET_Find_Entity_Name</text><line style="stroke: #A80036; stroke-width: 1.5;" x1="685.5" x2="920.5" y1="204.1875" y2="204.1875"/><text fill="#000000" font-family="sans-serif" font-size="11" lengthAdjust="spacingAndGlyphs" textLength="199" x="690.5" y="219.6064">IAT_Entity_Name1_ID: DTY_Number [0..1]</text><text fill="#000000" font-family="sans-serif" font-size="11" lengthAdjust="spacingAndGlyphs" textLength="199" x="690.5" y="233.4424">IAT_Entity_Name2_ID: DTY_Number [0..1]</text><text fill="#000000" font-family="sans-serif" font-size="11" lengthAdjust="spacingAndGlyphs" textLength="203" x="690.5" y="247.2783">IAT_Entity_Name3_Token: DTY_Text [0..1]</text><text fill="#000000" font-family="sans-serif" font-size="11" lengthAdjust="spacingAndGlyphs" textLength="168" x="690.5" y="261.1143">IAT_Entity_Name4: DTY_Text [0..1]</text><text fill="#000000" font-family="sans-serif" font-size="11" lengthAdjust="spacingAndGlyphs" textLength="225" x="690.5" y="274.9502">IAT_Component_Name_Token: DTY_Text [0..1]</text><line style="stroke: #A80036; stroke-width: 1.5;" x1="685.5" x2="920.5" y1="281.3672" y2="281.3672"/><!--class IET_Paginated_List_of_Entity_Name1s--><rect fill="#FEFECE" filter="url(#f2krs61hyb5cd)" height="70.0234" id="IET_Paginated_List_of_Entity_Name1s" style="stroke: #A80036; stroke-width: 1.5;" width="248" x="957" y="191.5"/><ellipse cx="972" cy="211.5938" fill="#ADD1B2" rx="11" ry="11" style="stroke: #A80036; stroke-width: 1.0;"/><path d="M974.7656,207.4688 Q974.9219,207.25 975.1094,207.1406 Q975.2969,207.0313 975.5156,207.0313 Q975.8906,207.0313 976.125,207.2891 Q976.3594,207.5469 976.3594,208.1563 L976.3594,209.6094 Q976.3594,210.2188 976.125,210.4844 Q975.8906,210.75 975.5156,210.75 Q975.1719,210.75 974.9688,210.5469 Q974.7656,210.3594 974.6563,209.8438 Q974.6094,209.4844 974.4219,209.2969 Q974.0938,208.9219 973.4844,208.7031 Q972.875,208.4844 972.25,208.4844 Q971.4844,208.4844 970.8516,208.8125 Q970.2188,209.1406 969.7266,209.8906 Q969.2344,210.6406 969.2344,211.6719 L969.2344,212.7656 Q969.2344,214 970.125,214.8203 Q971.0156,215.6406 972.6094,215.6406 Q973.5469,215.6406 974.2031,215.3906 Q974.5938,215.2344 975.0156,214.7969 Q975.2813,214.5313 975.4297,214.4531 Q975.5781,214.375 975.7813,214.375 Q976.1094,214.375 976.3672,214.6328 Q976.625,214.8906 976.625,215.2344 Q976.625,215.5781 976.2813,215.9844 Q975.7813,216.5625 974.9844,216.8906 Q973.9063,217.3438 972.6094,217.3438 Q971.0938,217.3438 969.8906,216.7188 Q968.9063,216.2188 968.2188,215.1484 Q967.5313,214.0781 967.5313,212.7969 L967.5313,211.6406 Q967.5313,210.3125 968.1484,209.1641 Q968.7656,208.0156 969.8594,207.3984 Q970.9531,206.7813 972.1875,206.7813 Q972.9219,206.7813 973.5703,206.9453 Q974.2188,207.1094 974.7656,207.4688 Z "/><text fill="#000000" font-family="sans-serif" font-size="12" font-style="italic" lengthAdjust="spacingAndGlyphs" textLength="125" x="1031.5" y="208.957">«Interface Entity Type»</text><text fill="#000000" font-family="sans-serif" font-size="12" lengthAdjust="spacingAndGlyphs" textLength="216" x="986" y="224.0508">IET_Paginated_List_of_Entity_Name1s</text><line style="stroke: #A80036; stroke-width: 1.5;" x1="958" x2="1204" y1="231.6875" y2="231.6875"/><text fill="#000000" font-family="sans-serif" font-size="11" lengthAdjust="spacingAndGlyphs" textLength="106" x="963" y="247.1064">see ETY_Entity_Name</text><line style="stroke: #A80036; stroke-width: 1.5;" x1="958" x2="1204" y1="253.5234" y2="253.5234"/><!--class EIF_Manage_Component_Name--><rect fill="#FEFECE" filter="url(#f2krs61hyb5cd)" height="56.1875" id="EIF_Manage_Component_Name" style="stroke: #A80036; stroke-width: 1.5;" width="214" x="429" y="8"/><ellipse cx="444" cy="28.0938" fill="#ADD1B2" rx="11" ry="11" style="stroke: #A80036; stroke-width: 1.0;"/><path d="M446.7656,23.9688 Q446.9219,23.75 447.1094,23.6406 Q447.2969,23.5313 447.5156,23.5313 Q447.8906,23.5313 448.125,23.7891 Q448.3594,24.0469 448.3594,24.6563 L448.3594,26.1094 Q448.3594,26.7188 448.125,26.9844 Q447.8906,27.25 447.5156,27.25 Q447.1719,27.25 446.9688,27.0469 Q446.7656,26.8594 446.6563,26.3438 Q446.6094,25.9844 446.4219,25.7969 Q446.0938,25.4219 445.4844,25.2031 Q444.875,24.9844 444.25,24.9844 Q443.4844,24.9844 442.8516,25.3125 Q442.2188,25.6406 441.7266,26.3906 Q441.2344,27.1406 441.2344,28.1719 L441.2344,29.2656 Q441.2344,30.5 442.125,31.3203 Q443.0156,32.1406 444.6094,32.1406 Q445.5469,32.1406 446.2031,31.8906 Q446.5938,31.7344 447.0156,31.2969 Q447.2813,31.0313 447.4297,30.9531 Q447.5781,30.875 447.7813,30.875 Q448.1094,30.875 448.3672,31.1328 Q448.625,31.3906 448.625,31.7344 Q448.625,32.0781 448.2813,32.4844 Q447.7813,33.0625 446.9844,33.3906 Q445.9063,33.8438 444.6094,33.8438 Q443.0938,33.8438 441.8906,33.2188 Q440.9063,32.7188 440.2188,31.6484 Q439.5313,30.5781 439.5313,29.2969 L439.5313,28.1406 Q439.5313,26.8125 440.1484,25.6641 Q440.7656,24.5156 441.8594,23.8984 Q442.9531,23.2813 444.1875,23.2813 Q444.9219,23.2813 445.5703,23.4453 Q446.2188,23.6094 446.7656,23.9688 Z "/><text fill="#000000" font-family="sans-serif" font-size="12" font-style="italic" lengthAdjust="spacingAndGlyphs" textLength="110" x="494" y="25.457">«External Interface»</text><text fill="#000000" font-family="sans-serif" font-size="12" lengthAdjust="spacingAndGlyphs" textLength="182" x="458" y="40.5508">EIF_Manage_Component_Name</text><line style="stroke: #A80036; stroke-width: 1.5;" x1="430" x2="642" y1="48.1875" y2="48.1875"/><line style="stroke: #A80036; stroke-width: 1.5;" x1="430" x2="642" y1="56.1875" y2="56.1875"/><!--link EIF_Manage_Component_Name to IET_Find_Entity_Name--><path d="M624.567,64.134 C644.341,72.181 664.59,82.1 682,94 C704.036,109.062 724.928,128.854 742.955,148.494 " fill="none" id="EIF_Manage_Component_Name-IET_Find_Entity_Name" style="stroke: #A80036; stroke-width: 1.0;"/><polygon fill="none" points="748.45,144.141,756.458,163.759,737.964,153.417,748.45,144.141" style="stroke: #A80036; stroke-width: 1.0;"/><text fill="#000000" font-family="sans-serif" font-size="13" lengthAdjust="spacingAndGlyphs" textLength="136" x="707" y="108.4951">«uses input parameter»</text><!--link EIF_Manage_Component_Name to IET_Save_Entity_Name--><path d="M428.77,45.929 C345.884,54.543 239.347,69.877 203,94 C174.483,112.927 153.653,145.201 139.87,173.039 " fill="none" id="EIF_Manage_Component_Name-IET_Save_Entity_Name" style="stroke: #A80036; stroke-width: 1.0;"/><polygon fill="none" points="146.153,176.13,131.445,191.383,133.431,170.287,146.153,176.13" style="stroke: #A80036; stroke-width: 1.0;"/><text fill="#000000" font-family="sans-serif" font-size="13" lengthAdjust="spacingAndGlyphs" textLength="136" x="204" y="108.4951">«uses input parameter»</text><!--link EIF_Manage_Component_Name to IET_Delete_Entity_Name--><path d="M536,64.007 C536,91.743 536,135.69 536,170.741 " fill="none" id="EIF_Manage_Component_Name-IET_Delete_Entity_Name" style="stroke: #A80036; stroke-width: 1.0;"/><polygon fill="none" points="543,171.192,536,191.192,529,171.192,543,171.192" style="stroke: #A80036; stroke-width: 1.0;"/><text fill="#000000" font-family="sans-serif" font-size="13" lengthAdjust="spacingAndGlyphs" textLength="136" x="537" y="108.4951">«uses input parameter»</text><!--link EIF_Manage_Component_Name to IET_Paginated_List_of_Entity_Name1s--><path d="M643.202,43.87 C727.395,52.768 845.606,73.181 939,120 C970.193,135.637 1001.667,158.174 1027.03,178.406 " fill="none" id="EIF_Manage_Component_Name-IET_Paginated_List_of_Entity_Name1s" style="stroke: #A80036; stroke-width: 1.0;"/><polygon fill="none" points="1031.71,173.189,1042.75,191.274,1022.84,184.022,1031.71,173.189" style="stroke: #A80036; stroke-width: 1.0;"/><text fill="#000000" font-family="sans-serif" font-size="13" lengthAdjust="spacingAndGlyphs" textLength="163" x="920" y="108.4951">«provides output parameter»</text><!--link EIF_Manage_Component_Name to IET_Entity_Name--><path d="M428.768,56.322 C404.901,64.715 381.287,76.749 363,94 C341.334,114.439 328.525,145.04 321.043,171.581 " fill="none" id="EIF_Manage_Component_Name-IET_Entity_Name" style="stroke: #A80036; stroke-width: 1.0;"/><polygon fill="none" points="327.773,173.528,316.211,191.285,314.176,170.193,327.773,173.528" style="stroke: #A80036; stroke-width: 1.0;"/><text fill="#000000" font-family="sans-serif" font-size="13" lengthAdjust="spacingAndGlyphs" textLength="163" x="364" y="108.4951">«provides output parameter»</text><!--
@startuml

class EIF_Manage_Component_Name <<External Interface>> {
  }


package "Save Entity_Name" #DDDDDD {

  class IET_Save_Entity_Name <<Interface Entity Type>> {
    see ETY_Entity_Name
  }

  class IET_Entity_Name <<Interface Entity Type>> {
    see ETY_Entity_Name
  }
}

package "Delete Entity_Name" #DDDDDD {

  class IET_Delete_Entity_Name <<Interface Entity Type>> {
    IAT_Entity_Name1_ID: DTY_Number
  }

}

package "Find Entity_Name" #DDDDDD {

  class IET_Find_Entity_Name <<Interface Entity Type>> {
    IAT_Entity_Name1_ID: DTY_Number [0..1]
    IAT_Entity_Name2_ID: DTY_Number [0..1]
    IAT_Entity_Name3_Token: DTY_Text [0..1]
    IAT_Entity_Name4: DTY_Text [0..1]
    IAT_Component_Name_Token: DTY_Text [0..1]
  }

  class IET_Paginated_List_of_Entity_Name1s <<Interface Entity Type>> {
    see ETY_Entity_Name
  }

}

EIF_Manage_Component_Name - -|> IET_Find_Entity_Name : <<uses input parameter>>
EIF_Manage_Component_Name - -|> IET_Save_Entity_Name : <<uses input parameter>>
EIF_Manage_Component_Name - -|> IET_Delete_Entity_Name : <<uses input parameter>>
EIF_Manage_Component_Name - -|> IET_Paginated_List_of_Entity_Name1s : <<provides output parameter>>
EIF_Manage_Component_Name - -|> IET_Entity_Name : <<provides output parameter>>

@enduml

PlantUML version 1.2017.20(Mon Dec 11 17:57:05 CET 2017)
(GPL source distribution)
Java Runtime: Java(TM) SE Runtime Environment
JVM: Java HotSpot(TM) 64-Bit Server VM
Java Version: 1.8.0_74-b02
Operating System: Windows 10
OS Version: 10.0
Default Encoding: Cp1252
Language: en
Country: US
--></g></svg>