<?xml version="1.0" encoding="UTF-8" standalone="no"?><svg xmlns="http://www.w3.org/2000/svg" xmlns:xlink="http://www.w3.org/1999/xlink" contentScriptType="application/ecmascript" contentStyleType="text/css" height="434px" preserveAspectRatio="none" style="width:560px;height:434px;" version="1.1" viewBox="0 0 560 434" width="560px" zoomAndPan="magnify"><defs><filter height="300%" id="fphxg76" width="300%" x="-1" y="-1"><feGaussianBlur result="blurOut" stdDeviation="2.0"/><feColorMatrix in="blurOut" result="blurOut2" type="matrix" values="0 0 0 0 0 0 0 0 0 0 0 0 0 0 0 0 0 0 .4 0"/><feOffset dx="4.0" dy="4.0" in="blurOut2" result="blurOut3"/><feBlend in="SourceGraphic" in2="blurOut3" mode="normal"/></filter></defs><g><!--cluster <<Business Component>>\nBCO_Order_Management--><rect fill="#DDDDDD" filter="url(#fphxg76)" height="253" style="stroke: #000000; stroke-width: 2.0;" width="459" x="94.5" y="174"/><text fill="#000000" font-family="sans-serif" font-size="14" font-weight="bold" lengthAdjust="spacingAndGlyphs" textLength="182" x="233" y="190.5332">&lt;&lt;Business Component&gt;&gt;</text><text fill="#000000" font-family="sans-serif" font-size="14" font-weight="bold" lengthAdjust="spacingAndGlyphs" textLength="179" x="234.5" y="208.1426">BCO_Order_Management</text><ellipse cx="189.7017" cy="254.1836" fill="#FEFECE" filter="url(#fphxg76)" rx="78.7017" ry="26.1836" style="stroke: #A80036; stroke-width: 1.5;"/><text fill="#000000" font-family="sans-serif" font-size="14" lengthAdjust="spacingAndGlyphs" textLength="75" x="152.2017" y="248.1537">«Client UC»</text><text fill="#000000" font-family="sans-serif" font-size="14" lengthAdjust="spacingAndGlyphs" textLength="115" x="132.2017" y="265.7631">UC_Create_Order</text><ellipse cx="195.6066" cy="384.3665" fill="#FEFECE" filter="url(#fphxg76)" rx="84.6066" ry="26.3665" style="stroke: #A80036; stroke-width: 1.5;"/><text fill="#000000" font-family="sans-serif" font-size="14" lengthAdjust="spacingAndGlyphs" textLength="86" x="152.6066" y="378.6163">«Service UC»</text><text fill="#000000" font-family="sans-serif" font-size="14" lengthAdjust="spacingAndGlyphs" textLength="123" x="134.1066" y="396.2257">UC_Manage_Order</text><ellipse cx="420.3678" cy="384.3181" fill="#FEFECE" filter="url(#fphxg76)" rx="105.3678" ry="25.8181" style="stroke: #A80036; stroke-width: 1.5;"/><text fill="#000000" font-family="sans-serif" font-size="14" lengthAdjust="spacingAndGlyphs" textLength="86" x="377.3678" y="377.7201">«Service UC»</text><text fill="#000000" font-family="sans-serif" font-size="14" lengthAdjust="spacingAndGlyphs" textLength="158" x="341.3678" y="395.3294">UC_Manage_Order_Line</text><ellipse cx="420.4646" cy="253.7929" fill="#FEFECE" filter="url(#fphxg76)" rx="116.9646" ry="25.7929" style="stroke: #A80036; stroke-width: 1.5;"/><text fill="#000000" font-family="sans-serif" font-size="14" lengthAdjust="spacingAndGlyphs" textLength="86" x="377.4646" y="246.7941">«Service UC»</text><text fill="#000000" font-family="sans-serif" font-size="14" lengthAdjust="spacingAndGlyphs" textLength="179" x="330.9646" y="264.4034">UC_Request_Twitter_Rating</text><!--entity ACR_Reserving_Guest--><ellipse cx="79.5" cy="35.6094" fill="#FEFECE" filter="url(#fphxg76)" rx="8" ry="8" style="stroke: #A80036; stroke-width: 2.0;"/><path d="M79.5,43.6094 L79.5,70.6094 M66.5,51.6094 L92.5,51.6094 M79.5,70.6094 L66.5,85.6094 M79.5,70.6094 L92.5,85.6094 " fill="#FEFECE" filter="url(#fphxg76)" style="stroke: #A80036; stroke-width: 2.0;"/><text fill="#000000" font-family="sans-serif" font-size="14" lengthAdjust="spacingAndGlyphs" textLength="147" x="6" y="107.1426">ACR_Reserving_Guest</text><text fill="#000000" font-family="sans-serif" font-size="14" font-style="italic" lengthAdjust="spacingAndGlyphs" textLength="49" x="55" y="22.5332">«Actor»</text><!--entity ACR_Invitee--><ellipse cx="227.5" cy="35.6094" fill="#FEFECE" filter="url(#fphxg76)" rx="8" ry="8" style="stroke: #A80036; stroke-width: 2.0;"/><path d="M227.5,43.6094 L227.5,70.6094 M214.5,51.6094 L240.5,51.6094 M227.5,70.6094 L214.5,85.6094 M227.5,70.6094 L240.5,85.6094 " fill="#FEFECE" filter="url(#fphxg76)" style="stroke: #A80036; stroke-width: 2.0;"/><text fill="#000000" font-family="sans-serif" font-size="14" lengthAdjust="spacingAndGlyphs" textLength="78" x="188.5" y="107.1426">ACR_Invitee</text><text fill="#000000" font-family="sans-serif" font-size="14" font-style="italic" lengthAdjust="spacingAndGlyphs" textLength="49" x="203" y="22.5332">«Actor»</text><!--entity ACR_System_MyThaiStar--><ellipse cx="420.5" cy="35.6094" fill="#FEFECE" filter="url(#fphxg76)" rx="8" ry="8" style="stroke: #A80036; stroke-width: 2.0;"/><path d="M420.5,43.6094 L420.5,70.6094 M407.5,51.6094 L433.5,51.6094 M420.5,70.6094 L407.5,85.6094 M420.5,70.6094 L433.5,85.6094 " fill="#FEFECE" filter="url(#fphxg76)" style="stroke: #A80036; stroke-width: 2.0;"/><text fill="#000000" font-family="sans-serif" font-size="14" lengthAdjust="spacingAndGlyphs" textLength="163" x="339" y="107.1426">ACR_System_MyThaiStar</text><text fill="#000000" font-family="sans-serif" font-size="14" font-style="italic" lengthAdjust="spacingAndGlyphs" textLength="49" x="396" y="22.5332">«Actor»</text><path d="M108.114,110.205 C125.953,141.504 148.645,181.319 165.534,210.951 " fill="none" style="stroke: #A80036; stroke-width: 1.0; stroke-dasharray: 7.0,7.0;"/><polygon fill="none" points="171.623,207.497,175.444,228.339,159.459,214.429,171.623,207.497" style="stroke: #A80036; stroke-width: 1.0;"/><text fill="#000000" font-family="sans-serif" font-size="13" lengthAdjust="spacingAndGlyphs" textLength="60" x="135.5" y="154.4951">&lt;&lt;uses&gt;&gt;</text><path d="M217.615,110.205 C211.663,140.435 204.147,178.609 198.384,207.88 " fill="none" style="stroke: #A80036; stroke-width: 1.0; stroke-dasharray: 7.0,7.0;"/><polygon fill="none" points="205.191,209.543,194.459,227.814,191.455,206.838,205.191,209.543" style="stroke: #A80036; stroke-width: 1.0;"/><text fill="#000000" font-family="sans-serif" font-size="13" lengthAdjust="spacingAndGlyphs" textLength="60" x="212.5" y="154.4951">&lt;&lt;uses&gt;&gt;</text><path d="M190.671,280.081 C191.433,296.407 192.45,318.189 193.355,337.552 " fill="none" style="stroke: #A80036; stroke-width: 1.0; stroke-dasharray: 7.0,7.0;"/><polygon fill="none" points="200.35,337.296,194.291,357.6012,186.365,337.949,200.35,337.296" style="stroke: #A80036; stroke-width: 1.0;"/><text fill="#000000" font-family="sans-serif" font-size="13" lengthAdjust="spacingAndGlyphs" textLength="60" x="194.5" y="324.4951">&lt;&lt;uses&gt;&gt;</text><path d="M228.425,276.653 C264.827,296.902 319.698,327.426 361.484,350.6709 " fill="none" style="stroke: #A80036; stroke-width: 1.0; stroke-dasharray: 7.0,7.0;"/><polygon fill="none" points="364.998,344.6154,379.073,360.4552,358.193,356.8499,364.998,344.6154" style="stroke: #A80036; stroke-width: 1.0;"/><text fill="#000000" font-family="sans-serif" font-size="13" lengthAdjust="spacingAndGlyphs" textLength="60" x="320.5" y="324.4951">&lt;&lt;uses&gt;&gt;</text><path d="M420.5,110.205 C420.5,140.288 420.5,178.237 420.5,207.451 " fill="none" style="stroke: #A80036; stroke-width: 1.0; stroke-dasharray: 7.0,7.0;"/><polygon fill="none" points="427.5,207.814,420.5,227.814,413.5,207.813,427.5,207.814" style="stroke: #A80036; stroke-width: 1.0;"/><text fill="#000000" font-family="sans-serif" font-size="13" lengthAdjust="spacingAndGlyphs" textLength="60" x="421.5" y="154.4951">&lt;&lt;uses&gt;&gt;</text></g></svg>