<?xml version="1.0" encoding="UTF-8" standalone="no"?><svg xmlns="http://www.w3.org/2000/svg" xmlns:xlink="http://www.w3.org/1999/xlink" contentScriptType="application/ecmascript" contentStyleType="text/css" height="375px" preserveAspectRatio="none" style="width:448px;height:375px;" version="1.1" viewBox="0 0 448 375" width="448px" zoomAndPan="magnify"><defs><filter height="300%" id="f6hmbsh" width="300%" x="-1" y="-1"><feGaussianBlur result="blurOut" stdDeviation="2.0"/><feColorMatrix in="blurOut" result="blurOut2" type="matrix" values="0 0 0 0 0 0 0 0 0 0 0 0 0 0 0 0 0 0 .4 0"/><feOffset dx="4.0" dy="4.0" in="blurOut2" result="blurOut3"/><feBlend in="SourceGraphic" in2="blurOut3" mode="normal"/></filter></defs><g><!--class ETY_Booking--><rect fill="#FEFECE" filter="url(#f6hmbsh)" height="61.8359" style="stroke: #A80036; stroke-width: 1.5;" width="106" x="12.5" y="203"/><ellipse cx="27.5" cy="219" fill="#ADD1B2" rx="11" ry="11" style="stroke: #A80036; stroke-width: 1.0;"/><path d="M30.2656,214.875 Q30.4219,214.6563 30.6094,214.5469 Q30.7969,214.4375 31.0156,214.4375 Q31.3906,214.4375 31.625,214.6953 Q31.8594,214.9531 31.8594,215.5625 L31.8594,217.0156 Q31.8594,217.625 31.625,217.8906 Q31.3906,218.1563 31.0156,218.1563 Q30.6719,218.1563 30.4688,217.9531 Q30.2656,217.7656 30.1563,217.25 Q30.1094,216.8906 29.9219,216.7031 Q29.5938,216.3281 28.9844,216.1094 Q28.375,215.8906 27.75,215.8906 Q26.9844,215.8906 26.3516,216.2188 Q25.7188,216.5469 25.2266,217.2969 Q24.7344,218.0469 24.7344,219.0781 L24.7344,220.1719 Q24.7344,221.4063 25.625,222.2266 Q26.5156,223.0469 28.1094,223.0469 Q29.0469,223.0469 29.7031,222.7969 Q30.0938,222.6406 30.5156,222.2031 Q30.7813,221.9375 30.9297,221.8594 Q31.0781,221.7813 31.2813,221.7813 Q31.6094,221.7813 31.8672,222.0391 Q32.125,222.2969 32.125,222.6406 Q32.125,222.9844 31.7813,223.3906 Q31.2813,223.9688 30.4844,224.2969 Q29.4063,224.75 28.1094,224.75 Q26.5938,224.75 25.3906,224.125 Q24.4063,223.625 23.7188,222.5547 Q23.0313,221.4844 23.0313,220.2031 L23.0313,219.0469 Q23.0313,217.7188 23.6484,216.5703 Q24.2656,215.4219 25.3594,214.8047 Q26.4531,214.1875 27.6875,214.1875 Q28.4219,214.1875 29.0703,214.3516 Q29.7188,214.5156 30.2656,214.875 Z "/><text fill="#000000" font-family="sans-serif" font-size="12" lengthAdjust="spacingAndGlyphs" textLength="74" x="41.5" y="223.9102">ETY_Booking</text><line style="stroke: #A80036; stroke-width: 1.5;" x1="13.5" x2="117.5" y1="235" y2="235"/><text fill="#000000" font-family="sans-serif" font-size="11" lengthAdjust="spacingAndGlyphs" textLength="9" x="18.5" y="250.4189">...</text><line style="stroke: #A80036; stroke-width: 1.5;" x1="13.5" x2="117.5" y1="256.8359" y2="256.8359"/><polygon fill="#FBFB77" filter="url(#f6hmbsh)" points="6,340,6,366.3516,125,366.3516,125,350,115,340,6,340" style="stroke: #A80036; stroke-width: 1.0;"/><polygon fill="#FBFB77" points="6,340,6,366.3516,125,366.3516,125,350,115,340,69.5,340,65.5,265.13,61.5,340,6,340" style="stroke: #A80036; stroke-width: 1.0;"/><line style="stroke: #A80036; stroke-width: 1.0;" x1="115" x2="115" y1="340" y2="350"/><line style="stroke: #A80036; stroke-width: 1.0;" x1="125" x2="115" y1="350" y2="350"/><text fill="#000000" font-family="sans-serif" font-size="13" lengthAdjust="spacingAndGlyphs" textLength="98" x="12" y="358.4951">in MCO_Booking</text><!--class ETY_Dish--><rect fill="#FEFECE" filter="url(#f6hmbsh)" height="61.8359" style="stroke: #A80036; stroke-width: 1.5;" width="87" x="174" y="203"/><ellipse cx="189" cy="219" fill="#ADD1B2" rx="11" ry="11" style="stroke: #A80036; stroke-width: 1.0;"/><path d="M191.7656,214.875 Q191.9219,214.6563 192.1094,214.5469 Q192.2969,214.4375 192.5156,214.4375 Q192.8906,214.4375 193.125,214.6953 Q193.3594,214.9531 193.3594,215.5625 L193.3594,217.0156 Q193.3594,217.625 193.125,217.8906 Q192.8906,218.1563 192.5156,218.1563 Q192.1719,218.1563 191.9688,217.9531 Q191.7656,217.7656 191.6563,217.25 Q191.6094,216.8906 191.4219,216.7031 Q191.0938,216.3281 190.4844,216.1094 Q189.875,215.8906 189.25,215.8906 Q188.4844,215.8906 187.8516,216.2188 Q187.2188,216.5469 186.7266,217.2969 Q186.2344,218.0469 186.2344,219.0781 L186.2344,220.1719 Q186.2344,221.4063 187.125,222.2266 Q188.0156,223.0469 189.6094,223.0469 Q190.5469,223.0469 191.2031,222.7969 Q191.5938,222.6406 192.0156,222.2031 Q192.2813,221.9375 192.4297,221.8594 Q192.5781,221.7813 192.7813,221.7813 Q193.1094,221.7813 193.3672,222.0391 Q193.625,222.2969 193.625,222.6406 Q193.625,222.9844 193.2813,223.3906 Q192.7813,223.9688 191.9844,224.2969 Q190.9063,224.75 189.6094,224.75 Q188.0938,224.75 186.8906,224.125 Q185.9063,223.625 185.2188,222.5547 Q184.5313,221.4844 184.5313,220.2031 L184.5313,219.0469 Q184.5313,217.7188 185.1484,216.5703 Q185.7656,215.4219 186.8594,214.8047 Q187.9531,214.1875 189.1875,214.1875 Q189.9219,214.1875 190.5703,214.3516 Q191.2188,214.5156 191.7656,214.875 Z "/><text fill="#000000" font-family="sans-serif" font-size="12" lengthAdjust="spacingAndGlyphs" textLength="55" x="203" y="223.9102">ETY_Dish</text><line style="stroke: #A80036; stroke-width: 1.5;" x1="175" x2="260" y1="235" y2="235"/><text fill="#000000" font-family="sans-serif" font-size="11" lengthAdjust="spacingAndGlyphs" textLength="9" x="180" y="250.4189">...</text><line style="stroke: #A80036; stroke-width: 1.5;" x1="175" x2="260" y1="256.8359" y2="256.8359"/><polygon fill="#FBFB77" filter="url(#f6hmbsh)" points="165.5,340,165.5,366.3516,269.5,366.3516,269.5,350,259.5,340,165.5,340" style="stroke: #A80036; stroke-width: 1.0;"/><polygon fill="#FBFB77" points="165.5,340,165.5,366.3516,269.5,366.3516,269.5,350,259.5,340,221.5,340,217.5,265.13,213.5,340,165.5,340" style="stroke: #A80036; stroke-width: 1.0;"/><line style="stroke: #A80036; stroke-width: 1.0;" x1="259.5" x2="259.5" y1="340" y2="350"/><line style="stroke: #A80036; stroke-width: 1.0;" x1="269.5" x2="259.5" y1="350" y2="350"/><text fill="#000000" font-family="sans-serif" font-size="13" lengthAdjust="spacingAndGlyphs" textLength="83" x="171.5" y="358.4951">in MCO_Menu</text><!--class ETY_User--><rect fill="#FEFECE" filter="url(#f6hmbsh)" height="103.3438" style="stroke: #A80036; stroke-width: 1.5;" width="166" x="140.5" y="8"/><ellipse cx="191.25" cy="24" fill="#ADD1B2" rx="11" ry="11" style="stroke: #A80036; stroke-width: 1.0;"/><path d="M194.0156,19.875 Q194.1719,19.6563 194.3594,19.5469 Q194.5469,19.4375 194.7656,19.4375 Q195.1406,19.4375 195.375,19.6953 Q195.6094,19.9531 195.6094,20.5625 L195.6094,22.0156 Q195.6094,22.625 195.375,22.8906 Q195.1406,23.1563 194.7656,23.1563 Q194.4219,23.1563 194.2188,22.9531 Q194.0156,22.7656 193.9063,22.25 Q193.8594,21.8906 193.6719,21.7031 Q193.3438,21.3281 192.7344,21.1094 Q192.125,20.8906 191.5,20.8906 Q190.7344,20.8906 190.1016,21.2188 Q189.4688,21.5469 188.9766,22.2969 Q188.4844,23.0469 188.4844,24.0781 L188.4844,25.1719 Q188.4844,26.4063 189.375,27.2266 Q190.2656,28.0469 191.8594,28.0469 Q192.7969,28.0469 193.4531,27.7969 Q193.8438,27.6406 194.2656,27.2031 Q194.5313,26.9375 194.6797,26.8594 Q194.8281,26.7813 195.0313,26.7813 Q195.3594,26.7813 195.6172,27.0391 Q195.875,27.2969 195.875,27.6406 Q195.875,27.9844 195.5313,28.3906 Q195.0313,28.9688 194.2344,29.2969 Q193.1563,29.75 191.8594,29.75 Q190.3438,29.75 189.1406,29.125 Q188.1563,28.625 187.4688,27.5547 Q186.7813,26.4844 186.7813,25.2031 L186.7813,24.0469 Q186.7813,22.7188 187.3984,21.5703 Q188.0156,20.4219 189.1094,19.8047 Q190.2031,19.1875 191.4375,19.1875 Q192.1719,19.1875 192.8203,19.3516 Q193.4688,19.5156 194.0156,19.875 Z "/><text fill="#000000" font-family="sans-serif" font-size="12" lengthAdjust="spacingAndGlyphs" textLength="56" x="211.75" y="28.9102">ETY_User</text><line style="stroke: #A80036; stroke-width: 1.5;" x1="141.5" x2="305.5" y1="40" y2="40"/><text fill="#000000" font-family="sans-serif" font-size="11" lengthAdjust="spacingAndGlyphs" textLength="105" x="146.5" y="55.4189">ATT_ID: DTY_Number</text><text fill="#000000" font-family="sans-serif" font-size="11" lengthAdjust="spacingAndGlyphs" textLength="154" x="146.5" y="69.2549">ATT_UserName: DTY_Text_120</text><text fill="#000000" font-family="sans-serif" font-size="11" lengthAdjust="spacingAndGlyphs" textLength="154" x="146.5" y="83.0908">ATT_Password: DTY_Text_255</text><text fill="#000000" font-family="sans-serif" font-size="11" lengthAdjust="spacingAndGlyphs" textLength="122" x="146.5" y="96.9268">ATT_Email: DTY_Text_60</text><line style="stroke: #A80036; stroke-width: 1.5;" x1="141.5" x2="305.5" y1="103.3438" y2="103.3438"/><!--class ETY_User_Role--><rect fill="#FEFECE" filter="url(#f6hmbsh)" height="89.5078" style="stroke: #A80036; stroke-width: 1.5;" width="143" x="296" y="189"/><ellipse cx="320.9" cy="205" fill="#ADD1B2" rx="11" ry="11" style="stroke: #A80036; stroke-width: 1.0;"/><path d="M323.6656,200.875 Q323.8219,200.6563 324.0094,200.5469 Q324.1969,200.4375 324.4156,200.4375 Q324.7906,200.4375 325.025,200.6953 Q325.2594,200.9531 325.2594,201.5625 L325.2594,203.0156 Q325.2594,203.625 325.025,203.8906 Q324.7906,204.1563 324.4156,204.1563 Q324.0719,204.1563 323.8688,203.9531 Q323.6656,203.7656 323.5563,203.25 Q323.5094,202.8906 323.3219,202.7031 Q322.9938,202.3281 322.3844,202.1094 Q321.775,201.8906 321.15,201.8906 Q320.3844,201.8906 319.7516,202.2188 Q319.1188,202.5469 318.6266,203.2969 Q318.1344,204.0469 318.1344,205.0781 L318.1344,206.1719 Q318.1344,207.4063 319.025,208.2266 Q319.9156,209.0469 321.5094,209.0469 Q322.4469,209.0469 323.1031,208.7969 Q323.4938,208.6406 323.9156,208.2031 Q324.1813,207.9375 324.3297,207.8594 Q324.4781,207.7813 324.6813,207.7813 Q325.0094,207.7813 325.2672,208.0391 Q325.525,208.2969 325.525,208.6406 Q325.525,208.9844 325.1813,209.3906 Q324.6813,209.9688 323.8844,210.2969 Q322.8063,210.75 321.5094,210.75 Q319.9938,210.75 318.7906,210.125 Q317.8063,209.625 317.1188,208.5547 Q316.4313,207.4844 316.4313,206.2031 L316.4313,205.0469 Q316.4313,203.7188 317.0484,202.5703 Q317.6656,201.4219 318.7594,200.8047 Q319.8531,200.1875 321.0875,200.1875 Q321.8219,200.1875 322.4703,200.3516 Q323.1188,200.5156 323.6656,200.875 Z "/><text fill="#000000" font-family="sans-serif" font-size="12" lengthAdjust="spacingAndGlyphs" textLength="89" x="337.1" y="209.9102">ETY_User_Role</text><line style="stroke: #A80036; stroke-width: 1.5;" x1="297" x2="438" y1="221" y2="221"/><text fill="#000000" font-family="sans-serif" font-size="11" lengthAdjust="spacingAndGlyphs" textLength="105" x="302" y="236.4189">ATT_ID: DTY_Number</text><text fill="#000000" font-family="sans-serif" font-size="11" lengthAdjust="spacingAndGlyphs" textLength="131" x="302" y="250.2549">ATT_Name: DTY_Text_120</text><text fill="#000000" font-family="sans-serif" font-size="11" lengthAdjust="spacingAndGlyphs" textLength="129" x="302" y="264.0908">ATT_Active: DTY_Boolean</text><line style="stroke: #A80036; stroke-width: 1.5;" x1="297" x2="438" y1="270.5078" y2="270.5078"/><path d="M297.698,111.168 C308.171,120.317 318.185,130.36 326.5,141 C337.59,155.192 346.393,172.857 352.954,188.903 " fill="none" style="stroke: #A80036; stroke-width: 1.0;"/><text fill="#000000" font-family="sans-serif" font-size="13" lengthAdjust="spacingAndGlyphs" textLength="53" x="338.5" y="155.4951">has roles</text><polygon fill="#000000" points="360.5,164.3516,363.5,170.3516,366.5,164.3516,360.5,164.3516" style="stroke: #000000; stroke-width: 1.0;"/><text fill="#000000" font-family="sans-serif" font-size="13" lengthAdjust="spacingAndGlyphs" textLength="22" x="284.1902" y="132.6815">0..1</text><text fill="#000000" font-family="sans-serif" font-size="13" lengthAdjust="spacingAndGlyphs" textLength="20" x="329.042" y="178.003">0..*</text><path d="M140.416,100.184 C123.364,111.423 106.868,125.035 94.5,141 C80.654,158.873 73.3466,183.48 69.532,202.748 " fill="none" style="stroke: #A80036; stroke-width: 1.0;"/><text fill="#000000" font-family="sans-serif" font-size="13" lengthAdjust="spacingAndGlyphs" textLength="103" x="95.5" y="155.4951">Inviter of bookings</text><polygon fill="#000000" points="142.5,164.3516,145.5,170.3516,148.5,164.3516,142.5,164.3516" style="stroke: #000000; stroke-width: 1.0;"/><text fill="#000000" font-family="sans-serif" font-size="13" lengthAdjust="spacingAndGlyphs" textLength="22" x="110.6247" y="100.3861">0..1</text><text fill="#000000" font-family="sans-serif" font-size="13" lengthAdjust="spacingAndGlyphs" textLength="20" x="48.3011" y="192.2006">0..*</text><path d="M221.732,111.323 C220.699,141.038 219.429,177.543 218.551,202.774 " fill="none" style="stroke: #A80036; stroke-width: 1.0;"/><text fill="#000000" font-family="sans-serif" font-size="13" lengthAdjust="spacingAndGlyphs" textLength="82" x="222.5" y="155.4951">favorite dishes</text><polygon fill="#000000" points="259,164.3516,262,170.3516,265,164.3516,259,164.3516" style="stroke: #000000; stroke-width: 1.0;"/><text fill="#000000" font-family="sans-serif" font-size="13" lengthAdjust="spacingAndGlyphs" textLength="20" x="200.1507" y="132.8574">0..*</text><text fill="#000000" font-family="sans-serif" font-size="13" lengthAdjust="spacingAndGlyphs" textLength="20" x="196.7053" y="192.2319">0..*</text></g></svg>