<?xml version="1.0" encoding="UTF-8" standalone="no"?><svg xmlns="http://www.w3.org/2000/svg" xmlns:xlink="http://www.w3.org/1999/xlink" contentScriptType="application/ecmascript" contentStyleType="text/css" height="378px" preserveAspectRatio="none" style="width:582px;height:378px;" version="1.1" viewBox="0 0 582 378" width="582px" zoomAndPan="magnify"><defs><filter height="300%" id="ft8z1e5t2yd9" width="300%" x="-1" y="-1"><feGaussianBlur result="blurOut" stdDeviation="2.0"/><feColorMatrix in="blurOut" result="blurOut2" type="matrix" values="0 0 0 0 0 0 0 0 0 0 0 0 0 0 0 0 0 0 .4 0"/><feOffset dx="4.0" dy="4.0" in="blurOut2" result="blurOut3"/><feBlend in="SourceGraphic" in2="blurOut3" mode="normal"/></filter></defs><g><!--class ETY_Entity_Name1--><rect fill="#FEFECE" filter="url(#ft8z1e5t2yd9)" height="61.8359" id="ETY_Entity_Name1" style="stroke: #A80036; stroke-width: 1.5;" width="138" x="14" y="203"/><ellipse cx="29" cy="219" fill="#ADD1B2" rx="11" ry="11" style="stroke: #A80036; stroke-width: 1.0;"/><path d="M31.7656,214.875 Q31.9219,214.6563 32.1094,214.5469 Q32.2969,214.4375 32.5156,214.4375 Q32.8906,214.4375 33.125,214.6953 Q33.3594,214.9531 33.3594,215.5625 L33.3594,217.0156 Q33.3594,217.625 33.125,217.8906 Q32.8906,218.1563 32.5156,218.1563 Q32.1719,218.1563 31.9688,217.9531 Q31.7656,217.7656 31.6563,217.25 Q31.6094,216.8906 31.4219,216.7031 Q31.0938,216.3281 30.4844,216.1094 Q29.875,215.8906 29.25,215.8906 Q28.4844,215.8906 27.8516,216.2188 Q27.2188,216.5469 26.7266,217.2969 Q26.2344,218.0469 26.2344,219.0781 L26.2344,220.1719 Q26.2344,221.4063 27.125,222.2266 Q28.0156,223.0469 29.6094,223.0469 Q30.5469,223.0469 31.2031,222.7969 Q31.5938,222.6406 32.0156,222.2031 Q32.2813,221.9375 32.4297,221.8594 Q32.5781,221.7813 32.7813,221.7813 Q33.1094,221.7813 33.3672,222.0391 Q33.625,222.2969 33.625,222.6406 Q33.625,222.9844 33.2813,223.3906 Q32.7813,223.9688 31.9844,224.2969 Q30.9063,224.75 29.6094,224.75 Q28.0938,224.75 26.8906,224.125 Q25.9063,223.625 25.2188,222.5547 Q24.5313,221.4844 24.5313,220.2031 L24.5313,219.0469 Q24.5313,217.7188 25.1484,216.5703 Q25.7656,215.4219 26.8594,214.8047 Q27.9531,214.1875 29.1875,214.1875 Q29.9219,214.1875 30.5703,214.3516 Q31.2188,214.5156 31.7656,214.875 Z "/><text fill="#000000" font-family="sans-serif" font-size="12" lengthAdjust="spacingAndGlyphs" textLength="106" x="43" y="223.9102">ETY_Entity_Name1</text><line style="stroke: #A80036; stroke-width: 1.5;" x1="15" x2="151" y1="235" y2="235"/><text fill="#000000" font-family="sans-serif" font-size="11" lengthAdjust="spacingAndGlyphs" textLength="9" x="20" y="250.4189">...</text><line style="stroke: #A80036; stroke-width: 1.5;" x1="15" x2="151" y1="256.8359" y2="256.8359"/><polygon fill="#FBFB77" filter="url(#ft8z1e5t2yd9)" points="6,340,6,366.3516,160,366.3516,160,350,150,340,6,340" style="stroke: #A80036; stroke-width: 1.0;"/><polygon fill="#FBFB77" points="6,340,6,366.3516,160,366.3516,160,350,150,340,87,340,83,265.13,79,340,6,340" style="stroke: #A80036; stroke-width: 1.0;"/><line style="stroke: #A80036; stroke-width: 1.0;" x1="150" x2="150" y1="340" y2="350"/><line style="stroke: #A80036; stroke-width: 1.0;" x1="160" x2="150" y1="350" y2="350"/><text fill="#000000" font-family="sans-serif" font-size="13" lengthAdjust="spacingAndGlyphs" textLength="133" x="12" y="358.4951">in MCO_Entity_Name1</text><!--class ETY_Entity_Name2--><rect fill="#FEFECE" filter="url(#ft8z1e5t2yd9)" height="61.8359" id="ETY_Entity_Name2" style="stroke: #A80036; stroke-width: 1.5;" width="138" x="202" y="203"/><ellipse cx="217" cy="219" fill="#ADD1B2" rx="11" ry="11" style="stroke: #A80036; stroke-width: 1.0;"/><path d="M219.7656,214.875 Q219.9219,214.6563 220.1094,214.5469 Q220.2969,214.4375 220.5156,214.4375 Q220.8906,214.4375 221.125,214.6953 Q221.3594,214.9531 221.3594,215.5625 L221.3594,217.0156 Q221.3594,217.625 221.125,217.8906 Q220.8906,218.1563 220.5156,218.1563 Q220.1719,218.1563 219.9688,217.9531 Q219.7656,217.7656 219.6563,217.25 Q219.6094,216.8906 219.4219,216.7031 Q219.0938,216.3281 218.4844,216.1094 Q217.875,215.8906 217.25,215.8906 Q216.4844,215.8906 215.8516,216.2188 Q215.2188,216.5469 214.7266,217.2969 Q214.2344,218.0469 214.2344,219.0781 L214.2344,220.1719 Q214.2344,221.4063 215.125,222.2266 Q216.0156,223.0469 217.6094,223.0469 Q218.5469,223.0469 219.2031,222.7969 Q219.5938,222.6406 220.0156,222.2031 Q220.2813,221.9375 220.4297,221.8594 Q220.5781,221.7813 220.7813,221.7813 Q221.1094,221.7813 221.3672,222.0391 Q221.625,222.2969 221.625,222.6406 Q221.625,222.9844 221.2813,223.3906 Q220.7813,223.9688 219.9844,224.2969 Q218.9063,224.75 217.6094,224.75 Q216.0938,224.75 214.8906,224.125 Q213.9063,223.625 213.2188,222.5547 Q212.5313,221.4844 212.5313,220.2031 L212.5313,219.0469 Q212.5313,217.7188 213.1484,216.5703 Q213.7656,215.4219 214.8594,214.8047 Q215.9531,214.1875 217.1875,214.1875 Q217.9219,214.1875 218.5703,214.3516 Q219.2188,214.5156 219.7656,214.875 Z "/><text fill="#000000" font-family="sans-serif" font-size="12" lengthAdjust="spacingAndGlyphs" textLength="106" x="231" y="223.9102">ETY_Entity_Name2</text><line style="stroke: #A80036; stroke-width: 1.5;" x1="203" x2="339" y1="235" y2="235"/><text fill="#000000" font-family="sans-serif" font-size="11" lengthAdjust="spacingAndGlyphs" textLength="9" x="208" y="250.4189">...</text><line style="stroke: #A80036; stroke-width: 1.5;" x1="203" x2="339" y1="256.8359" y2="256.8359"/><!--class ETY_Component_Name--><rect fill="#FEFECE" filter="url(#ft8z1e5t2yd9)" height="103.3438" id="ETY_Component_Name" style="stroke: #A80036; stroke-width: 1.5;" width="196" x="173" y="8"/><ellipse cx="201.05" cy="24" fill="#ADD1B2" rx="11" ry="11" style="stroke: #A80036; stroke-width: 1.0;"/><path d="M203.8156,19.875 Q203.9719,19.6563 204.1594,19.5469 Q204.3469,19.4375 204.5656,19.4375 Q204.9406,19.4375 205.175,19.6953 Q205.4094,19.9531 205.4094,20.5625 L205.4094,22.0156 Q205.4094,22.625 205.175,22.8906 Q204.9406,23.1563 204.5656,23.1563 Q204.2219,23.1563 204.0188,22.9531 Q203.8156,22.7656 203.7063,22.25 Q203.6594,21.8906 203.4719,21.7031 Q203.1438,21.3281 202.5344,21.1094 Q201.925,20.8906 201.3,20.8906 Q200.5344,20.8906 199.9016,21.2188 Q199.2688,21.5469 198.7766,22.2969 Q198.2844,23.0469 198.2844,24.0781 L198.2844,25.1719 Q198.2844,26.4063 199.175,27.2266 Q200.0656,28.0469 201.6594,28.0469 Q202.5969,28.0469 203.2531,27.7969 Q203.6438,27.6406 204.0656,27.2031 Q204.3313,26.9375 204.4797,26.8594 Q204.6281,26.7813 204.8313,26.7813 Q205.1594,26.7813 205.4172,27.0391 Q205.675,27.2969 205.675,27.6406 Q205.675,27.9844 205.3313,28.3906 Q204.8313,28.9688 204.0344,29.2969 Q202.9563,29.75 201.6594,29.75 Q200.1438,29.75 198.9406,29.125 Q197.9563,28.625 197.2688,27.5547 Q196.5813,26.4844 196.5813,25.2031 L196.5813,24.0469 Q196.5813,22.7188 197.1984,21.5703 Q197.8156,20.4219 198.9094,19.8047 Q200.0031,19.1875 201.2375,19.1875 Q201.9719,19.1875 202.6203,19.3516 Q203.2688,19.5156 203.8156,19.875 Z "/><text fill="#000000" font-family="sans-serif" font-size="12" lengthAdjust="spacingAndGlyphs" textLength="135" x="217.95" y="28.9102">ETY_Component_Name</text><line style="stroke: #A80036; stroke-width: 1.5;" x1="174" x2="368" y1="40" y2="40"/><text fill="#000000" font-family="sans-serif" font-size="11" lengthAdjust="spacingAndGlyphs" textLength="105" x="179" y="55.4189">ATT_ID: DTY_Number</text><text fill="#000000" font-family="sans-serif" font-size="11" lengthAdjust="spacingAndGlyphs" textLength="184" x="179" y="69.2549">ATT_Attribute_Name1: DTY_Text_120</text><text fill="#000000" font-family="sans-serif" font-size="11" lengthAdjust="spacingAndGlyphs" textLength="184" x="179" y="83.0908">ATT_Attribute_Name2: DTY_Text_255</text><text fill="#000000" font-family="sans-serif" font-size="11" lengthAdjust="spacingAndGlyphs" textLength="178" x="179" y="96.9268">ATT_Attribute_Name3: DTY_Text_60</text><line style="stroke: #A80036; stroke-width: 1.5;" x1="174" x2="368" y1="103.3438" y2="103.3438"/><!--class ETY_Entity_Name3--><rect fill="#FEFECE" filter="url(#ft8z1e5t2yd9)" height="89.5078" id="ETY_Entity_Name3" style="stroke: #A80036; stroke-width: 1.5;" width="196" x="375" y="189"/><ellipse cx="416.1" cy="205" fill="#ADD1B2" rx="11" ry="11" style="stroke: #A80036; stroke-width: 1.0;"/><path d="M418.8656,200.875 Q419.0219,200.6563 419.2094,200.5469 Q419.3969,200.4375 419.6156,200.4375 Q419.9906,200.4375 420.225,200.6953 Q420.4594,200.9531 420.4594,201.5625 L420.4594,203.0156 Q420.4594,203.625 420.225,203.8906 Q419.9906,204.1563 419.6156,204.1563 Q419.2719,204.1563 419.0688,203.9531 Q418.8656,203.7656 418.7563,203.25 Q418.7094,202.8906 418.5219,202.7031 Q418.1938,202.3281 417.5844,202.1094 Q416.975,201.8906 416.35,201.8906 Q415.5844,201.8906 414.9516,202.2188 Q414.3188,202.5469 413.8266,203.2969 Q413.3344,204.0469 413.3344,205.0781 L413.3344,206.1719 Q413.3344,207.4063 414.225,208.2266 Q415.1156,209.0469 416.7094,209.0469 Q417.6469,209.0469 418.3031,208.7969 Q418.6938,208.6406 419.1156,208.2031 Q419.3813,207.9375 419.5297,207.8594 Q419.6781,207.7813 419.8813,207.7813 Q420.2094,207.7813 420.4672,208.0391 Q420.725,208.2969 420.725,208.6406 Q420.725,208.9844 420.3813,209.3906 Q419.8813,209.9688 419.0844,210.2969 Q418.0063,210.75 416.7094,210.75 Q415.1938,210.75 413.9906,210.125 Q413.0063,209.625 412.3188,208.5547 Q411.6313,207.4844 411.6313,206.2031 L411.6313,205.0469 Q411.6313,203.7188 412.2484,202.5703 Q412.8656,201.4219 413.9594,200.8047 Q415.0531,200.1875 416.2875,200.1875 Q417.0219,200.1875 417.6703,200.3516 Q418.3188,200.5156 418.8656,200.875 Z "/><text fill="#000000" font-family="sans-serif" font-size="12" lengthAdjust="spacingAndGlyphs" textLength="106" x="435.9" y="209.9102">ETY_Entity_Name3</text><line style="stroke: #A80036; stroke-width: 1.5;" x1="376" x2="570" y1="221" y2="221"/><text fill="#000000" font-family="sans-serif" font-size="11" lengthAdjust="spacingAndGlyphs" textLength="105" x="381" y="236.4189">ATT_ID: DTY_Number</text><text fill="#000000" font-family="sans-serif" font-size="11" lengthAdjust="spacingAndGlyphs" textLength="184" x="381" y="250.2549">ATT_Attribute_Name4: DTY_Text_120</text><text fill="#000000" font-family="sans-serif" font-size="11" lengthAdjust="spacingAndGlyphs" textLength="178" x="381" y="264.0908">ATT_Attribute_Name5: DTY_Boolean</text><line style="stroke: #A80036; stroke-width: 1.5;" x1="376" x2="570" y1="270.5078" y2="270.5078"/><!--link ETY_Component_Name to ETY_Entity_Name3--><path d="M369.311,103.504 C387.425,114.124 405.249,126.647 420,141 C433.871,154.498 445.28,172.4 453.913,188.823 " fill="none" id="ETY_Component_Name-ETY_Entity_Name3" style="stroke: #A80036; stroke-width: 1.0;"/><text fill="#000000" font-family="sans-serif" font-size="13" lengthAdjust="spacingAndGlyphs" textLength="53" x="436" y="155.4951">has roles</text><polygon fill="#000000" points="458,164.3516,461,170.3516,464,164.3516,458,164.3516" style="stroke: #000000; stroke-width: 1.0;"/><text fill="#000000" font-family="sans-serif" font-size="13" lengthAdjust="spacingAndGlyphs" textLength="22" x="376.9969" y="103.5309">0..1</text><text fill="#000000" font-family="sans-serif" font-size="13" lengthAdjust="spacingAndGlyphs" textLength="20" x="429.4591" y="178.24">0..*</text><!--link ETY_Component_Name to ETY_Entity_Name1--><path d="M172.62,96.871 C151.409,108.37 130.677,122.928 115,141 C99.929,158.373 91.8397,183.252 87.5675,202.759 " fill="none" id="ETY_Component_Name-ETY_Entity_Name1" style="stroke: #A80036; stroke-width: 1.0;"/><text fill="#000000" font-family="sans-serif" font-size="13" lengthAdjust="spacingAndGlyphs" textLength="133" x="116" y="155.4951">Inviter of Entity_Name1</text><polygon fill="#000000" points="178,164.3516,181,170.3516,184,164.3516,178,164.3516" style="stroke: #000000; stroke-width: 1.0;"/><text fill="#000000" font-family="sans-serif" font-size="13" lengthAdjust="spacingAndGlyphs" textLength="22" x="142.9292" y="96.4315">0..1</text><text fill="#000000" font-family="sans-serif" font-size="13" lengthAdjust="spacingAndGlyphs" textLength="20" x="66.447" y="192.2138">0..*</text><!--link ETY_Component_Name to ETY_Entity_Name2--><path d="M271,111.323 C271,141.038 271,177.543 271,202.774 " fill="none" id="ETY_Component_Name-ETY_Entity_Name2" style="stroke: #A80036; stroke-width: 1.0;"/><text fill="#000000" font-family="sans-serif" font-size="13" lengthAdjust="spacingAndGlyphs" textLength="126" x="272" y="155.4951">favorite Entity_Name2</text><polygon fill="#000000" points="330.5,164.3516,333.5,170.3516,336.5,164.3516,330.5,164.3516" style="stroke: #000000; stroke-width: 1.0;"/><text fill="#000000" font-family="sans-serif" font-size="13" lengthAdjust="spacingAndGlyphs" textLength="20" x="249.6563" y="132.8574">0..*</text><text fill="#000000" font-family="sans-serif" font-size="13" lengthAdjust="spacingAndGlyphs" textLength="20" x="248.9375" y="192.2319">0..*</text><!--
@startuml

  class ETY_Entity_Name1 {
    ...
  }
  note bottom: in MCO_Entity_Name1

  class ETY_Entity_Name2 {
    ...
  }

class ETY_Component_Name {
  ATT_ID: DTY_Number
  ATT_Attribute_Name1: DTY_Text_120
  ATT_Attribute_Name2: DTY_Text_255
  ATT_Attribute_Name3: DTY_Text_60
}

class ETY_Entity_Name3 {
  ATT_ID: DTY_Number
  ATT_Attribute_Name4: DTY_Text_120
  ATT_Attribute_Name5: DTY_Boolean
}

ETY_Component_Name "0..1" - - "0..*" ETY_Entity_Name3: has roles >

ETY_Component_Name "0..1" - - "0..*" ETY_Entity_Name1: Inviter of Entity_Name1 >

ETY_Component_Name "0..*" - - "0..*"  ETY_Entity_Name2: favorite Entity_Name2 >


@enduml

PlantUML version 1.2017.20(Mon Dec 11 17:57:05 CET 2017)
(GPL source distribution)
Java Runtime: Java(TM) SE Runtime Environment
JVM: Java HotSpot(TM) 64-Bit Server VM
Java Version: 1.8.0_74-b02
Operating System: Windows 10
OS Version: 10.0
Default Encoding: Cp1252
Language: en
Country: US
--></g></svg>