<?xml version="1.0" encoding="UTF-8" standalone="yes"?><svg xmlns="http://www.w3.org/2000/svg" xmlns:xlink="http://www.w3.org/1999/xlink" height="242px" style="width:221px;height:242px;" version="1.1" viewBox="0 0 221 242" width="221px"><defs><filter height="300%" id="fobd8ea" width="300%" x="-1" y="-1"><feGaussianBlur result="blurOut" stdDeviation="2.0"/><feColorMatrix in="blurOut" result="blurOut2" type="matrix" values="0 0 0 0 0 0 0 0 0 0 0 0 0 0 0 0 0 0 .4 0"/><feOffset dx="4.0" dy="4.0" in="blurOut2" result="blurOut3"/><feBlend in="SourceGraphic" in2="blurOut3" mode="normal"/></filter></defs><g><!--cluster MCO_User_Management--><polygon fill="#FFFFFF" filter="url(#fobd8ea)" points="22,127,202,127,209,150.6094,212,150.6094,212,235,22,235,22,127" style="stroke: #000000; stroke-width: 2.0;"/><line style="stroke: #000000; stroke-width: 2.0;" x1="22" x2="209" y1="150.6094" y2="150.6094"/><text fill="#000000" font-family="sans-serif" font-size="14" font-weight="bold" lengthAdjust="spacingAndGlyphs" textLength="174" x="26" y="143.5332">MCO_User_Management</text><!--class User--><rect fill="#FEFECE" filter="url(#fobd8ea)" height="56.1875" style="stroke: #A80036; stroke-width: 1.5;" width="88" x="73" y="163"/><ellipse cx="88" cy="183.0938" fill="#ADD1B2" rx="11" ry="11" style="stroke: #A80036; stroke-width: 1.0;"/><path d="M90.7656,178.9688 Q90.9219,178.75 91.1094,178.6406 Q91.2969,178.5313 91.5156,178.5313 Q91.8906,178.5313 92.125,178.7891 Q92.3594,179.0469 92.3594,179.6563 L92.3594,181.1094 Q92.3594,181.7188 92.125,181.9844 Q91.8906,182.25 91.5156,182.25 Q91.1719,182.25 90.9688,182.0469 Q90.7656,181.8594 90.6563,181.3438 Q90.6094,180.9844 90.4219,180.7969 Q90.0938,180.4219 89.4844,180.2031 Q88.875,179.9844 88.25,179.9844 Q87.4844,179.9844 86.8516,180.3125 Q86.2188,180.6406 85.7266,181.3906 Q85.2344,182.1406 85.2344,183.1719 L85.2344,184.2656 Q85.2344,185.5 86.125,186.3203 Q87.0156,187.1406 88.6094,187.1406 Q89.5469,187.1406 90.2031,186.8906 Q90.5938,186.7344 91.0156,186.2969 Q91.2813,186.0313 91.4297,185.9531 Q91.5781,185.875 91.7813,185.875 Q92.1094,185.875 92.3672,186.1328 Q92.625,186.3906 92.625,186.7344 Q92.625,187.0781 92.2813,187.4844 Q91.7813,188.0625 90.9844,188.3906 Q89.9063,188.8438 88.6094,188.8438 Q87.0938,188.8438 85.8906,188.2188 Q84.9063,187.7188 84.2188,186.6484 Q83.5313,185.5781 83.5313,184.2969 L83.5313,183.1406 Q83.5313,181.8125 84.1484,180.6641 Q84.7656,179.5156 85.8594,178.8984 Q86.9531,178.2813 88.1875,178.2813 Q88.9219,178.2813 89.5703,178.4453 Q90.2188,178.6094 90.7656,178.9688 Z "/><text fill="#000000" font-family="sans-serif" font-size="12" font-style="italic" lengthAdjust="spacingAndGlyphs" textLength="44" x="108" y="180.457">«Entity»</text><text fill="#000000" font-family="sans-serif" font-size="12" lengthAdjust="spacingAndGlyphs" textLength="56" x="102" y="195.5508">ETY_User</text><line style="stroke: #A80036; stroke-width: 1.5;" x1="74" x2="160" y1="203.1875" y2="203.1875"/><line style="stroke: #A80036; stroke-width: 1.5;" x1="74" x2="160" y1="211.1875" y2="211.1875"/><!--entity <<Screen>>\nSCR_<Screen_Name>--><rect fill="#FEFECE" filter="url(#fobd8ea)" height="55.2188" style="stroke: #A80036; stroke-width: 1.5;" width="162" x="36" y="8"/><rect fill="#FEFECE" height="5" style="stroke: #A80036; stroke-width: 1.5;" width="10" x="31" y="13"/><rect fill="#FEFECE" height="5" style="stroke: #A80036; stroke-width: 1.5;" width="10" x="31" y="53.2188"/><text fill="#000000" font-family="sans-serif" font-size="14" lengthAdjust="spacingAndGlyphs" textLength="61" x="86.5" y="32.5332">«Screen»</text><text fill="#000000" font-family="sans-serif" font-size="14" lengthAdjust="spacingAndGlyphs" textLength="142" x="46" y="50.1426">SCR_&lt;Screen_Name&gt;</text><path d="M117,63.238 C117,89.518 117,129.656 117,157.7043 " fill="none" style="stroke: #A80036; stroke-width: 1.0; stroke-dasharray: 7.0,7.0;"/><polygon fill="#A80036" points="117,162.7949,121,153.7949,117,157.7949,113,153.7949,117,162.7949" style="stroke: #A80036; stroke-width: 1.0;"/><text fill="#000000" font-family="sans-serif" font-size="13" lengthAdjust="spacingAndGlyphs" textLength="102" x="118" y="107.4951">&lt;&lt;writes entity&gt;&gt;</text></g></svg>