<?xml version="1.0" encoding="UTF-8" standalone="yes"?><svg xmlns="http://www.w3.org/2000/svg" xmlns:xlink="http://www.w3.org/1999/xlink" height="134px" style="width:337px;height:134px;" version="1.1" viewBox="0 0 337 134" width="337px"><defs><filter height="300%" id="f1" width="300%" x="-1" y="-1"><feGaussianBlur result="blurOut" stdDeviation="2.0"/><feColorMatrix in="blurOut" result="blurOut2" type="matrix" values="0 0 0 0 0 0 0 0 0 0 0 0 0 0 0 0 0 0 .4 0"/><feOffset dx="4.0" dy="4.0" in="blurOut2" result="blurOut3"/><feBlend in="SourceGraphic" in2="blurOut3" mode="normal"/></filter></defs><g><rect fill="#FEFECE" filter="url(#f1)" height="117.1797" style="stroke: #A80036; stroke-width: 1.5;" width="164" x="6" y="8"/><ellipse cx="49.35" cy="24" fill="#ADD1B2" rx="11" ry="11" style="stroke: #A80036; stroke-width: 1.0;"/><path d="M52.1156,19.875 Q52.2719,19.6563 52.4594,19.5469 Q52.6469,19.4375 52.8656,19.4375 Q53.2406,19.4375 53.475,19.6953 Q53.7094,19.9531 53.7094,20.5625 L53.7094,22.0156 Q53.7094,22.625 53.475,22.8906 Q53.2406,23.1563 52.8656,23.1563 Q52.5219,23.1563 52.3188,22.9531 Q52.1156,22.7656 52.0063,22.25 Q51.9594,21.8906 51.7719,21.7031 Q51.4438,21.3281 50.8344,21.1094 Q50.225,20.8906 49.6,20.8906 Q48.8344,20.8906 48.2016,21.2188 Q47.5688,21.5469 47.0766,22.2969 Q46.5844,23.0469 46.5844,24.0781 L46.5844,25.1719 Q46.5844,26.4063 47.475,27.2266 Q48.3656,28.0469 49.9594,28.0469 Q50.8969,28.0469 51.5531,27.7969 Q51.9438,27.6406 52.3656,27.2031 Q52.6313,26.9375 52.7797,26.8594 Q52.9281,26.7813 53.1313,26.7813 Q53.4594,26.7813 53.7172,27.0391 Q53.975,27.2969 53.975,27.6406 Q53.975,27.9844 53.6313,28.3906 Q53.1313,28.9688 52.3344,29.2969 Q51.2563,29.75 49.9594,29.75 Q48.4438,29.75 47.2406,29.125 Q46.2563,28.625 45.5688,27.5547 Q44.8813,26.4844 44.8813,25.2031 L44.8813,24.0469 Q44.8813,22.7188 45.4984,21.5703 Q46.1156,20.4219 47.2094,19.8047 Q48.3031,19.1875 49.5375,19.1875 Q50.2719,19.1875 50.9203,19.3516 Q51.5688,19.5156 52.1156,19.875 Z "/><text fill="#000000" font-family="sans-serif" font-size="12" lengthAdjust="spacingAndGlyphs" textLength="69" x="69.65" y="28.9102">StaffMember</text><line style="stroke: #A80036; stroke-width: 1.5;" x1="7" x2="169" y1="40" y2="40"/><text fill="#000000" font-family="sans-serif" font-size="11" lengthAdjust="spacingAndGlyphs" textLength="120" x="12" y="55.4189">Role : RoleCategory [0..*]</text><text fill="#000000" font-family="sans-serif" font-size="11" lengthAdjust="spacingAndGlyphs" textLength="121" x="12" y="69.2549">First Name : String_90 [1]</text><text fill="#000000" font-family="sans-serif" font-size="11" lengthAdjust="spacingAndGlyphs" textLength="124" x="12" y="83.0908">Last Name : String_90  [1]</text><text fill="#000000" font-family="sans-serif" font-size="11" lengthAdjust="spacingAndGlyphs" textLength="117" x="12" y="96.9268">Date of birth : Date [0..1]</text><text fill="#000000" font-family="sans-serif" font-size="11" lengthAdjust="spacingAndGlyphs" textLength="152" x="12" y="110.7627">Gender : GenderCategory [0..1]</text><line style="stroke: #A80036; stroke-width: 1.5;" x1="7" x2="169" y1="117.1797" y2="117.1797"/><rect fill="#FEFECE" filter="url(#f1)" height="103.3438" style="stroke: #A80036; stroke-width: 1.5;" width="123" x="205.5" y="15"/><ellipse cx="230.4" cy="31" fill="#ADD1B2" rx="11" ry="11" style="stroke: #A80036; stroke-width: 1.0;"/><path d="M233.1656,26.875 Q233.3219,26.6563 233.5094,26.5469 Q233.6969,26.4375 233.9156,26.4375 Q234.2906,26.4375 234.525,26.6953 Q234.7594,26.9531 234.7594,27.5625 L234.7594,29.0156 Q234.7594,29.625 234.525,29.8906 Q234.2906,30.1563 233.9156,30.1563 Q233.5719,30.1563 233.3688,29.9531 Q233.1656,29.7656 233.0563,29.25 Q233.0094,28.8906 232.8219,28.7031 Q232.4938,28.3281 231.8844,28.1094 Q231.275,27.8906 230.65,27.8906 Q229.8844,27.8906 229.2516,28.2188 Q228.6188,28.5469 228.1266,29.2969 Q227.6344,30.0469 227.6344,31.0781 L227.6344,32.1719 Q227.6344,33.4063 228.525,34.2266 Q229.4156,35.0469 231.0094,35.0469 Q231.9469,35.0469 232.6031,34.7969 Q232.9938,34.6406 233.4156,34.2031 Q233.6813,33.9375 233.8297,33.8594 Q233.9781,33.7813 234.1813,33.7813 Q234.5094,33.7813 234.7672,34.0391 Q235.025,34.2969 235.025,34.6406 Q235.025,34.9844 234.6813,35.3906 Q234.1813,35.9688 233.3844,36.2969 Q232.3063,36.75 231.0094,36.75 Q229.4938,36.75 228.2906,36.125 Q227.3063,35.625 226.6188,34.5547 Q225.9313,33.4844 225.9313,32.2031 L225.9313,31.0469 Q225.9313,29.7188 226.5484,28.5703 Q227.1656,27.4219 228.2594,26.8047 Q229.3531,26.1875 230.5875,26.1875 Q231.3219,26.1875 231.9703,26.3516 Q232.6188,26.5156 233.1656,26.875 Z "/><text fill="#000000" font-family="sans-serif" font-size="12" lengthAdjust="spacingAndGlyphs" textLength="69" x="246.6" y="35.9102">AccountData</text><line style="stroke: #A80036; stroke-width: 1.5;" x1="206.5" x2="327.5" y1="47" y2="47"/><text fill="#000000" font-family="sans-serif" font-size="11" lengthAdjust="spacingAndGlyphs" textLength="111" x="211.5" y="62.4189">AccountNumber : IBAN</text><text fill="#000000" font-family="sans-serif" font-size="11" lengthAdjust="spacingAndGlyphs" textLength="46" x="211.5" y="76.2549">Bank: BIC</text><text fill="#000000" font-family="sans-serif" font-size="11" lengthAdjust="spacingAndGlyphs" textLength="103" x="211.5" y="90.0908">First Name: String_90</text><text fill="#000000" font-family="sans-serif" font-size="11" lengthAdjust="spacingAndGlyphs" textLength="103" x="211.5" y="103.9268">Last Name: String_90</text><line style="stroke: #A80036; stroke-width: 1.5;" x1="206.5" x2="327.5" y1="110.3438" y2="110.3438"/><path d="M170.158,66.5 C181.885,66.5 193.612,66.5 205.339,66.5 " fill="none" style="stroke: #A80036; stroke-width: 1.0;"/></g></svg>