<?xml version="1.0" encoding="UTF-8" standalone="no"?><svg xmlns="http://www.w3.org/2000/svg" xmlns:xlink="http://www.w3.org/1999/xlink" contentScriptType="application/ecmascript" contentStyleType="text/css" height="397px" preserveAspectRatio="none" style="width:883px;height:397px;" version="1.1" viewBox="0 0 883 397" width="883px" zoomAndPan="magnify"><defs><filter height="300%" id="fcz4uos" width="300%" x="-1" y="-1"><feGaussianBlur result="blurOut" stdDeviation="2.0"/><feColorMatrix in="blurOut" result="blurOut2" type="matrix" values="0 0 0 0 0 0 0 0 0 0 0 0 0 0 0 0 0 0 .4 0"/><feOffset dx="4.0" dy="4.0" in="blurOut2" result="blurOut3"/><feBlend in="SourceGraphic" in2="blurOut3" mode="normal"/></filter></defs><g><!--cluster DIA_Book_Table_and_Invite_Friends--><polygon fill="#DDDDDD" filter="url(#fcz4uos)" points="431,136,694,136,701,159.6094,704,159.6094,704,260,431,260,431,136" style="stroke: #000000; stroke-width: 2.0;"/><line style="stroke: #000000; stroke-width: 2.0;" x1="431" x2="701" y1="159.6094" y2="159.6094"/><text fill="#000000" font-family="sans-serif" font-size="14" font-weight="bold" lengthAdjust="spacingAndGlyphs" textLength="257" x="435" y="152.5332">DIA_Book_Table_and_Invite_Friends</text><!--class SCR_Book_Table--><rect fill="#FEFECE" filter="url(#fcz4uos)" height="56.1875" style="stroke: #A80036; stroke-width: 1.5;" width="131" x="455.5" y="180"/><ellipse cx="470.5" cy="200.0938" fill="#ADD1B2" rx="11" ry="11" style="stroke: #A80036; stroke-width: 1.0;"/><path d="M473.2656,195.9688 Q473.4219,195.75 473.6094,195.6406 Q473.7969,195.5313 474.0156,195.5313 Q474.3906,195.5313 474.625,195.7891 Q474.8594,196.0469 474.8594,196.6563 L474.8594,198.1094 Q474.8594,198.7188 474.625,198.9844 Q474.3906,199.25 474.0156,199.25 Q473.6719,199.25 473.4688,199.0469 Q473.2656,198.8594 473.1563,198.3438 Q473.1094,197.9844 472.9219,197.7969 Q472.5938,197.4219 471.9844,197.2031 Q471.375,196.9844 470.75,196.9844 Q469.9844,196.9844 469.3516,197.3125 Q468.7188,197.6406 468.2266,198.3906 Q467.7344,199.1406 467.7344,200.1719 L467.7344,201.2656 Q467.7344,202.5 468.625,203.3203 Q469.5156,204.1406 471.1094,204.1406 Q472.0469,204.1406 472.7031,203.8906 Q473.0938,203.7344 473.5156,203.2969 Q473.7813,203.0313 473.9297,202.9531 Q474.0781,202.875 474.2813,202.875 Q474.6094,202.875 474.8672,203.1328 Q475.125,203.3906 475.125,203.7344 Q475.125,204.0781 474.7813,204.4844 Q474.2813,205.0625 473.4844,205.3906 Q472.4063,205.8438 471.1094,205.8438 Q469.5938,205.8438 468.3906,205.2188 Q467.4063,204.7188 466.7188,203.6484 Q466.0313,202.5781 466.0313,201.2969 L466.0313,200.1406 Q466.0313,198.8125 466.6484,197.6641 Q467.2656,196.5156 468.3594,195.8984 Q469.4531,195.2813 470.6875,195.2813 Q471.4219,195.2813 472.0703,195.4453 Q472.7188,195.6094 473.2656,195.9688 Z "/><text fill="#000000" font-family="sans-serif" font-size="12" font-style="italic" lengthAdjust="spacingAndGlyphs" textLength="64" x="502" y="197.457">«Dialogue»</text><text fill="#000000" font-family="sans-serif" font-size="12" lengthAdjust="spacingAndGlyphs" textLength="99" x="484.5" y="212.5508">SCR_Book_Table</text><line style="stroke: #A80036; stroke-width: 1.5;" x1="456.5" x2="585.5" y1="220.1875" y2="220.1875"/><line style="stroke: #A80036; stroke-width: 1.5;" x1="456.5" x2="585.5" y1="228.1875" y2="228.1875"/><!--class SCR_Main_Screen--><rect fill="#FEFECE" filter="url(#fcz4uos)" height="56.1875" style="stroke: #A80036; stroke-width: 1.5;" width="137" x="315.5" y="8"/><ellipse cx="330.5" cy="28.0938" fill="#ADD1B2" rx="11" ry="11" style="stroke: #A80036; stroke-width: 1.0;"/><path d="M333.2656,23.9688 Q333.4219,23.75 333.6094,23.6406 Q333.7969,23.5313 334.0156,23.5313 Q334.3906,23.5313 334.625,23.7891 Q334.8594,24.0469 334.8594,24.6563 L334.8594,26.1094 Q334.8594,26.7188 334.625,26.9844 Q334.3906,27.25 334.0156,27.25 Q333.6719,27.25 333.4688,27.0469 Q333.2656,26.8594 333.1563,26.3438 Q333.1094,25.9844 332.9219,25.7969 Q332.5938,25.4219 331.9844,25.2031 Q331.375,24.9844 330.75,24.9844 Q329.9844,24.9844 329.3516,25.3125 Q328.7188,25.6406 328.2266,26.3906 Q327.7344,27.1406 327.7344,28.1719 L327.7344,29.2656 Q327.7344,30.5 328.625,31.3203 Q329.5156,32.1406 331.1094,32.1406 Q332.0469,32.1406 332.7031,31.8906 Q333.0938,31.7344 333.5156,31.2969 Q333.7813,31.0313 333.9297,30.9531 Q334.0781,30.875 334.2813,30.875 Q334.6094,30.875 334.8672,31.1328 Q335.125,31.3906 335.125,31.7344 Q335.125,32.0781 334.7813,32.4844 Q334.2813,33.0625 333.4844,33.3906 Q332.4063,33.8438 331.1094,33.8438 Q329.5938,33.8438 328.3906,33.2188 Q327.4063,32.7188 326.7188,31.6484 Q326.0313,30.5781 326.0313,29.2969 L326.0313,28.1406 Q326.0313,26.8125 326.6484,25.6641 Q327.2656,24.5156 328.3594,23.8984 Q329.4531,23.2813 330.6875,23.2813 Q331.4219,23.2813 332.0703,23.4453 Q332.7188,23.6094 333.2656,23.9688 Z "/><text fill="#000000" font-family="sans-serif" font-size="12" font-style="italic" lengthAdjust="spacingAndGlyphs" textLength="53" x="370.5" y="25.457">«Screen»</text><text fill="#000000" font-family="sans-serif" font-size="12" lengthAdjust="spacingAndGlyphs" textLength="105" x="344.5" y="40.5508">SCR_Main_Screen</text><line style="stroke: #A80036; stroke-width: 1.5;" x1="316.5" x2="451.5" y1="48.1875" y2="48.1875"/><line style="stroke: #A80036; stroke-width: 1.5;" x1="316.5" x2="451.5" y1="56.1875" y2="56.1875"/><!--class SCR_User_Login--><rect fill="#FEFECE" filter="url(#fcz4uos)" height="56.1875" style="stroke: #A80036; stroke-width: 1.5;" width="130" x="6" y="180"/><ellipse cx="21" cy="200.0938" fill="#ADD1B2" rx="11" ry="11" style="stroke: #A80036; stroke-width: 1.0;"/><path d="M23.7656,195.9688 Q23.9219,195.75 24.1094,195.6406 Q24.2969,195.5313 24.5156,195.5313 Q24.8906,195.5313 25.125,195.7891 Q25.3594,196.0469 25.3594,196.6563 L25.3594,198.1094 Q25.3594,198.7188 25.125,198.9844 Q24.8906,199.25 24.5156,199.25 Q24.1719,199.25 23.9688,199.0469 Q23.7656,198.8594 23.6563,198.3438 Q23.6094,197.9844 23.4219,197.7969 Q23.0938,197.4219 22.4844,197.2031 Q21.875,196.9844 21.25,196.9844 Q20.4844,196.9844 19.8516,197.3125 Q19.2188,197.6406 18.7266,198.3906 Q18.2344,199.1406 18.2344,200.1719 L18.2344,201.2656 Q18.2344,202.5 19.125,203.3203 Q20.0156,204.1406 21.6094,204.1406 Q22.5469,204.1406 23.2031,203.8906 Q23.5938,203.7344 24.0156,203.2969 Q24.2813,203.0313 24.4297,202.9531 Q24.5781,202.875 24.7813,202.875 Q25.1094,202.875 25.3672,203.1328 Q25.625,203.3906 25.625,203.7344 Q25.625,204.0781 25.2813,204.4844 Q24.7813,205.0625 23.9844,205.3906 Q22.9063,205.8438 21.6094,205.8438 Q20.0938,205.8438 18.8906,205.2188 Q17.9063,204.7188 17.2188,203.6484 Q16.5313,202.5781 16.5313,201.2969 L16.5313,200.1406 Q16.5313,198.8125 17.1484,197.6641 Q17.7656,196.5156 18.8594,195.8984 Q19.9531,195.2813 21.1875,195.2813 Q21.9219,195.2813 22.5703,195.4453 Q23.2188,195.6094 23.7656,195.9688 Z "/><text fill="#000000" font-family="sans-serif" font-size="12" font-style="italic" lengthAdjust="spacingAndGlyphs" textLength="53" x="57.5" y="197.457">«Screen»</text><text fill="#000000" font-family="sans-serif" font-size="12" lengthAdjust="spacingAndGlyphs" textLength="98" x="35" y="212.5508">SCR_User_Login</text><line style="stroke: #A80036; stroke-width: 1.5;" x1="7" x2="135" y1="220.1875" y2="220.1875"/><line style="stroke: #A80036; stroke-width: 1.5;" x1="7" x2="135" y1="228.1875" y2="228.1875"/><!--class SCR_User_Signup--><rect fill="#FEFECE" filter="url(#fcz4uos)" height="56.1875" style="stroke: #A80036; stroke-width: 1.5;" width="138" x="109" y="332"/><ellipse cx="124" cy="352.0938" fill="#ADD1B2" rx="11" ry="11" style="stroke: #A80036; stroke-width: 1.0;"/><path d="M126.7656,347.9688 Q126.9219,347.75 127.1094,347.6406 Q127.2969,347.5313 127.5156,347.5313 Q127.8906,347.5313 128.125,347.7891 Q128.3594,348.0469 128.3594,348.6563 L128.3594,350.1094 Q128.3594,350.7188 128.125,350.9844 Q127.8906,351.25 127.5156,351.25 Q127.1719,351.25 126.9688,351.0469 Q126.7656,350.8594 126.6563,350.3438 Q126.6094,349.9844 126.4219,349.7969 Q126.0938,349.4219 125.4844,349.2031 Q124.875,348.9844 124.25,348.9844 Q123.4844,348.9844 122.8516,349.3125 Q122.2188,349.6406 121.7266,350.3906 Q121.2344,351.1406 121.2344,352.1719 L121.2344,353.2656 Q121.2344,354.5 122.125,355.3203 Q123.0156,356.1406 124.6094,356.1406 Q125.5469,356.1406 126.2031,355.8906 Q126.5938,355.7344 127.0156,355.2969 Q127.2813,355.0313 127.4297,354.9531 Q127.5781,354.875 127.7813,354.875 Q128.1094,354.875 128.3672,355.1328 Q128.625,355.3906 128.625,355.7344 Q128.625,356.0781 128.2813,356.4844 Q127.7813,357.0625 126.9844,357.3906 Q125.9063,357.8438 124.6094,357.8438 Q123.0938,357.8438 121.8906,357.2188 Q120.9063,356.7188 120.2188,355.6484 Q119.5313,354.5781 119.5313,353.2969 L119.5313,352.1406 Q119.5313,350.8125 120.1484,349.6641 Q120.7656,348.5156 121.8594,347.8984 Q122.9531,347.2813 124.1875,347.2813 Q124.9219,347.2813 125.5703,347.4453 Q126.2188,347.6094 126.7656,347.9688 Z "/><text fill="#000000" font-family="sans-serif" font-size="12" font-style="italic" lengthAdjust="spacingAndGlyphs" textLength="53" x="164.5" y="349.457">«Screen»</text><text fill="#000000" font-family="sans-serif" font-size="12" lengthAdjust="spacingAndGlyphs" textLength="106" x="138" y="364.5508">SCR_User_Signup</text><line style="stroke: #A80036; stroke-width: 1.5;" x1="110" x2="246" y1="372.1875" y2="372.1875"/><line style="stroke: #A80036; stroke-width: 1.5;" x1="110" x2="246" y1="380.1875" y2="380.1875"/><!--class DIA_Show_Menu_and_Create_Order--><rect fill="#FEFECE" filter="url(#fcz4uos)" height="56.1875" style="stroke: #A80036; stroke-width: 1.5;" width="236" x="171" y="180"/><ellipse cx="186" cy="200.0938" fill="#ADD1B2" rx="11" ry="11" style="stroke: #A80036; stroke-width: 1.0;"/><path d="M188.7656,195.9688 Q188.9219,195.75 189.1094,195.6406 Q189.2969,195.5313 189.5156,195.5313 Q189.8906,195.5313 190.125,195.7891 Q190.3594,196.0469 190.3594,196.6563 L190.3594,198.1094 Q190.3594,198.7188 190.125,198.9844 Q189.8906,199.25 189.5156,199.25 Q189.1719,199.25 188.9688,199.0469 Q188.7656,198.8594 188.6563,198.3438 Q188.6094,197.9844 188.4219,197.7969 Q188.0938,197.4219 187.4844,197.2031 Q186.875,196.9844 186.25,196.9844 Q185.4844,196.9844 184.8516,197.3125 Q184.2188,197.6406 183.7266,198.3906 Q183.2344,199.1406 183.2344,200.1719 L183.2344,201.2656 Q183.2344,202.5 184.125,203.3203 Q185.0156,204.1406 186.6094,204.1406 Q187.5469,204.1406 188.2031,203.8906 Q188.5938,203.7344 189.0156,203.2969 Q189.2813,203.0313 189.4297,202.9531 Q189.5781,202.875 189.7813,202.875 Q190.1094,202.875 190.3672,203.1328 Q190.625,203.3906 190.625,203.7344 Q190.625,204.0781 190.2813,204.4844 Q189.7813,205.0625 188.9844,205.3906 Q187.9063,205.8438 186.6094,205.8438 Q185.0938,205.8438 183.8906,205.2188 Q182.9063,204.7188 182.2188,203.6484 Q181.5313,202.5781 181.5313,201.2969 L181.5313,200.1406 Q181.5313,198.8125 182.1484,197.6641 Q182.7656,196.5156 183.8594,195.8984 Q184.9531,195.2813 186.1875,195.2813 Q186.9219,195.2813 187.5703,195.4453 Q188.2188,195.6094 188.7656,195.9688 Z "/><text fill="#000000" font-family="sans-serif" font-size="12" font-style="italic" lengthAdjust="spacingAndGlyphs" textLength="64" x="270" y="197.457">«Dialogue»</text><text fill="#000000" font-family="sans-serif" font-size="12" lengthAdjust="spacingAndGlyphs" textLength="204" x="200" y="212.5508">DIA_Show_Menu_and_Create_Order</text><line style="stroke: #A80036; stroke-width: 1.5;" x1="172" x2="406" y1="220.1875" y2="220.1875"/><line style="stroke: #A80036; stroke-width: 1.5;" x1="172" x2="406" y1="228.1875" y2="228.1875"/><!--class DIA_Supervise_Orders--><rect fill="#FEFECE" filter="url(#fcz4uos)" height="56.1875" style="stroke: #A80036; stroke-width: 1.5;" width="158" x="488" y="8"/><ellipse cx="503" cy="28.0938" fill="#ADD1B2" rx="11" ry="11" style="stroke: #A80036; stroke-width: 1.0;"/><path d="M505.7656,23.9688 Q505.9219,23.75 506.1094,23.6406 Q506.2969,23.5313 506.5156,23.5313 Q506.8906,23.5313 507.125,23.7891 Q507.3594,24.0469 507.3594,24.6563 L507.3594,26.1094 Q507.3594,26.7188 507.125,26.9844 Q506.8906,27.25 506.5156,27.25 Q506.1719,27.25 505.9688,27.0469 Q505.7656,26.8594 505.6563,26.3438 Q505.6094,25.9844 505.4219,25.7969 Q505.0938,25.4219 504.4844,25.2031 Q503.875,24.9844 503.25,24.9844 Q502.4844,24.9844 501.8516,25.3125 Q501.2188,25.6406 500.7266,26.3906 Q500.2344,27.1406 500.2344,28.1719 L500.2344,29.2656 Q500.2344,30.5 501.125,31.3203 Q502.0156,32.1406 503.6094,32.1406 Q504.5469,32.1406 505.2031,31.8906 Q505.5938,31.7344 506.0156,31.2969 Q506.2813,31.0313 506.4297,30.9531 Q506.5781,30.875 506.7813,30.875 Q507.1094,30.875 507.3672,31.1328 Q507.625,31.3906 507.625,31.7344 Q507.625,32.0781 507.2813,32.4844 Q506.7813,33.0625 505.9844,33.3906 Q504.9063,33.8438 503.6094,33.8438 Q502.0938,33.8438 500.8906,33.2188 Q499.9063,32.7188 499.2188,31.6484 Q498.5313,30.5781 498.5313,29.2969 L498.5313,28.1406 Q498.5313,26.8125 499.1484,25.6641 Q499.7656,24.5156 500.8594,23.8984 Q501.9531,23.2813 503.1875,23.2813 Q503.9219,23.2813 504.5703,23.4453 Q505.2188,23.6094 505.7656,23.9688 Z "/><text fill="#000000" font-family="sans-serif" font-size="12" font-style="italic" lengthAdjust="spacingAndGlyphs" textLength="64" x="548" y="25.457">«Dialogue»</text><text fill="#000000" font-family="sans-serif" font-size="12" lengthAdjust="spacingAndGlyphs" textLength="126" x="517" y="40.5508">DIA_Supervise_Orders</text><line style="stroke: #A80036; stroke-width: 1.5;" x1="489" x2="645" y1="48.1875" y2="48.1875"/><line style="stroke: #A80036; stroke-width: 1.5;" x1="489" x2="645" y1="56.1875" y2="56.1875"/><!--class DIA_Supervise_Reservations--><rect fill="#FEFECE" filter="url(#fcz4uos)" height="56.1875" style="stroke: #A80036; stroke-width: 1.5;" width="193" x="681.5" y="8"/><ellipse cx="696.5" cy="28.0938" fill="#ADD1B2" rx="11" ry="11" style="stroke: #A80036; stroke-width: 1.0;"/><path d="M699.2656,23.9688 Q699.4219,23.75 699.6094,23.6406 Q699.7969,23.5313 700.0156,23.5313 Q700.3906,23.5313 700.625,23.7891 Q700.8594,24.0469 700.8594,24.6563 L700.8594,26.1094 Q700.8594,26.7188 700.625,26.9844 Q700.3906,27.25 700.0156,27.25 Q699.6719,27.25 699.4688,27.0469 Q699.2656,26.8594 699.1563,26.3438 Q699.1094,25.9844 698.9219,25.7969 Q698.5938,25.4219 697.9844,25.2031 Q697.375,24.9844 696.75,24.9844 Q695.9844,24.9844 695.3516,25.3125 Q694.7188,25.6406 694.2266,26.3906 Q693.7344,27.1406 693.7344,28.1719 L693.7344,29.2656 Q693.7344,30.5 694.625,31.3203 Q695.5156,32.1406 697.1094,32.1406 Q698.0469,32.1406 698.7031,31.8906 Q699.0938,31.7344 699.5156,31.2969 Q699.7813,31.0313 699.9297,30.9531 Q700.0781,30.875 700.2813,30.875 Q700.6094,30.875 700.8672,31.1328 Q701.125,31.3906 701.125,31.7344 Q701.125,32.0781 700.7813,32.4844 Q700.2813,33.0625 699.4844,33.3906 Q698.4063,33.8438 697.1094,33.8438 Q695.5938,33.8438 694.3906,33.2188 Q693.4063,32.7188 692.7188,31.6484 Q692.0313,30.5781 692.0313,29.2969 L692.0313,28.1406 Q692.0313,26.8125 692.6484,25.6641 Q693.2656,24.5156 694.3594,23.8984 Q695.4531,23.2813 696.6875,23.2813 Q697.4219,23.2813 698.0703,23.4453 Q698.7188,23.6094 699.2656,23.9688 Z "/><text fill="#000000" font-family="sans-serif" font-size="12" font-style="italic" lengthAdjust="spacingAndGlyphs" textLength="64" x="759" y="25.457">«Dialogue»</text><text fill="#000000" font-family="sans-serif" font-size="12" lengthAdjust="spacingAndGlyphs" textLength="161" x="710.5" y="40.5508">DIA_Supervise_Reservations</text><line style="stroke: #A80036; stroke-width: 1.5;" x1="682.5" x2="873.5" y1="48.1875" y2="48.1875"/><line style="stroke: #A80036; stroke-width: 1.5;" x1="682.5" x2="873.5" y1="56.1875" y2="56.1875"/><path d="M315.278,39.442 C231.977,44.015 98.8784,57.053 68,94 C52.9495,112.008 52.6152,137.851 56.5324,160.279 " fill="none" style="stroke: #A80036; stroke-width: 1.0;"/><polygon fill="none" points="63.4013,158.911,61.1362,179.98,49.7686,162.097,63.4013,158.911" style="stroke: #A80036; stroke-width: 1.0;"/><text fill="#000000" font-family="sans-serif" font-size="13" lengthAdjust="spacingAndGlyphs" textLength="55" x="69" y="108.4951">User Icon</text><path d="M94.1751,179.845 C109.966,162.008 131.782,138.618 153,120 C167.835,106.983 171.271,102.672 189,94 C222.372,77.676 261.292,65.136 295.547,56.029 " fill="none" style="stroke: #A80036; stroke-width: 1.0;"/><polygon fill="none" points="293.991,49.202,315.099,51.061,297.439,62.771,293.991,49.202" style="stroke: #A80036; stroke-width: 1.0;"/><text fill="#000000" font-family="sans-serif" font-size="13" lengthAdjust="spacingAndGlyphs" textLength="100" x="190" y="108.4951">Cancel / Register</text><path d="M62.6546,236.241 C58.3081,255.93 56.0814,282.4 68,302 C73.9758,311.827 82.2545,320.0357 91.6133,326.8733 " fill="none" style="stroke: #A80036; stroke-width: 1.0;"/><polygon fill="none" points="95.4034,320.9864,108.757,337.4392,88.0578,332.9046,95.4034,320.9864" style="stroke: #A80036; stroke-width: 1.0;"/><text fill="#000000" font-family="sans-serif" font-size="13" lengthAdjust="spacingAndGlyphs" textLength="65" x="69" y="298.4951">Tab Signup</text><path d="M165.878,331.6566 C158.87,317.0002 149.395,298.937 139,284 C131.133,272.696 121.711,261.285 112.423,250.892 " fill="none" style="stroke: #A80036; stroke-width: 1.0;"/><polygon fill="none" points="107.12,255.468,98.6484,236.046,117.383,245.946,107.12,255.468" style="stroke: #A80036; stroke-width: 1.0;"/><text fill="#000000" font-family="sans-serif" font-size="13" lengthAdjust="spacingAndGlyphs" textLength="56" x="152" y="298.4951">Tab Login</text><path d="M247.133,358.9048 C377.724,357.097 652.911,344.9833 712,276 C757.104,223.343 752.54,176.246 712,120 C650.916,35.251 584.699,84.495 472.37,63.677 " fill="none" style="stroke: #A80036; stroke-width: 1.0;"/><polygon fill="none" points="470.845,70.509,452.79,59.418,473.821,56.829,470.845,70.509" style="stroke: #A80036; stroke-width: 1.0;"/><text fill="#000000" font-family="sans-serif" font-size="13" lengthAdjust="spacingAndGlyphs" textLength="100" x="745" y="213.4951">Cancel / Register</text><path d="M406.011,64.313 C427.682,91.204 461.107,132.68 486.345,163.997 " fill="none" style="stroke: #A80036; stroke-width: 1.0;"/><polygon fill="none" points="491.944,159.789,499.043,179.754,481.043,168.574,491.944,159.789" style="stroke: #A80036; stroke-width: 1.0;"/><text fill="#000000" font-family="sans-serif" font-size="13" lengthAdjust="spacingAndGlyphs" textLength="62" x="446" y="108.4951">Book table</text><path d="M612.8188,135.5893 C612.7558,135.4517 612.6924,135.3144 612.6286,135.1773 C612.1183,134.0804 611.5835,132.9965 611.0231,131.9282 C608.7814,127.6548 606.1305,123.629 603,120 C593.67,109.184 528.595,85.233 471.785,65.826 " fill="none" style="stroke: #A80036; stroke-width: 1.0;"/><polygon fill="none" points="469.237,72.354,452.535,59.313,473.724,59.093,469.237,72.354" style="stroke: #A80036; stroke-width: 1.0;"/><text fill="#000000" font-family="sans-serif" font-size="13" lengthAdjust="spacingAndGlyphs" textLength="34" x="591" y="108.4951">Home</text><path d="M335.451,64.046 C324.524,72.305 314.079,82.343 307,94 C295.152,113.509 290.314,138.269 288.579,159.636 " fill="none" style="stroke: #A80036; stroke-width: 1.0;"/><polygon fill="none" points="295.56,160.241,287.733,179.932,281.572,159.657,295.56,160.241" style="stroke: #A80036; stroke-width: 1.0;"/><text fill="#000000" font-family="sans-serif" font-size="13" lengthAdjust="spacingAndGlyphs" textLength="32" x="308" y="108.4951">Menu</text><path d="M305.562,179.784 C316.92,160.909 332.193,135.109 345,112 C350.289,102.457 355.795,92.131 360.946,82.283 " fill="none" style="stroke: #A80036; stroke-width: 1.0;"/><polygon fill="none" points="354.86,78.813,370.264,64.263,367.296,85.243,354.86,78.813" style="stroke: #A80036; stroke-width: 1.0;"/><text fill="#000000" font-family="sans-serif" font-size="13" lengthAdjust="spacingAndGlyphs" textLength="34" x="355" y="108.4951">Home</text></g></svg>