<?xml version="1.0" encoding="UTF-8" standalone="no"?><svg xmlns="http://www.w3.org/2000/svg" xmlns:xlink="http://www.w3.org/1999/xlink" contentScriptType="application/ecmascript" contentStyleType="text/css" height="395px" preserveAspectRatio="none" style="width:342px;height:395px;" version="1.1" viewBox="0 0 342 395" width="342px" zoomAndPan="magnify"><defs><filter height="300%" id="fijo81o" width="300%" x="-1" y="-1"><feGaussianBlur result="blurOut" stdDeviation="2.0"/><feColorMatrix in="blurOut" result="blurOut2" type="matrix" values="0 0 0 0 0 0 0 0 0 0 0 0 0 0 0 0 0 0 .4 0"/><feOffset dx="4.0" dy="4.0" in="blurOut2" result="blurOut3"/><feBlend in="SourceGraphic" in2="blurOut3" mode="normal"/></filter></defs><g><!--cluster DIA_Main_Screen_and_User_Management--><polygon fill="#DDDDDD" filter="url(#fijo81o)" points="22,24,325,24,332,47.6094,335,47.6094,335,132,22,132,22,24" style="stroke: #000000; stroke-width: 2.0;"/><line style="stroke: #000000; stroke-width: 2.0;" x1="22" x2="332" y1="47.6094" y2="47.6094"/><text fill="#000000" font-family="sans-serif" font-size="14" font-weight="bold" lengthAdjust="spacingAndGlyphs" textLength="297" x="26" y="40.5332">DIA_Main_Screen_and_User_Management</text><!--class SCR_Main_Screen--><rect fill="#FEFECE" filter="url(#fijo81o)" height="56.1875" style="stroke: #A80036; stroke-width: 1.5;" width="137" x="109.5" y="60"/><ellipse cx="124.5" cy="80.0938" fill="#ADD1B2" rx="11" ry="11" style="stroke: #A80036; stroke-width: 1.0;"/><path d="M127.2656,75.9688 Q127.4219,75.75 127.6094,75.6406 Q127.7969,75.5313 128.0156,75.5313 Q128.3906,75.5313 128.625,75.7891 Q128.8594,76.0469 128.8594,76.6563 L128.8594,78.1094 Q128.8594,78.7188 128.625,78.9844 Q128.3906,79.25 128.0156,79.25 Q127.6719,79.25 127.4688,79.0469 Q127.2656,78.8594 127.1563,78.3438 Q127.1094,77.9844 126.9219,77.7969 Q126.5938,77.4219 125.9844,77.2031 Q125.375,76.9844 124.75,76.9844 Q123.9844,76.9844 123.3516,77.3125 Q122.7188,77.6406 122.2266,78.3906 Q121.7344,79.1406 121.7344,80.1719 L121.7344,81.2656 Q121.7344,82.5 122.625,83.3203 Q123.5156,84.1406 125.1094,84.1406 Q126.0469,84.1406 126.7031,83.8906 Q127.0938,83.7344 127.5156,83.2969 Q127.7813,83.0313 127.9297,82.9531 Q128.0781,82.875 128.2813,82.875 Q128.6094,82.875 128.8672,83.1328 Q129.125,83.3906 129.125,83.7344 Q129.125,84.0781 128.7813,84.4844 Q128.2813,85.0625 127.4844,85.3906 Q126.4063,85.8438 125.1094,85.8438 Q123.5938,85.8438 122.3906,85.2188 Q121.4063,84.7188 120.7188,83.6484 Q120.0313,82.5781 120.0313,81.2969 L120.0313,80.1406 Q120.0313,78.8125 120.6484,77.6641 Q121.2656,76.5156 122.3594,75.8984 Q123.4531,75.2813 124.6875,75.2813 Q125.4219,75.2813 126.0703,75.4453 Q126.7188,75.6094 127.2656,75.9688 Z "/><text fill="#000000" font-family="sans-serif" font-size="12" font-style="italic" lengthAdjust="spacingAndGlyphs" textLength="53" x="164.5" y="77.457">«Screen»</text><text fill="#000000" font-family="sans-serif" font-size="12" lengthAdjust="spacingAndGlyphs" textLength="105" x="138.5" y="92.5508">SCR_Main_Screen</text><line style="stroke: #A80036; stroke-width: 1.5;" x1="110.5" x2="245.5" y1="100.1875" y2="100.1875"/><line style="stroke: #A80036; stroke-width: 1.5;" x1="110.5" x2="245.5" y1="108.1875" y2="108.1875"/><!--class SCR_Book_Table--><rect fill="#FEFECE" filter="url(#fijo81o)" height="56.1875" style="stroke: #A80036; stroke-width: 1.5;" width="131" x="112.5" y="196"/><ellipse cx="127.5" cy="216.0938" fill="#ADD1B2" rx="11" ry="11" style="stroke: #A80036; stroke-width: 1.0;"/><path d="M130.2656,211.9688 Q130.4219,211.75 130.6094,211.6406 Q130.7969,211.5313 131.0156,211.5313 Q131.3906,211.5313 131.625,211.7891 Q131.8594,212.0469 131.8594,212.6563 L131.8594,214.1094 Q131.8594,214.7188 131.625,214.9844 Q131.3906,215.25 131.0156,215.25 Q130.6719,215.25 130.4688,215.0469 Q130.2656,214.8594 130.1563,214.3438 Q130.1094,213.9844 129.9219,213.7969 Q129.5938,213.4219 128.9844,213.2031 Q128.375,212.9844 127.75,212.9844 Q126.9844,212.9844 126.3516,213.3125 Q125.7188,213.6406 125.2266,214.3906 Q124.7344,215.1406 124.7344,216.1719 L124.7344,217.2656 Q124.7344,218.5 125.625,219.3203 Q126.5156,220.1406 128.1094,220.1406 Q129.0469,220.1406 129.7031,219.8906 Q130.0938,219.7344 130.5156,219.2969 Q130.7813,219.0313 130.9297,218.9531 Q131.0781,218.875 131.2813,218.875 Q131.6094,218.875 131.8672,219.1328 Q132.125,219.3906 132.125,219.7344 Q132.125,220.0781 131.7813,220.4844 Q131.2813,221.0625 130.4844,221.3906 Q129.4063,221.8438 128.1094,221.8438 Q126.5938,221.8438 125.3906,221.2188 Q124.4063,220.7188 123.7188,219.6484 Q123.0313,218.5781 123.0313,217.2969 L123.0313,216.1406 Q123.0313,214.8125 123.6484,213.6641 Q124.2656,212.5156 125.3594,211.8984 Q126.4531,211.2813 127.6875,211.2813 Q128.4219,211.2813 129.0703,211.4453 Q129.7188,211.6094 130.2656,211.9688 Z "/><text fill="#000000" font-family="sans-serif" font-size="12" font-style="italic" lengthAdjust="spacingAndGlyphs" textLength="53" x="164.5" y="213.457">«Screen»</text><text fill="#000000" font-family="sans-serif" font-size="12" lengthAdjust="spacingAndGlyphs" textLength="99" x="141.5" y="228.5508">SCR_Book_Table</text><line style="stroke: #A80036; stroke-width: 1.5;" x1="113.5" x2="242.5" y1="236.1875" y2="236.1875"/><line style="stroke: #A80036; stroke-width: 1.5;" x1="113.5" x2="242.5" y1="244.1875" y2="244.1875"/><!--class SCR_Invite_Friends--><rect fill="#FEFECE" filter="url(#fijo81o)" height="56.1875" style="stroke: #A80036; stroke-width: 1.5;" width="142" x="107" y="330"/><ellipse cx="122" cy="350.0938" fill="#ADD1B2" rx="11" ry="11" style="stroke: #A80036; stroke-width: 1.0;"/><path d="M124.7656,345.9688 Q124.9219,345.75 125.1094,345.6406 Q125.2969,345.5313 125.5156,345.5313 Q125.8906,345.5313 126.125,345.7891 Q126.3594,346.0469 126.3594,346.6563 L126.3594,348.1094 Q126.3594,348.7188 126.125,348.9844 Q125.8906,349.25 125.5156,349.25 Q125.1719,349.25 124.9688,349.0469 Q124.7656,348.8594 124.6563,348.3438 Q124.6094,347.9844 124.4219,347.7969 Q124.0938,347.4219 123.4844,347.2031 Q122.875,346.9844 122.25,346.9844 Q121.4844,346.9844 120.8516,347.3125 Q120.2188,347.6406 119.7266,348.3906 Q119.2344,349.1406 119.2344,350.1719 L119.2344,351.2656 Q119.2344,352.5 120.125,353.3203 Q121.0156,354.1406 122.6094,354.1406 Q123.5469,354.1406 124.2031,353.8906 Q124.5938,353.7344 125.0156,353.2969 Q125.2813,353.0313 125.4297,352.9531 Q125.5781,352.875 125.7813,352.875 Q126.1094,352.875 126.3672,353.1328 Q126.625,353.3906 126.625,353.7344 Q126.625,354.0781 126.2813,354.4844 Q125.7813,355.0625 124.9844,355.3906 Q123.9063,355.8438 122.6094,355.8438 Q121.0938,355.8438 119.8906,355.2188 Q118.9063,354.7188 118.2188,353.6484 Q117.5313,352.5781 117.5313,351.2969 L117.5313,350.1406 Q117.5313,348.8125 118.1484,347.6641 Q118.7656,346.5156 119.8594,345.8984 Q120.9531,345.2813 122.1875,345.2813 Q122.9219,345.2813 123.5703,345.4453 Q124.2188,345.6094 124.7656,345.9688 Z "/><text fill="#000000" font-family="sans-serif" font-size="12" font-style="italic" lengthAdjust="spacingAndGlyphs" textLength="53" x="164.5" y="347.457">«Screen»</text><text fill="#000000" font-family="sans-serif" font-size="12" lengthAdjust="spacingAndGlyphs" textLength="110" x="136" y="362.5508">SCR_Invite_Friends</text><line style="stroke: #A80036; stroke-width: 1.5;" x1="108" x2="248" y1="370.1875" y2="370.1875"/><line style="stroke: #A80036; stroke-width: 1.5;" x1="108" x2="248" y1="378.1875" y2="378.1875"/><path d="M178,116.117 C178,133.19 178,155.695 178,175.65 " fill="none" style="stroke: #A80036; stroke-width: 1.0;"/><polygon fill="none" points="185,175.923,178,195.923,171,175.923,185,175.923" style="stroke: #A80036; stroke-width: 1.0;"/><text fill="#000000" font-family="sans-serif" font-size="13" lengthAdjust="spacingAndGlyphs" textLength="83" x="179" y="162.4951">BOOK TABLE</text><path d="M195.849,329.7069 C202.938,315.6942 208.643,298.2021 205,282 C204.18,278.353 203.098,274.664 201.84,271.011 " fill="none" style="stroke: #A80036; stroke-width: 1.0;"/><polygon fill="none" points="195.242,273.382,193.897,252.235,208.136,267.928,195.242,273.382" style="stroke: #A80036; stroke-width: 1.0;"/><text fill="#000000" font-family="sans-serif" font-size="13" lengthAdjust="spacingAndGlyphs" textLength="101" x="207" y="296.4951">Tab Invite Friends</text><path d="M130.306,252.082 C120.116,260.29 110.711,270.295 105,282 C99.0043,294.2885 102.8409,305.833 111.248,316.0092 " fill="none" style="stroke: #A80036; stroke-width: 1.0;"/><polygon fill="none" points="116.297,311.1445,126.221,329.8665,106.788,321.4197,116.297,311.1445" style="stroke: #A80036; stroke-width: 1.0;"/><text fill="#000000" font-family="sans-serif" font-size="13" lengthAdjust="spacingAndGlyphs" textLength="90" x="106" y="296.4951">Tab Book Table</text></g></svg>