<?xml version="1.0" encoding="UTF-8" standalone="no"?><svg xmlns="http://www.w3.org/2000/svg" xmlns:xlink="http://www.w3.org/1999/xlink" contentScriptType="application/ecmascript" contentStyleType="text/css" height="432px" preserveAspectRatio="none" style="width:442px;height:432px;" version="1.1" viewBox="0 0 442 432" width="442px" zoomAndPan="magnify"><defs><filter height="300%" id="fl5nb64" width="300%" x="-1" y="-1"><feGaussianBlur result="blurOut" stdDeviation="2.0"/><feColorMatrix in="blurOut" result="blurOut2" type="matrix" values="0 0 0 0 0 0 0 0 0 0 0 0 0 0 0 0 0 0 .4 0"/><feOffset dx="4.0" dy="4.0" in="blurOut2" result="blurOut3"/><feBlend in="SourceGraphic" in2="blurOut3" mode="normal"/></filter></defs><g><!--entity ACR_Reserving_Guest--><ellipse cx="79.5" cy="359.6094" fill="#FEFECE" filter="url(#fl5nb64)" rx="8" ry="8" style="stroke: #A80036; stroke-width: 2.0;"/><path d="M79.5,367.6094 L79.5,394.6094 M66.5,375.6094 L92.5,375.6094 M79.5,394.6094 L66.5,409.6094 M79.5,394.6094 L92.5,409.6094 " fill="#FEFECE" filter="url(#fl5nb64)" style="stroke: #A80036; stroke-width: 2.0;"/><text fill="#000000" font-family="sans-serif" font-size="14" lengthAdjust="spacingAndGlyphs" textLength="147" x="6" y="431.1426">ACR_Reserving_Guest</text><text fill="#000000" font-family="sans-serif" font-size="14" font-style="italic" lengthAdjust="spacingAndGlyphs" textLength="49" x="55" y="346.5332">«Actor»</text><!--entity ACR_Invitee--><ellipse cx="227.5" cy="359.6094" fill="#FEFECE" filter="url(#fl5nb64)" rx="8" ry="8" style="stroke: #A80036; stroke-width: 2.0;"/><path d="M227.5,367.6094 L227.5,394.6094 M214.5,375.6094 L240.5,375.6094 M227.5,394.6094 L214.5,409.6094 M227.5,394.6094 L240.5,409.6094 " fill="#FEFECE" filter="url(#fl5nb64)" style="stroke: #A80036; stroke-width: 2.0;"/><text fill="#000000" font-family="sans-serif" font-size="14" lengthAdjust="spacingAndGlyphs" textLength="78" x="188.5" y="431.1426">ACR_Invitee</text><text fill="#000000" font-family="sans-serif" font-size="14" font-style="italic" lengthAdjust="spacingAndGlyphs" textLength="49" x="203" y="346.5332">«Actor»</text><!--entity ACR_Guest--><ellipse cx="153.5" cy="197.6094" fill="#FEFECE" filter="url(#fl5nb64)" rx="8" ry="8" style="stroke: #A80036; stroke-width: 2.0;"/><path d="M153.5,205.6094 L153.5,232.6094 M140.5,213.6094 L166.5,213.6094 M153.5,232.6094 L140.5,247.6094 M153.5,232.6094 L166.5,247.6094 " fill="#FEFECE" filter="url(#fl5nb64)" style="stroke: #A80036; stroke-width: 2.0;"/><text fill="#000000" font-family="sans-serif" font-size="14" lengthAdjust="spacingAndGlyphs" textLength="75" x="116" y="269.1426">ACR_Guest</text><text fill="#000000" font-family="sans-serif" font-size="14" font-style="italic" lengthAdjust="spacingAndGlyphs" textLength="49" x="129" y="184.5332">«Actor»</text><!--entity ACR_User--><ellipse cx="209.5" cy="35.6094" fill="#FEFECE" filter="url(#fl5nb64)" rx="8" ry="8" style="stroke: #A80036; stroke-width: 2.0;"/><path d="M209.5,43.6094 L209.5,70.6094 M196.5,51.6094 L222.5,51.6094 M209.5,70.6094 L196.5,85.6094 M209.5,70.6094 L222.5,85.6094 " fill="#FEFECE" filter="url(#fl5nb64)" style="stroke: #A80036; stroke-width: 2.0;"/><text fill="#000000" font-family="sans-serif" font-size="14" lengthAdjust="spacingAndGlyphs" textLength="66" x="176.5" y="107.1426">ACR_User</text><text fill="#000000" font-family="sans-serif" font-size="14" font-style="italic" lengthAdjust="spacingAndGlyphs" textLength="49" x="185" y="22.5332">«Actor»</text><!--entity ACR_Waiter--><ellipse cx="265.5" cy="197.6094" fill="#FEFECE" filter="url(#fl5nb64)" rx="8" ry="8" style="stroke: #A80036; stroke-width: 2.0;"/><path d="M265.5,205.6094 L265.5,232.6094 M252.5,213.6094 L278.5,213.6094 M265.5,232.6094 L252.5,247.6094 M265.5,232.6094 L278.5,247.6094 " fill="#FEFECE" filter="url(#fl5nb64)" style="stroke: #A80036; stroke-width: 2.0;"/><text fill="#000000" font-family="sans-serif" font-size="14" lengthAdjust="spacingAndGlyphs" textLength="78" x="226.5" y="269.1426">ACR_Waiter</text><text fill="#000000" font-family="sans-serif" font-size="14" font-style="italic" lengthAdjust="spacingAndGlyphs" textLength="49" x="241" y="184.5332">«Actor»</text><!--entity ACR_System_MyThaiStar--><ellipse cx="359.5" cy="35.6094" fill="#FEFECE" filter="url(#fl5nb64)" rx="8" ry="8" style="stroke: #A80036; stroke-width: 2.0;"/><path d="M359.5,43.6094 L359.5,70.6094 M346.5,51.6094 L372.5,51.6094 M359.5,70.6094 L346.5,85.6094 M359.5,70.6094 L372.5,85.6094 " fill="#FEFECE" filter="url(#fl5nb64)" style="stroke: #A80036; stroke-width: 2.0;"/><text fill="#000000" font-family="sans-serif" font-size="14" lengthAdjust="spacingAndGlyphs" textLength="163" x="278" y="107.1426">ACR_System_MyThaiStar</text><text fill="#000000" font-family="sans-serif" font-size="14" font-style="italic" lengthAdjust="spacingAndGlyphs" textLength="49" x="335" y="22.5332">«Actor»</text><path d="M121.741,290.668 C115.32,304.551 108.685,318.898 102.6287,331.992 " fill="none" style="stroke: #A80036; stroke-width: 1.0;"/><polygon fill="none" points="115.54,287.4,130.289,272.186,128.247,293.277,115.54,287.4" style="stroke: #A80036; stroke-width: 1.0;"/><path d="M185.259,290.668 C191.68,304.551 198.315,318.898 204.371,331.992 " fill="none" style="stroke: #A80036; stroke-width: 1.0;"/><polygon fill="none" points="178.753,293.277,176.711,272.186,191.46,287.4,178.753,293.277" style="stroke: #A80036; stroke-width: 1.0;"/><path d="M233.699,129.141 C238.507,142.876 243.466,157.047 247.997,169.992 " fill="none" style="stroke: #A80036; stroke-width: 1.0;"/><polygon fill="none" points="227.065,131.376,227.065,110.186,240.279,126.751,227.065,131.376" style="stroke: #A80036; stroke-width: 1.0;"/><path d="M185.301,129.141 C180.493,142.876 175.534,157.047 171.003,169.992 " fill="none" style="stroke: #A80036; stroke-width: 1.0;"/><polygon fill="none" points="178.721,126.751,191.935,110.186,191.935,131.376,178.721,126.751" style="stroke: #A80036; stroke-width: 1.0;"/></g></svg>