<?xml version="1.0" encoding="UTF-8" standalone="no"?><svg xmlns="http://www.w3.org/2000/svg" xmlns:xlink="http://www.w3.org/1999/xlink" contentScriptType="application/ecmascript" contentStyleType="text/css" height="282px" preserveAspectRatio="none" style="width:207px;height:282px;" version="1.1" viewBox="0 0 207 282" width="207px" zoomAndPan="magnify"><defs><filter height="300%" id="f1ng8ne3nrw0fa" width="300%" x="-1" y="-1"><feGaussianBlur result="blurOut" stdDeviation="2.0"/><feColorMatrix in="blurOut" result="blurOut2" type="matrix" values="0 0 0 0 0 0 0 0 0 0 0 0 0 0 0 0 0 0 .4 0"/><feOffset dx="4.0" dy="4.0" in="blurOut2" result="blurOut3"/><feBlend in="SourceGraphic" in2="blurOut3" mode="normal"/></filter></defs><g><!--entity Actor_Name3--><ellipse cx="44" cy="197.6094" fill="#FEFECE" filter="url(#f1ng8ne3nrw0fa)" rx="8" ry="8" style="stroke: #A80036; stroke-width: 2.0;"/><path d="M44,205.6094 L44,232.6094 M31,213.6094 L57,213.6094 M44,232.6094 L31,247.6094 M44,232.6094 L57,247.6094 " fill="#FEFECE" filter="url(#f1ng8ne3nrw0fa)" style="stroke: #A80036; stroke-width: 2.0;"/><text fill="#000000" font-family="sans-serif" font-size="14" lengthAdjust="spacingAndGlyphs" textLength="76" x="6" y="269.1426">ACR_Visitor</text><text fill="#000000" font-family="sans-serif" font-size="14" font-style="italic" lengthAdjust="spacingAndGlyphs" textLength="49" x="19.5" y="184.5332">«Actor»</text><!--entity Actor_Parent--><ellipse cx="100" cy="35.6094" fill="#FEFECE" filter="url(#f1ng8ne3nrw0fa)" rx="8" ry="8" style="stroke: #A80036; stroke-width: 2.0;"/><path d="M100,43.6094 L100,70.6094 M87,51.6094 L113,51.6094 M100,70.6094 L87,85.6094 M100,70.6094 L113,85.6094 " fill="#FEFECE" filter="url(#f1ng8ne3nrw0fa)" style="stroke: #A80036; stroke-width: 2.0;"/><text fill="#000000" font-family="sans-serif" font-size="14" lengthAdjust="spacingAndGlyphs" textLength="66" x="67" y="107.1426">ACR_User</text><text fill="#000000" font-family="sans-serif" font-size="14" font-style="italic" lengthAdjust="spacingAndGlyphs" textLength="49" x="75.5" y="22.5332">«Actor»</text><!--entity Actor_Name4--><ellipse cx="156" cy="197.6094" fill="#FEFECE" filter="url(#f1ng8ne3nrw0fa)" rx="8" ry="8" style="stroke: #A80036; stroke-width: 2.0;"/><path d="M156,205.6094 L156,232.6094 M143,213.6094 L169,213.6094 M156,232.6094 L143,247.6094 M156,232.6094 L169,247.6094 " fill="#FEFECE" filter="url(#f1ng8ne3nrw0fa)" style="stroke: #A80036; stroke-width: 2.0;"/><text fill="#000000" font-family="sans-serif" font-size="14" lengthAdjust="spacingAndGlyphs" textLength="78" x="117" y="269.1426">ACR_Owner</text><text fill="#000000" font-family="sans-serif" font-size="14" font-style="italic" lengthAdjust="spacingAndGlyphs" textLength="49" x="131.5" y="184.5332">«Actor»</text><!--link Actor_Parent to Actor_Name4--><path d="M124.199,129.141 C129.007,142.876 133.966,157.047 138.497,169.992 " fill="none" id="Actor_Parent-Actor_Name4" style="stroke: #A80036; stroke-width: 1.0;"/><polygon fill="none" points="117.565,131.376,117.565,110.186,130.779,126.751,117.565,131.376" style="stroke: #A80036; stroke-width: 1.0;"/><!--link Actor_Parent to Actor_Name3--><path d="M75.8006,129.141 C70.9932,142.876 66.0336,157.047 61.5028,169.992 " fill="none" id="Actor_Parent-Actor_Name3" style="stroke: #A80036; stroke-width: 1.0;"/><polygon fill="none" points="69.2208,126.751,82.4349,110.186,82.4348,131.376,69.2208,126.751" style="stroke: #A80036; stroke-width: 1.0;"/><!--
@startuml
:ACR_Visitor: << Actor >> as Actor_Name3

:ACR_User: << Actor >> as Actor_Parent
:ACR_Owner: << Actor >> as Actor_Name4

Actor_Parent <|- -  Actor_Name4
Actor_Parent <|- -  Actor_Name3

@enduml

PlantUML version 1.2017.20(Mon Dec 11 17:57:05 CET 2017)
(GPL source distribution)
Java Runtime: Java(TM) SE Runtime Environment
JVM: Java HotSpot(TM) 64-Bit Server VM
Java Version: 1.8.0_74-b02
Operating System: Windows 10
OS Version: 10.0
Default Encoding: Cp1252
Language: en
Country: US
--></g></svg>