<?xml version="1.0" encoding="UTF-8" standalone="no"?><svg xmlns="http://www.w3.org/2000/svg" xmlns:xlink="http://www.w3.org/1999/xlink" contentScriptType="application/ecmascript" contentStyleType="text/css" height="399px" preserveAspectRatio="none" style="width:812px;height:399px;" version="1.1" viewBox="0 0 812 399" width="812px" zoomAndPan="magnify"><defs><filter height="300%" id="f1aumwlbso1hs" width="300%" x="-1" y="-1"><feGaussianBlur result="blurOut" stdDeviation="2.0"/><feColorMatrix in="blurOut" result="blurOut2" type="matrix" values="0 0 0 0 0 0 0 0 0 0 0 0 0 0 0 0 0 0 .4 0"/><feOffset dx="4.0" dy="4.0" in="blurOut2" result="blurOut3"/><feBlend in="SourceGraphic" in2="blurOut3" mode="normal"/></filter></defs><g><!--cluster DIA_Dialogue_Name2--><polygon fill="#DDDDDD" filter="url(#f1aumwlbso1hs)" points="373,136,527,136,534,159.6094,592,159.6094,592,260,373,260,373,136" style="stroke: #000000; stroke-width: 1.5;"/><line style="stroke: #000000; stroke-width: 1.5;" x1="373" x2="534" y1="159.6094" y2="159.6094"/><text fill="#000000" font-family="sans-serif" font-size="14" font-weight="bold" lengthAdjust="spacingAndGlyphs" textLength="148" x="377" y="152.5332">DIA_Dialogue_Name2</text><!--class SCR_Screen_Name3--><rect fill="#FEFECE" filter="url(#f1aumwlbso1hs)" height="56.1875" id="SCR_Screen_Name3" style="stroke: #A80036; stroke-width: 1.5;" width="152" x="397" y="180"/><ellipse cx="412" cy="200.0938" fill="#ADD1B2" rx="11" ry="11" style="stroke: #A80036; stroke-width: 1.0;"/><path d="M414.7656,195.9688 Q414.9219,195.75 415.1094,195.6406 Q415.2969,195.5313 415.5156,195.5313 Q415.8906,195.5313 416.125,195.7891 Q416.3594,196.0469 416.3594,196.6563 L416.3594,198.1094 Q416.3594,198.7188 416.125,198.9844 Q415.8906,199.25 415.5156,199.25 Q415.1719,199.25 414.9688,199.0469 Q414.7656,198.8594 414.6563,198.3438 Q414.6094,197.9844 414.4219,197.7969 Q414.0938,197.4219 413.4844,197.2031 Q412.875,196.9844 412.25,196.9844 Q411.4844,196.9844 410.8516,197.3125 Q410.2188,197.6406 409.7266,198.3906 Q409.2344,199.1406 409.2344,200.1719 L409.2344,201.2656 Q409.2344,202.5 410.125,203.3203 Q411.0156,204.1406 412.6094,204.1406 Q413.5469,204.1406 414.2031,203.8906 Q414.5938,203.7344 415.0156,203.2969 Q415.2813,203.0313 415.4297,202.9531 Q415.5781,202.875 415.7813,202.875 Q416.1094,202.875 416.3672,203.1328 Q416.625,203.3906 416.625,203.7344 Q416.625,204.0781 416.2813,204.4844 Q415.7813,205.0625 414.9844,205.3906 Q413.9063,205.8438 412.6094,205.8438 Q411.0938,205.8438 409.8906,205.2188 Q408.9063,204.7188 408.2188,203.6484 Q407.5313,202.5781 407.5313,201.2969 L407.5313,200.1406 Q407.5313,198.8125 408.1484,197.6641 Q408.7656,196.5156 409.8594,195.8984 Q410.9531,195.2813 412.1875,195.2813 Q412.9219,195.2813 413.5703,195.4453 Q414.2188,195.6094 414.7656,195.9688 Z "/><text fill="#000000" font-family="sans-serif" font-size="12" font-style="italic" lengthAdjust="spacingAndGlyphs" textLength="64" x="454" y="197.457">«Dialogue»</text><text fill="#000000" font-family="sans-serif" font-size="12" lengthAdjust="spacingAndGlyphs" textLength="120" x="426" y="212.5508">SCR_Screen_Name3</text><line style="stroke: #A80036; stroke-width: 1.5;" x1="398" x2="548" y1="220.1875" y2="220.1875"/><line style="stroke: #A80036; stroke-width: 1.5;" x1="398" x2="548" y1="228.1875" y2="228.1875"/><!--class SCR_Main_Screen--><rect fill="#FEFECE" filter="url(#f1aumwlbso1hs)" height="56.1875" id="SCR_Main_Screen" style="stroke: #A80036; stroke-width: 1.5;" width="137" x="281.5" y="8"/><ellipse cx="296.5" cy="28.0938" fill="#ADD1B2" rx="11" ry="11" style="stroke: #A80036; stroke-width: 1.0;"/><path d="M299.2656,23.9688 Q299.4219,23.75 299.6094,23.6406 Q299.7969,23.5313 300.0156,23.5313 Q300.3906,23.5313 300.625,23.7891 Q300.8594,24.0469 300.8594,24.6563 L300.8594,26.1094 Q300.8594,26.7188 300.625,26.9844 Q300.3906,27.25 300.0156,27.25 Q299.6719,27.25 299.4688,27.0469 Q299.2656,26.8594 299.1563,26.3438 Q299.1094,25.9844 298.9219,25.7969 Q298.5938,25.4219 297.9844,25.2031 Q297.375,24.9844 296.75,24.9844 Q295.9844,24.9844 295.3516,25.3125 Q294.7188,25.6406 294.2266,26.3906 Q293.7344,27.1406 293.7344,28.1719 L293.7344,29.2656 Q293.7344,30.5 294.625,31.3203 Q295.5156,32.1406 297.1094,32.1406 Q298.0469,32.1406 298.7031,31.8906 Q299.0938,31.7344 299.5156,31.2969 Q299.7813,31.0313 299.9297,30.9531 Q300.0781,30.875 300.2813,30.875 Q300.6094,30.875 300.8672,31.1328 Q301.125,31.3906 301.125,31.7344 Q301.125,32.0781 300.7813,32.4844 Q300.2813,33.0625 299.4844,33.3906 Q298.4063,33.8438 297.1094,33.8438 Q295.5938,33.8438 294.3906,33.2188 Q293.4063,32.7188 292.7188,31.6484 Q292.0313,30.5781 292.0313,29.2969 L292.0313,28.1406 Q292.0313,26.8125 292.6484,25.6641 Q293.2656,24.5156 294.3594,23.8984 Q295.4531,23.2813 296.6875,23.2813 Q297.4219,23.2813 298.0703,23.4453 Q298.7188,23.6094 299.2656,23.9688 Z "/><text fill="#000000" font-family="sans-serif" font-size="12" font-style="italic" lengthAdjust="spacingAndGlyphs" textLength="53" x="336.5" y="25.457">«Screen»</text><text fill="#000000" font-family="sans-serif" font-size="12" lengthAdjust="spacingAndGlyphs" textLength="105" x="310.5" y="40.5508">SCR_Main_Screen</text><line style="stroke: #A80036; stroke-width: 1.5;" x1="282.5" x2="417.5" y1="48.1875" y2="48.1875"/><line style="stroke: #A80036; stroke-width: 1.5;" x1="282.5" x2="417.5" y1="56.1875" y2="56.1875"/><!--class SCR_Screen_Name1--><rect fill="#FEFECE" filter="url(#f1aumwlbso1hs)" height="56.1875" id="SCR_Screen_Name1" style="stroke: #A80036; stroke-width: 1.5;" width="152" x="6" y="180"/><ellipse cx="21" cy="200.0938" fill="#ADD1B2" rx="11" ry="11" style="stroke: #A80036; stroke-width: 1.0;"/><path d="M23.7656,195.9688 Q23.9219,195.75 24.1094,195.6406 Q24.2969,195.5313 24.5156,195.5313 Q24.8906,195.5313 25.125,195.7891 Q25.3594,196.0469 25.3594,196.6563 L25.3594,198.1094 Q25.3594,198.7188 25.125,198.9844 Q24.8906,199.25 24.5156,199.25 Q24.1719,199.25 23.9688,199.0469 Q23.7656,198.8594 23.6563,198.3438 Q23.6094,197.9844 23.4219,197.7969 Q23.0938,197.4219 22.4844,197.2031 Q21.875,196.9844 21.25,196.9844 Q20.4844,196.9844 19.8516,197.3125 Q19.2188,197.6406 18.7266,198.3906 Q18.2344,199.1406 18.2344,200.1719 L18.2344,201.2656 Q18.2344,202.5 19.125,203.3203 Q20.0156,204.1406 21.6094,204.1406 Q22.5469,204.1406 23.2031,203.8906 Q23.5938,203.7344 24.0156,203.2969 Q24.2813,203.0313 24.4297,202.9531 Q24.5781,202.875 24.7813,202.875 Q25.1094,202.875 25.3672,203.1328 Q25.625,203.3906 25.625,203.7344 Q25.625,204.0781 25.2813,204.4844 Q24.7813,205.0625 23.9844,205.3906 Q22.9063,205.8438 21.6094,205.8438 Q20.0938,205.8438 18.8906,205.2188 Q17.9063,204.7188 17.2188,203.6484 Q16.5313,202.5781 16.5313,201.2969 L16.5313,200.1406 Q16.5313,198.8125 17.1484,197.6641 Q17.7656,196.5156 18.8594,195.8984 Q19.9531,195.2813 21.1875,195.2813 Q21.9219,195.2813 22.5703,195.4453 Q23.2188,195.6094 23.7656,195.9688 Z "/><text fill="#000000" font-family="sans-serif" font-size="12" font-style="italic" lengthAdjust="spacingAndGlyphs" textLength="53" x="68.5" y="197.457">«Screen»</text><text fill="#000000" font-family="sans-serif" font-size="12" lengthAdjust="spacingAndGlyphs" textLength="120" x="35" y="212.5508">SCR_Screen_Name1</text><line style="stroke: #A80036; stroke-width: 1.5;" x1="7" x2="157" y1="220.1875" y2="220.1875"/><line style="stroke: #A80036; stroke-width: 1.5;" x1="7" x2="157" y1="228.1875" y2="228.1875"/><!--class SCR_Screen_Name2--><rect fill="#FEFECE" filter="url(#f1aumwlbso1hs)" height="56.1875" id="SCR_Screen_Name2" style="stroke: #A80036; stroke-width: 1.5;" width="152" x="85" y="332"/><ellipse cx="100" cy="352.0938" fill="#ADD1B2" rx="11" ry="11" style="stroke: #A80036; stroke-width: 1.0;"/><path d="M102.7656,347.9688 Q102.9219,347.75 103.1094,347.6406 Q103.2969,347.5313 103.5156,347.5313 Q103.8906,347.5313 104.125,347.7891 Q104.3594,348.0469 104.3594,348.6563 L104.3594,350.1094 Q104.3594,350.7188 104.125,350.9844 Q103.8906,351.25 103.5156,351.25 Q103.1719,351.25 102.9688,351.0469 Q102.7656,350.8594 102.6563,350.3438 Q102.6094,349.9844 102.4219,349.7969 Q102.0938,349.4219 101.4844,349.2031 Q100.875,348.9844 100.25,348.9844 Q99.4844,348.9844 98.8516,349.3125 Q98.2188,349.6406 97.7266,350.3906 Q97.2344,351.1406 97.2344,352.1719 L97.2344,353.2656 Q97.2344,354.5 98.125,355.3203 Q99.0156,356.1406 100.6094,356.1406 Q101.5469,356.1406 102.2031,355.8906 Q102.5938,355.7344 103.0156,355.2969 Q103.2813,355.0313 103.4297,354.9531 Q103.5781,354.875 103.7813,354.875 Q104.1094,354.875 104.3672,355.1328 Q104.625,355.3906 104.625,355.7344 Q104.625,356.0781 104.2813,356.4844 Q103.7813,357.0625 102.9844,357.3906 Q101.9063,357.8438 100.6094,357.8438 Q99.0938,357.8438 97.8906,357.2188 Q96.9063,356.7188 96.2188,355.6484 Q95.5313,354.5781 95.5313,353.2969 L95.5313,352.1406 Q95.5313,350.8125 96.1484,349.6641 Q96.7656,348.5156 97.8594,347.8984 Q98.9531,347.2813 100.1875,347.2813 Q100.9219,347.2813 101.5703,347.4453 Q102.2188,347.6094 102.7656,347.9688 Z "/><text fill="#000000" font-family="sans-serif" font-size="12" font-style="italic" lengthAdjust="spacingAndGlyphs" textLength="53" x="147.5" y="349.457">«Screen»</text><text fill="#000000" font-family="sans-serif" font-size="12" lengthAdjust="spacingAndGlyphs" textLength="120" x="114" y="364.5508">SCR_Screen_Name2</text><line style="stroke: #A80036; stroke-width: 1.5;" x1="86" x2="236" y1="372.1875" y2="372.1875"/><line style="stroke: #A80036; stroke-width: 1.5;" x1="86" x2="236" y1="380.1875" y2="380.1875"/><!--class DIA_Dialogue_Name1--><rect fill="#FEFECE" filter="url(#f1aumwlbso1hs)" height="56.1875" id="DIA_Dialogue_Name1" style="stroke: #A80036; stroke-width: 1.5;" width="156" x="193" y="180"/><ellipse cx="208" cy="200.0938" fill="#ADD1B2" rx="11" ry="11" style="stroke: #A80036; stroke-width: 1.0;"/><path d="M210.7656,195.9688 Q210.9219,195.75 211.1094,195.6406 Q211.2969,195.5313 211.5156,195.5313 Q211.8906,195.5313 212.125,195.7891 Q212.3594,196.0469 212.3594,196.6563 L212.3594,198.1094 Q212.3594,198.7188 212.125,198.9844 Q211.8906,199.25 211.5156,199.25 Q211.1719,199.25 210.9688,199.0469 Q210.7656,198.8594 210.6563,198.3438 Q210.6094,197.9844 210.4219,197.7969 Q210.0938,197.4219 209.4844,197.2031 Q208.875,196.9844 208.25,196.9844 Q207.4844,196.9844 206.8516,197.3125 Q206.2188,197.6406 205.7266,198.3906 Q205.2344,199.1406 205.2344,200.1719 L205.2344,201.2656 Q205.2344,202.5 206.125,203.3203 Q207.0156,204.1406 208.6094,204.1406 Q209.5469,204.1406 210.2031,203.8906 Q210.5938,203.7344 211.0156,203.2969 Q211.2813,203.0313 211.4297,202.9531 Q211.5781,202.875 211.7813,202.875 Q212.1094,202.875 212.3672,203.1328 Q212.625,203.3906 212.625,203.7344 Q212.625,204.0781 212.2813,204.4844 Q211.7813,205.0625 210.9844,205.3906 Q209.9063,205.8438 208.6094,205.8438 Q207.0938,205.8438 205.8906,205.2188 Q204.9063,204.7188 204.2188,203.6484 Q203.5313,202.5781 203.5313,201.2969 L203.5313,200.1406 Q203.5313,198.8125 204.1484,197.6641 Q204.7656,196.5156 205.8594,195.8984 Q206.9531,195.2813 208.1875,195.2813 Q208.9219,195.2813 209.5703,195.4453 Q210.2188,195.6094 210.7656,195.9688 Z "/><text fill="#000000" font-family="sans-serif" font-size="12" font-style="italic" lengthAdjust="spacingAndGlyphs" textLength="64" x="252" y="197.457">«Dialogue»</text><text fill="#000000" font-family="sans-serif" font-size="12" lengthAdjust="spacingAndGlyphs" textLength="124" x="222" y="212.5508">DIA_Dialogue_Name1</text><line style="stroke: #A80036; stroke-width: 1.5;" x1="194" x2="348" y1="220.1875" y2="220.1875"/><line style="stroke: #A80036; stroke-width: 1.5;" x1="194" x2="348" y1="228.1875" y2="228.1875"/><!--class DIA_Dialogue_Name3--><rect fill="#FEFECE" filter="url(#f1aumwlbso1hs)" height="56.1875" id="DIA_Dialogue_Name3" style="stroke: #A80036; stroke-width: 1.5;" width="156" x="454" y="8"/><ellipse cx="469" cy="28.0938" fill="#ADD1B2" rx="11" ry="11" style="stroke: #A80036; stroke-width: 1.0;"/><path d="M471.7656,23.9688 Q471.9219,23.75 472.1094,23.6406 Q472.2969,23.5313 472.5156,23.5313 Q472.8906,23.5313 473.125,23.7891 Q473.3594,24.0469 473.3594,24.6563 L473.3594,26.1094 Q473.3594,26.7188 473.125,26.9844 Q472.8906,27.25 472.5156,27.25 Q472.1719,27.25 471.9688,27.0469 Q471.7656,26.8594 471.6563,26.3438 Q471.6094,25.9844 471.4219,25.7969 Q471.0938,25.4219 470.4844,25.2031 Q469.875,24.9844 469.25,24.9844 Q468.4844,24.9844 467.8516,25.3125 Q467.2188,25.6406 466.7266,26.3906 Q466.2344,27.1406 466.2344,28.1719 L466.2344,29.2656 Q466.2344,30.5 467.125,31.3203 Q468.0156,32.1406 469.6094,32.1406 Q470.5469,32.1406 471.2031,31.8906 Q471.5938,31.7344 472.0156,31.2969 Q472.2813,31.0313 472.4297,30.9531 Q472.5781,30.875 472.7813,30.875 Q473.1094,30.875 473.3672,31.1328 Q473.625,31.3906 473.625,31.7344 Q473.625,32.0781 473.2813,32.4844 Q472.7813,33.0625 471.9844,33.3906 Q470.9063,33.8438 469.6094,33.8438 Q468.0938,33.8438 466.8906,33.2188 Q465.9063,32.7188 465.2188,31.6484 Q464.5313,30.5781 464.5313,29.2969 L464.5313,28.1406 Q464.5313,26.8125 465.1484,25.6641 Q465.7656,24.5156 466.8594,23.8984 Q467.9531,23.2813 469.1875,23.2813 Q469.9219,23.2813 470.5703,23.4453 Q471.2188,23.6094 471.7656,23.9688 Z "/><text fill="#000000" font-family="sans-serif" font-size="12" font-style="italic" lengthAdjust="spacingAndGlyphs" textLength="64" x="513" y="25.457">«Dialogue»</text><text fill="#000000" font-family="sans-serif" font-size="12" lengthAdjust="spacingAndGlyphs" textLength="124" x="483" y="40.5508">DIA_Dialogue_Name3</text><line style="stroke: #A80036; stroke-width: 1.5;" x1="455" x2="609" y1="48.1875" y2="48.1875"/><line style="stroke: #A80036; stroke-width: 1.5;" x1="455" x2="609" y1="56.1875" y2="56.1875"/><!--class DIA_Dialogue_Name4--><rect fill="#FEFECE" filter="url(#f1aumwlbso1hs)" height="56.1875" id="DIA_Dialogue_Name4" style="stroke: #A80036; stroke-width: 1.5;" width="156" x="645" y="8"/><ellipse cx="660" cy="28.0938" fill="#ADD1B2" rx="11" ry="11" style="stroke: #A80036; stroke-width: 1.0;"/><path d="M662.7656,23.9688 Q662.9219,23.75 663.1094,23.6406 Q663.2969,23.5313 663.5156,23.5313 Q663.8906,23.5313 664.125,23.7891 Q664.3594,24.0469 664.3594,24.6563 L664.3594,26.1094 Q664.3594,26.7188 664.125,26.9844 Q663.8906,27.25 663.5156,27.25 Q663.1719,27.25 662.9688,27.0469 Q662.7656,26.8594 662.6563,26.3438 Q662.6094,25.9844 662.4219,25.7969 Q662.0938,25.4219 661.4844,25.2031 Q660.875,24.9844 660.25,24.9844 Q659.4844,24.9844 658.8516,25.3125 Q658.2188,25.6406 657.7266,26.3906 Q657.2344,27.1406 657.2344,28.1719 L657.2344,29.2656 Q657.2344,30.5 658.125,31.3203 Q659.0156,32.1406 660.6094,32.1406 Q661.5469,32.1406 662.2031,31.8906 Q662.5938,31.7344 663.0156,31.2969 Q663.2813,31.0313 663.4297,30.9531 Q663.5781,30.875 663.7813,30.875 Q664.1094,30.875 664.3672,31.1328 Q664.625,31.3906 664.625,31.7344 Q664.625,32.0781 664.2813,32.4844 Q663.7813,33.0625 662.9844,33.3906 Q661.9063,33.8438 660.6094,33.8438 Q659.0938,33.8438 657.8906,33.2188 Q656.9063,32.7188 656.2188,31.6484 Q655.5313,30.5781 655.5313,29.2969 L655.5313,28.1406 Q655.5313,26.8125 656.1484,25.6641 Q656.7656,24.5156 657.8594,23.8984 Q658.9531,23.2813 660.1875,23.2813 Q660.9219,23.2813 661.5703,23.4453 Q662.2188,23.6094 662.7656,23.9688 Z "/><text fill="#000000" font-family="sans-serif" font-size="12" font-style="italic" lengthAdjust="spacingAndGlyphs" textLength="64" x="704" y="25.457">«Dialogue»</text><text fill="#000000" font-family="sans-serif" font-size="12" lengthAdjust="spacingAndGlyphs" textLength="124" x="674" y="40.5508">DIA_Dialogue_Name4</text><line style="stroke: #A80036; stroke-width: 1.5;" x1="646" x2="800" y1="48.1875" y2="48.1875"/><line style="stroke: #A80036; stroke-width: 1.5;" x1="646" x2="800" y1="56.1875" y2="56.1875"/><!--link SCR_Main_Screen to SCR_Screen_Name1--><path d="M281.196,44.306 C216.57,52.621 126.273,68.463 102,94 C85.6695,111.181 80.1984,136.799 79.0201,159.302 " fill="none" id="SCR_Main_Screen-SCR_Screen_Name1" style="stroke: #A80036; stroke-width: 1.0;"/><polygon fill="none" points="86.0199,159.554,78.9915,179.544,72.0199,159.534,86.0199,159.554" style="stroke: #A80036; stroke-width: 1.0;"/><text fill="#000000" font-family="sans-serif" font-size="13" lengthAdjust="spacingAndGlyphs" textLength="37" x="103" y="108.4951">Action</text><!--link SCR_Screen_Name1 to SCR_Main_Screen--><path d="M108.54,179.791 C126.557,161.931 151.324,138.536 175,120 C201.187,99.498 233.261,82.449 262.765,69.245 " fill="none" id="SCR_Screen_Name1-SCR_Main_Screen" style="stroke: #A80036; stroke-width: 1.0;"/><polygon fill="none" points="260.069,62.784,281.208,61.325,265.593,75.648,260.069,62.784" style="stroke: #A80036; stroke-width: 1.0;"/><text fill="#000000" font-family="sans-serif" font-size="13" lengthAdjust="spacingAndGlyphs" textLength="37" x="211" y="108.4951">Action</text><!--link SCR_Screen_Name1 to SCR_Screen_Name2--><path d="M74.3396,236.22 C70.4298,255.652 68.448,281.814 79,302 C82.0923,307.9155 86.1091,313.3409 90.7024,318.2899 " fill="none" id="SCR_Screen_Name1-SCR_Screen_Name2" style="stroke: #A80036; stroke-width: 1.0;"/><polygon fill="none" points="95.5349,313.2192,105.8638,331.721,86.2515,323.6986,95.5349,313.2192" style="stroke: #A80036; stroke-width: 1.0;"/><text fill="#000000" font-family="sans-serif" font-size="13" lengthAdjust="spacingAndGlyphs" textLength="37" x="80" y="298.4951">Action</text><!--link SCR_Screen_Name2 to SCR_Screen_Name1--><path d="M146.988,331.8868 C139.592,317.6181 130.343,299.8421 122,284 C116.888,274.293 111.371,263.899 106.117,254.035 " fill="none" id="SCR_Screen_Name2-SCR_Screen_Name1" style="stroke: #A80036; stroke-width: 1.0;"/><polygon fill="none" points="99.7545,256.981,96.5096,236.041,112.104,250.387,99.7545,256.981" style="stroke: #A80036; stroke-width: 1.0;"/><text fill="#000000" font-family="sans-serif" font-size="13" lengthAdjust="spacingAndGlyphs" textLength="37" x="132" y="298.4951">Action</text><!--link SCR_Screen_Name2 to SCR_Main_Screen--><path d="M237.15,355.9068 C350.404,349.5279 554.778,330.5735 600,276 C750.145,94.808 631.082,130.802 598,94 C552.872,43.799 513.664,75.674 438.659,63.52 " fill="none" id="SCR_Screen_Name2-SCR_Main_Screen" style="stroke: #A80036; stroke-width: 1.0;"/><polygon fill="none" points="436.957,70.316,418.793,59.404,439.797,56.607,436.957,70.316" style="stroke: #A80036; stroke-width: 1.0;"/><text fill="#000000" font-family="sans-serif" font-size="13" lengthAdjust="spacingAndGlyphs" textLength="37" x="675" y="213.4951">Action</text><!--link SCR_Main_Screen to SCR_Screen_Name3--><path d="M369.762,64.313 C389.039,90.957 418.675,131.917 441.258,163.129 " fill="none" id="SCR_Main_Screen-SCR_Screen_Name3" style="stroke: #A80036; stroke-width: 1.0;"/><polygon fill="none" points="447.234,159.447,453.287,179.754,435.892,167.654,447.234,159.447" style="stroke: #A80036; stroke-width: 1.0;"/><text fill="#000000" font-family="sans-serif" font-size="13" lengthAdjust="spacingAndGlyphs" textLength="37" x="406" y="108.4951">Action</text><!--link DIA_Dialogue_Name2 to SCR_Main_Screen--><path d="M574.788,135.6157 C574.7251,135.478 574.6619,135.3406 574.5983,135.2033 C574.0892,134.1052 573.5558,133.0202 572.997,131.9505 C570.7617,127.6718 568.1193,123.6386 565,120 C555.944,109.436 493.253,85.848 437.887,66.507 " fill="none" id="DIA_Dialogue_Name2-SCR_Main_Screen" style="stroke: #A80036; stroke-width: 1.0;"/><polygon fill="none" points="435.321,73.027,418.709,59.872,439.898,59.796,435.321,73.027" style="stroke: #A80036; stroke-width: 1.0;"/><text fill="#000000" font-family="sans-serif" font-size="13" lengthAdjust="spacingAndGlyphs" textLength="37" x="552" y="108.4951">Action</text><!--link SCR_Main_Screen to DIA_Dialogue_Name1--><path d="M294.864,64.279 C284.067,72.298 274.185,82.169 268,94 C257.567,113.957 257.09,138.727 259.74,159.986 " fill="none" id="SCR_Main_Screen-DIA_Dialogue_Name1" style="stroke: #A80036; stroke-width: 1.0;"/><polygon fill="none" points="266.649,158.862,263.179,179.765,252.856,161.26,266.649,158.862" style="stroke: #A80036; stroke-width: 1.0;"/><text fill="#000000" font-family="sans-serif" font-size="13" lengthAdjust="spacingAndGlyphs" textLength="37" x="269" y="108.4951">Action</text><!--link DIA_Dialogue_Name1 to SCR_Main_Screen--><path d="M283.661,179.754 C295.801,153.631 314.358,113.698 328.761,82.704 " fill="none" id="DIA_Dialogue_Name1-SCR_Main_Screen" style="stroke: #A80036; stroke-width: 1.0;"/><polygon fill="none" points="322.531,79.501,337.307,64.313,335.227,85.401,322.531,79.501" style="stroke: #A80036; stroke-width: 1.0;"/><text fill="#000000" font-family="sans-serif" font-size="13" lengthAdjust="spacingAndGlyphs" textLength="37" x="324" y="108.4951">Action</text><!--
@startuml



class SCR_Main_Screen <<Screen>> {
}

class SCR_Screen_Name1<<Screen>> {
}

class SCR_Screen_Name2 <<Screen>> {
}

package "DIA_Dialogue_Name2" #DDDDDD {

  class SCR_Screen_Name3  <<Dialogue>> {
  }
}

class DIA_Dialogue_Name1  <<Dialogue>> {
}



SCR_Main_Screen - -|> SCR_Screen_Name1: "Action"

SCR_Screen_Name1- -|> SCR_Screen_Name2 : "Action"

SCR_Screen_Name2 - -|> SCR_Screen_Name1: "Action"

SCR_Screen_Name1- -|> SCR_Main_Screen : "Action"

SCR_Screen_Name2 - -|> SCR_Main_Screen : "Action"

SCR_Main_Screen - -|> SCR_Screen_Name3 : "Action"

DIA_Dialogue_Name2 - -|> SCR_Main_Screen : "Action"

SCR_Main_Screen - -|> DIA_Dialogue_Name1 : "Action"

DIA_Dialogue_Name1 - -|> SCR_Main_Screen : "Action"


class DIA_Dialogue_Name3 <<Dialogue>> {
}

class DIA_Dialogue_Name4  <<Dialogue>> {
}

@enduml

PlantUML version 1.2017.20(Mon Dec 11 17:57:05 CET 2017)
(GPL source distribution)
Java Runtime: Java(TM) SE Runtime Environment
JVM: Java HotSpot(TM) 64-Bit Server VM
Java Version: 1.8.0_74-b02
Operating System: Windows 10
OS Version: 10.0
Default Encoding: Cp1252
Language: en
Country: US
--></g></svg>