<?xml version="1.0" encoding="UTF-8" standalone="no"?><svg xmlns="http://www.w3.org/2000/svg" xmlns:xlink="http://www.w3.org/1999/xlink" contentScriptType="application/ecmascript" contentStyleType="text/css" height="444px" preserveAspectRatio="none" style="width:463px;height:444px;" version="1.1" viewBox="0 0 463 444" width="463px" zoomAndPan="magnify"><defs><filter height="300%" id="f1waoqyljcmcei" width="300%" x="-1" y="-1"><feGaussianBlur result="blurOut" stdDeviation="2.0"/><feColorMatrix in="blurOut" result="blurOut2" type="matrix" values="0 0 0 0 0 0 0 0 0 0 0 0 0 0 0 0 0 0 .4 0"/><feOffset dx="4.0" dy="4.0" in="blurOut2" result="blurOut3"/><feBlend in="SourceGraphic" in2="blurOut3" mode="normal"/></filter></defs><g><!--entity ACR_Actor_Name1--><ellipse cx="67" cy="359.6094" fill="#FEFECE" filter="url(#f1waoqyljcmcei)" rx="8" ry="8" style="stroke: #A80036; stroke-width: 2.0;"/><path d="M67,367.6094 L67,394.6094 M54,375.6094 L80,375.6094 M67,394.6094 L54,409.6094 M67,394.6094 L80,409.6094 " fill="#FEFECE" filter="url(#f1waoqyljcmcei)" style="stroke: #A80036; stroke-width: 2.0;"/><text fill="#000000" font-family="sans-serif" font-size="14" lengthAdjust="spacingAndGlyphs" textLength="122" x="6" y="431.1426">ACR_Actor_Name1</text><text fill="#000000" font-family="sans-serif" font-size="14" font-style="italic" lengthAdjust="spacingAndGlyphs" textLength="49" x="42.5" y="346.5332">«Actor»</text><!--entity Actor_Name2--><ellipse cx="206" cy="359.6094" fill="#FEFECE" filter="url(#f1waoqyljcmcei)" rx="8" ry="8" style="stroke: #A80036; stroke-width: 2.0;"/><path d="M206,367.6094 L206,394.6094 M193,375.6094 L219,375.6094 M206,394.6094 L193,409.6094 M206,394.6094 L219,409.6094 " fill="#FEFECE" filter="url(#f1waoqyljcmcei)" style="stroke: #A80036; stroke-width: 2.0;"/><text fill="#000000" font-family="sans-serif" font-size="14" lengthAdjust="spacingAndGlyphs" textLength="85" x="163.5" y="431.1426">Actor_Name2</text><text fill="#000000" font-family="sans-serif" font-size="14" font-style="italic" lengthAdjust="spacingAndGlyphs" textLength="49" x="181.5" y="346.5332">«Actor»</text><!--entity Actor_Name3--><ellipse cx="136" cy="197.6094" fill="#FEFECE" filter="url(#f1waoqyljcmcei)" rx="8" ry="8" style="stroke: #A80036; stroke-width: 2.0;"/><path d="M136,205.6094 L136,232.6094 M123,213.6094 L149,213.6094 M136,232.6094 L123,247.6094 M136,232.6094 L149,247.6094 " fill="#FEFECE" filter="url(#f1waoqyljcmcei)" style="stroke: #A80036; stroke-width: 2.0;"/><text fill="#000000" font-family="sans-serif" font-size="14" lengthAdjust="spacingAndGlyphs" textLength="85" x="93.5" y="269.1426">Actor_Name3</text><text fill="#000000" font-family="sans-serif" font-size="14" font-style="italic" lengthAdjust="spacingAndGlyphs" textLength="49" x="111.5" y="184.5332">«Actor»</text><!--entity Actor_Parent--><ellipse cx="196" cy="35.6094" fill="#FEFECE" filter="url(#f1waoqyljcmcei)" rx="8" ry="8" style="stroke: #A80036; stroke-width: 2.0;"/><path d="M196,43.6094 L196,70.6094 M183,51.6094 L209,51.6094 M196,70.6094 L183,85.6094 M196,70.6094 L209,85.6094 " fill="#FEFECE" filter="url(#f1waoqyljcmcei)" style="stroke: #A80036; stroke-width: 2.0;"/><text fill="#000000" font-family="sans-serif" font-size="14" lengthAdjust="spacingAndGlyphs" textLength="83" x="154.5" y="107.1426">Actor_Parent</text><text fill="#000000" font-family="sans-serif" font-size="14" font-style="italic" lengthAdjust="spacingAndGlyphs" textLength="49" x="171.5" y="22.5332">«Actor»</text><!--entity Actor_Name4--><ellipse cx="256" cy="197.6094" fill="#FEFECE" filter="url(#f1waoqyljcmcei)" rx="8" ry="8" style="stroke: #A80036; stroke-width: 2.0;"/><path d="M256,205.6094 L256,232.6094 M243,213.6094 L269,213.6094 M256,232.6094 L243,247.6094 M256,232.6094 L269,247.6094 " fill="#FEFECE" filter="url(#f1waoqyljcmcei)" style="stroke: #A80036; stroke-width: 2.0;"/><text fill="#000000" font-family="sans-serif" font-size="14" lengthAdjust="spacingAndGlyphs" textLength="85" x="213.5" y="269.1426">Actor_Name4</text><text fill="#000000" font-family="sans-serif" font-size="14" font-style="italic" lengthAdjust="spacingAndGlyphs" textLength="49" x="231.5" y="184.5332">«Actor»</text><!--entity ACR_System_Project_Name--><ellipse cx="362" cy="35.6094" fill="#FEFECE" filter="url(#f1waoqyljcmcei)" rx="8" ry="8" style="stroke: #A80036; stroke-width: 2.0;"/><path d="M362,43.6094 L362,70.6094 M349,51.6094 L375,51.6094 M362,70.6094 L349,85.6094 M362,70.6094 L375,85.6094 " fill="#FEFECE" filter="url(#f1waoqyljcmcei)" style="stroke: #A80036; stroke-width: 2.0;"/><text fill="#000000" font-family="sans-serif" font-size="14" lengthAdjust="spacingAndGlyphs" textLength="179" x="272.5" y="107.1426">ACR_System_Project_Name</text><text fill="#000000" font-family="sans-serif" font-size="14" font-style="italic" lengthAdjust="spacingAndGlyphs" textLength="49" x="337.5" y="22.5332">«Actor»</text><!--link Actor_Name3 to ACR_Actor_Name1--><path d="M106.387,290.668 C100.4001,304.551 94.2127,318.898 88.5659,331.992 " fill="none" id="Actor_Name3-ACR_Actor_Name1" style="stroke: #A80036; stroke-width: 1.0;"/><polygon fill="none" points="100.0095,287.779,114.357,272.186,112.865,293.323,100.0095,287.779" style="stroke: #A80036; stroke-width: 1.0;"/><!--link Actor_Name3 to Actor_Name2--><path d="M166.042,290.668 C172.116,304.551 178.393,318.898 184.122,331.992 " fill="none" id="Actor_Name3-Actor_Name2" style="stroke: #A80036; stroke-width: 1.0;"/><polygon fill="none" points="159.56,293.315,157.956,272.186,172.386,287.703,159.56,293.315" style="stroke: #A80036; stroke-width: 1.0;"/><!--link Actor_Parent to Actor_Name4--><path d="M221.928,129.141 C227.079,142.876 232.393,157.047 237.247,169.992 " fill="none" id="Actor_Parent-Actor_Name4" style="stroke: #A80036; stroke-width: 1.0;"/><polygon fill="none" points="215.288,131.37,214.82,110.186,228.397,126.455,215.288,131.37" style="stroke: #A80036; stroke-width: 1.0;"/><!--link Actor_Parent to Actor_Name3--><path d="M170.072,129.141 C164.921,142.876 159.607,157.047 154.753,169.992 " fill="none" id="Actor_Parent-Actor_Name3" style="stroke: #A80036; stroke-width: 1.0;"/><polygon fill="none" points="163.603,126.455,177.18,110.186,176.712,131.37,163.603,126.455" style="stroke: #A80036; stroke-width: 1.0;"/><!--
@startuml
:ACR_Actor_Name1: << Actor >> as ACR_Actor_Name1
:Actor_Name2: << Actor >> as Actor_Name2
:Actor_Name3: << Actor >> as Actor_Name3

:Actor_Parent: << Actor >> as Actor_Parent
:Actor_Name4: << Actor >> as Actor_Name4
:ACR_System_Project_Name: << Actor >> as ACR_System_Project_Name

Actor_Name3 <|- - ACR_Actor_Name1
Actor_Name3 <|- - Actor_Name2
Actor_Parent <|- -  Actor_Name4
Actor_Parent <|- -  Actor_Name3

@enduml

PlantUML version 1.2017.20(Mon Dec 11 17:57:05 CET 2017)
(GPL source distribution)
Java Runtime: Java(TM) SE Runtime Environment
JVM: Java HotSpot(TM) 64-Bit Server VM
Java Version: 1.8.0_74-b02
Operating System: Windows 10
OS Version: 10.0
Default Encoding: Cp1252
Language: en
Country: US
--></g></svg>