<?xml version="1.0" encoding="UTF-8" standalone="no"?><svg xmlns="http://www.w3.org/2000/svg" xmlns:xlink="http://www.w3.org/1999/xlink" contentScriptType="application/ecmascript" contentStyleType="text/css" height="464px" preserveAspectRatio="none" style="width:633px;height:464px;" version="1.1" viewBox="0 0 633 464" width="633px" zoomAndPan="magnify"><defs><filter height="300%" id="f6wlaguw884cv" width="300%" x="-1" y="-1"><feGaussianBlur result="blurOut" stdDeviation="2.0"/><feColorMatrix in="blurOut" result="blurOut2" type="matrix" values="0 0 0 0 0 0 0 0 0 0 0 0 0 0 0 0 0 0 .4 0"/><feOffset dx="4.0" dy="4.0" in="blurOut2" result="blurOut3"/><feBlend in="SourceGraphic" in2="blurOut3" mode="normal"/></filter></defs><g><!--class Entity_Name1--><rect fill="#FEFECE" filter="url(#f6wlaguw884cv)" height="103.5313" id="Entity_Name1" style="stroke: #A80036; stroke-width: 1.5;" width="182" x="223" y="8"/><ellipse cx="260.05" cy="28.0938" fill="#FFAAAA" rx="11" ry="11" style="stroke: #A80036; stroke-width: 1.0;"/><path d="M258.9094,28.8906 L258.9094,31.3906 L263.2375,31.3906 L263.2375,30.4688 Q263.2375,29.8594 263.4797,29.5938 Q263.7219,29.3281 264.0969,29.3281 Q264.4719,29.3281 264.7063,29.5938 Q264.9406,29.8594 264.9406,30.4688 L264.9406,33.0938 L256.9406,33.0938 Q256.3156,33.0938 256.0578,32.8594 Q255.8,32.625 255.8,32.2344 Q255.8,31.8594 256.0656,31.625 Q256.3313,31.3906 256.9406,31.3906 L257.2063,31.3906 L257.2063,24.7344 L256.9406,24.7344 Q256.3156,24.7344 256.0578,24.5 Q255.8,24.2656 255.8,23.875 Q255.8,23.5 256.0578,23.2656 Q256.3156,23.0313 256.9406,23.0313 L264.5656,23.0313 L264.5656,25.625 Q264.5656,26.2344 264.3391,26.4922 Q264.1125,26.75 263.7219,26.75 Q263.3469,26.75 263.1125,26.4922 Q262.8781,26.2344 262.8781,25.625 L262.8781,24.7344 L258.9094,24.7344 L258.9094,27.1875 L260.3938,27.1875 Q260.3938,26.5313 260.5188,26.3438 Q260.7844,25.9375 261.2531,25.9375 Q261.6281,25.9375 261.8625,26.1953 Q262.0969,26.4531 262.0969,27.0625 L262.0969,29.0313 Q262.0969,29.5781 261.9719,29.7656 Q261.7063,30.1563 261.2531,30.1563 Q260.7844,30.1563 260.5188,29.75 Q260.3938,29.5625 260.3938,28.8906 L258.9094,28.8906 Z "/><text fill="#000000" font-family="sans-serif" font-size="12" lengthAdjust="spacingAndGlyphs" textLength="77" x="290.95" y="25.457">Entity_Name1</text><text fill="#000000" font-family="sans-serif" font-size="12" lengthAdjust="spacingAndGlyphs" textLength="101" x="278.95" y="40.5508">(Entity description)</text><line style="stroke: #A80036; stroke-width: 1.5;" x1="224" x2="404" y1="48.1875" y2="48.1875"/><text fill="#000000" font-family="sans-serif" font-size="11" font-weight="bold" lengthAdjust="spacingAndGlyphs" textLength="10" x="229" y="63.6064">id</text><text fill="#000000" font-family="sans-serif" font-size="11" lengthAdjust="spacingAndGlyphs" textLength="42" x="242" y="63.6064">INTEGER</text><text fill="#008000" font-family="sans-serif" font-size="11" lengthAdjust="spacingAndGlyphs" text-decoration="underline" textLength="86" x="229" y="77.4424">&lt;UniqueAttribute&gt;</text><line style="stroke: #008000; stroke-width: 1.0;" x1="229" x2="315" y1="79.4424" y2="79.4424"/><text fill="#000000" font-family="sans-serif" font-size="11" lengthAdjust="spacingAndGlyphs" textLength="75" x="318" y="77.4424">&lt;Type_Name1&gt;</text><text fill="#000000" font-family="sans-serif" font-size="11" lengthAdjust="spacingAndGlyphs" text-decoration="underline" textLength="92" x="229" y="91.2783">&lt;NotNullAttribute&gt;&gt;</text><line style="stroke: #000000; stroke-width: 1.0;" x1="229" x2="321" y1="93.2783" y2="93.2783"/><text fill="#000000" font-family="sans-serif" font-size="11" lengthAdjust="spacingAndGlyphs" textLength="75" x="324" y="91.2783">&lt;Type_Name1&gt;</text><text fill="#000000" font-family="sans-serif" font-size="11" lengthAdjust="spacingAndGlyphs" textLength="170" x="229" y="105.1143">&lt;Attribute_Name1&gt; &lt;Type_Name2&gt;</text><!--class Entity_Name2--><rect fill="#FEFECE" filter="url(#f6wlaguw884cv)" height="117.3672" id="Entity_Name2" style="stroke: #A80036; stroke-width: 1.5;" width="182" x="223" y="336"/><ellipse cx="260.05" cy="356.0938" fill="#FFAAAA" rx="11" ry="11" style="stroke: #A80036; stroke-width: 1.0;"/><path d="M258.9094,356.8906 L258.9094,359.3906 L263.2375,359.3906 L263.2375,358.4688 Q263.2375,357.8594 263.4797,357.5938 Q263.7219,357.3281 264.0969,357.3281 Q264.4719,357.3281 264.7063,357.5938 Q264.9406,357.8594 264.9406,358.4688 L264.9406,361.0938 L256.9406,361.0938 Q256.3156,361.0938 256.0578,360.8594 Q255.8,360.625 255.8,360.2344 Q255.8,359.8594 256.0656,359.625 Q256.3313,359.3906 256.9406,359.3906 L257.2063,359.3906 L257.2063,352.7344 L256.9406,352.7344 Q256.3156,352.7344 256.0578,352.5 Q255.8,352.2656 255.8,351.875 Q255.8,351.5 256.0578,351.2656 Q256.3156,351.0313 256.9406,351.0313 L264.5656,351.0313 L264.5656,353.625 Q264.5656,354.2344 264.3391,354.4922 Q264.1125,354.75 263.7219,354.75 Q263.3469,354.75 263.1125,354.4922 Q262.8781,354.2344 262.8781,353.625 L262.8781,352.7344 L258.9094,352.7344 L258.9094,355.1875 L260.3938,355.1875 Q260.3938,354.5313 260.5188,354.3438 Q260.7844,353.9375 261.2531,353.9375 Q261.6281,353.9375 261.8625,354.1953 Q262.0969,354.4531 262.0969,355.0625 L262.0969,357.0313 Q262.0969,357.5781 261.9719,357.7656 Q261.7063,358.1563 261.2531,358.1563 Q260.7844,358.1563 260.5188,357.75 Q260.3938,357.5625 260.3938,356.8906 L258.9094,356.8906 Z "/><text fill="#000000" font-family="sans-serif" font-size="12" lengthAdjust="spacingAndGlyphs" textLength="77" x="290.95" y="353.457">Entity_Name2</text><text fill="#000000" font-family="sans-serif" font-size="12" lengthAdjust="spacingAndGlyphs" textLength="101" x="278.95" y="368.5508">(Entity description)</text><line style="stroke: #A80036; stroke-width: 1.5;" x1="224" x2="404" y1="376.1875" y2="376.1875"/><text fill="#000000" font-family="sans-serif" font-size="11" font-weight="bold" lengthAdjust="spacingAndGlyphs" textLength="10" x="229" y="391.6064">id</text><text fill="#000000" font-family="sans-serif" font-size="11" lengthAdjust="spacingAndGlyphs" textLength="42" x="242" y="391.6064">INTEGER</text><text fill="#000000" font-family="sans-serif" font-size="11" lengthAdjust="spacingAndGlyphs" text-decoration="underline" textLength="92" x="229" y="405.4424">&lt;NotNullAttribute&gt;&gt;</text><line style="stroke: #000000; stroke-width: 1.0;" x1="229" x2="321" y1="407.4424" y2="407.4424"/><text fill="#000000" font-family="sans-serif" font-size="11" lengthAdjust="spacingAndGlyphs" textLength="75" x="324" y="405.4424">&lt;Type_Name3&gt;</text><text fill="#000000" font-family="sans-serif" font-size="11" lengthAdjust="spacingAndGlyphs" textLength="170" x="229" y="419.2783">&lt;Attribute_Name1&gt; &lt;Type_Name1&gt;</text><text fill="#000000" font-family="sans-serif" font-size="11" lengthAdjust="spacingAndGlyphs" textLength="170" x="229" y="433.1143">&lt;Attribute_Name2&gt; &lt;Type_Name2&gt;</text><text fill="#000000" font-family="sans-serif" font-size="11" lengthAdjust="spacingAndGlyphs" textLength="170" x="229" y="446.9502">&lt;Attribute_Name3&gt; &lt;Type_Name3&gt;</text><!--class Entity_Name3--><rect fill="#FEFECE" filter="url(#f6wlaguw884cv)" height="75.8594" id="Entity_Name3" style="stroke: #A80036; stroke-width: 1.5;" width="182" x="223" y="186"/><ellipse cx="260.05" cy="206.0938" fill="#FFAAAA" rx="11" ry="11" style="stroke: #A80036; stroke-width: 1.0;"/><path d="M258.9094,206.8906 L258.9094,209.3906 L263.2375,209.3906 L263.2375,208.4688 Q263.2375,207.8594 263.4797,207.5938 Q263.7219,207.3281 264.0969,207.3281 Q264.4719,207.3281 264.7063,207.5938 Q264.9406,207.8594 264.9406,208.4688 L264.9406,211.0938 L256.9406,211.0938 Q256.3156,211.0938 256.0578,210.8594 Q255.8,210.625 255.8,210.2344 Q255.8,209.8594 256.0656,209.625 Q256.3313,209.3906 256.9406,209.3906 L257.2063,209.3906 L257.2063,202.7344 L256.9406,202.7344 Q256.3156,202.7344 256.0578,202.5 Q255.8,202.2656 255.8,201.875 Q255.8,201.5 256.0578,201.2656 Q256.3156,201.0313 256.9406,201.0313 L264.5656,201.0313 L264.5656,203.625 Q264.5656,204.2344 264.3391,204.4922 Q264.1125,204.75 263.7219,204.75 Q263.3469,204.75 263.1125,204.4922 Q262.8781,204.2344 262.8781,203.625 L262.8781,202.7344 L258.9094,202.7344 L258.9094,205.1875 L260.3938,205.1875 Q260.3938,204.5313 260.5188,204.3438 Q260.7844,203.9375 261.2531,203.9375 Q261.6281,203.9375 261.8625,204.1953 Q262.0969,204.4531 262.0969,205.0625 L262.0969,207.0313 Q262.0969,207.5781 261.9719,207.7656 Q261.7063,208.1563 261.2531,208.1563 Q260.7844,208.1563 260.5188,207.75 Q260.3938,207.5625 260.3938,206.8906 L258.9094,206.8906 Z "/><text fill="#000000" font-family="sans-serif" font-size="12" lengthAdjust="spacingAndGlyphs" textLength="77" x="290.95" y="203.457">Entity_Name3</text><text fill="#000000" font-family="sans-serif" font-size="12" lengthAdjust="spacingAndGlyphs" textLength="101" x="278.95" y="218.5508">(Entity description)</text><line style="stroke: #A80036; stroke-width: 1.5;" x1="224" x2="404" y1="226.1875" y2="226.1875"/><text fill="#000000" font-family="sans-serif" font-size="11" font-weight="bold" lengthAdjust="spacingAndGlyphs" textLength="10" x="229" y="241.6064">id</text><text fill="#000000" font-family="sans-serif" font-size="11" lengthAdjust="spacingAndGlyphs" textLength="42" x="242" y="241.6064">INTEGER</text><text fill="#000000" font-family="sans-serif" font-size="11" lengthAdjust="spacingAndGlyphs" textLength="170" x="229" y="255.4424">&lt;Attribute_Name1&gt; &lt;Type_Name2&gt;</text><!--class Entity_Name4--><rect fill="#FEFECE" filter="url(#f6wlaguw884cv)" height="89.6953" id="Entity_Name4" style="stroke: #A80036; stroke-width: 1.5;" width="182" x="440" y="179"/><ellipse cx="477.05" cy="199.0938" fill="#FFAAAA" rx="11" ry="11" style="stroke: #A80036; stroke-width: 1.0;"/><path d="M475.9094,199.8906 L475.9094,202.3906 L480.2375,202.3906 L480.2375,201.4688 Q480.2375,200.8594 480.4797,200.5938 Q480.7219,200.3281 481.0969,200.3281 Q481.4719,200.3281 481.7063,200.5938 Q481.9406,200.8594 481.9406,201.4688 L481.9406,204.0938 L473.9406,204.0938 Q473.3156,204.0938 473.0578,203.8594 Q472.8,203.625 472.8,203.2344 Q472.8,202.8594 473.0656,202.625 Q473.3313,202.3906 473.9406,202.3906 L474.2063,202.3906 L474.2063,195.7344 L473.9406,195.7344 Q473.3156,195.7344 473.0578,195.5 Q472.8,195.2656 472.8,194.875 Q472.8,194.5 473.0578,194.2656 Q473.3156,194.0313 473.9406,194.0313 L481.5656,194.0313 L481.5656,196.625 Q481.5656,197.2344 481.3391,197.4922 Q481.1125,197.75 480.7219,197.75 Q480.3469,197.75 480.1125,197.4922 Q479.8781,197.2344 479.8781,196.625 L479.8781,195.7344 L475.9094,195.7344 L475.9094,198.1875 L477.3938,198.1875 Q477.3938,197.5313 477.5188,197.3438 Q477.7844,196.9375 478.2531,196.9375 Q478.6281,196.9375 478.8625,197.1953 Q479.0969,197.4531 479.0969,198.0625 L479.0969,200.0313 Q479.0969,200.5781 478.9719,200.7656 Q478.7063,201.1563 478.2531,201.1563 Q477.7844,201.1563 477.5188,200.75 Q477.3938,200.5625 477.3938,199.8906 L475.9094,199.8906 Z "/><text fill="#000000" font-family="sans-serif" font-size="12" lengthAdjust="spacingAndGlyphs" textLength="77" x="507.95" y="196.457">Entity_Name4</text><text fill="#000000" font-family="sans-serif" font-size="12" lengthAdjust="spacingAndGlyphs" textLength="101" x="495.95" y="211.5508">(Entity description)</text><line style="stroke: #A80036; stroke-width: 1.5;" x1="441" x2="621" y1="219.1875" y2="219.1875"/><text fill="#000000" font-family="sans-serif" font-size="11" font-weight="bold" lengthAdjust="spacingAndGlyphs" textLength="10" x="446" y="234.6064">id</text><text fill="#000000" font-family="sans-serif" font-size="11" lengthAdjust="spacingAndGlyphs" textLength="42" x="459" y="234.6064">INTEGER</text><text fill="#000000" font-family="sans-serif" font-size="11" lengthAdjust="spacingAndGlyphs" text-decoration="underline" textLength="92" x="446" y="248.4424">&lt;NotNullAttribute&gt;&gt;</text><line style="stroke: #000000; stroke-width: 1.0;" x1="446" x2="538" y1="250.4424" y2="250.4424"/><text fill="#000000" font-family="sans-serif" font-size="11" lengthAdjust="spacingAndGlyphs" textLength="75" x="541" y="248.4424">&lt;Type_Name1&gt;</text><text fill="#000000" font-family="sans-serif" font-size="11" lengthAdjust="spacingAndGlyphs" textLength="170" x="446" y="262.2783">&lt;Attribute_Name5&gt; &lt;Type_Name3&gt;</text><!--class Entity_Name5--><rect fill="#FEFECE" filter="url(#f6wlaguw884cv)" height="103.5313" id="Entity_Name5" style="stroke: #A80036; stroke-width: 1.5;" width="182" x="6" y="172"/><ellipse cx="43.05" cy="192.0938" fill="#FFAAAA" rx="11" ry="11" style="stroke: #A80036; stroke-width: 1.0;"/><path d="M41.9094,192.8906 L41.9094,195.3906 L46.2375,195.3906 L46.2375,194.4688 Q46.2375,193.8594 46.4797,193.5938 Q46.7219,193.3281 47.0969,193.3281 Q47.4719,193.3281 47.7063,193.5938 Q47.9406,193.8594 47.9406,194.4688 L47.9406,197.0938 L39.9406,197.0938 Q39.3156,197.0938 39.0578,196.8594 Q38.8,196.625 38.8,196.2344 Q38.8,195.8594 39.0656,195.625 Q39.3313,195.3906 39.9406,195.3906 L40.2063,195.3906 L40.2063,188.7344 L39.9406,188.7344 Q39.3156,188.7344 39.0578,188.5 Q38.8,188.2656 38.8,187.875 Q38.8,187.5 39.0578,187.2656 Q39.3156,187.0313 39.9406,187.0313 L47.5656,187.0313 L47.5656,189.625 Q47.5656,190.2344 47.3391,190.4922 Q47.1125,190.75 46.7219,190.75 Q46.3469,190.75 46.1125,190.4922 Q45.8781,190.2344 45.8781,189.625 L45.8781,188.7344 L41.9094,188.7344 L41.9094,191.1875 L43.3938,191.1875 Q43.3938,190.5313 43.5188,190.3438 Q43.7844,189.9375 44.2531,189.9375 Q44.6281,189.9375 44.8625,190.1953 Q45.0969,190.4531 45.0969,191.0625 L45.0969,193.0313 Q45.0969,193.5781 44.9719,193.7656 Q44.7063,194.1563 44.2531,194.1563 Q43.7844,194.1563 43.5188,193.75 Q43.3938,193.5625 43.3938,192.8906 L41.9094,192.8906 Z "/><text fill="#000000" font-family="sans-serif" font-size="12" lengthAdjust="spacingAndGlyphs" textLength="77" x="73.95" y="189.457">Entity_Name5</text><text fill="#000000" font-family="sans-serif" font-size="12" lengthAdjust="spacingAndGlyphs" textLength="101" x="61.95" y="204.5508">(Entity description)</text><line style="stroke: #A80036; stroke-width: 1.5;" x1="7" x2="187" y1="212.1875" y2="212.1875"/><text fill="#000000" font-family="sans-serif" font-size="11" font-weight="bold" lengthAdjust="spacingAndGlyphs" textLength="10" x="12" y="227.6064">id</text><text fill="#000000" font-family="sans-serif" font-size="11" lengthAdjust="spacingAndGlyphs" textLength="42" x="25" y="227.6064">INTEGER</text><text fill="#008000" font-family="sans-serif" font-size="11" lengthAdjust="spacingAndGlyphs" text-decoration="underline" textLength="86" x="12" y="241.4424">&lt;UniqueAttribute&gt;</text><line style="stroke: #008000; stroke-width: 1.0;" x1="12" x2="98" y1="243.4424" y2="243.4424"/><text fill="#000000" font-family="sans-serif" font-size="11" lengthAdjust="spacingAndGlyphs" textLength="75" x="101" y="241.4424">&lt;Type_Name1&gt;</text><text fill="#000000" font-family="sans-serif" font-size="11" lengthAdjust="spacingAndGlyphs" text-decoration="underline" textLength="92" x="12" y="255.2783">&lt;NotNullAttribute&gt;&gt;</text><line style="stroke: #000000; stroke-width: 1.0;" x1="12" x2="104" y1="257.2783" y2="257.2783"/><text fill="#000000" font-family="sans-serif" font-size="11" lengthAdjust="spacingAndGlyphs" textLength="75" x="107" y="255.2783">&lt;Type_Name1&gt;</text><text fill="#000000" font-family="sans-serif" font-size="11" lengthAdjust="spacingAndGlyphs" textLength="170" x="12" y="269.1143">&lt;Attribute_Name1&gt; &lt;Type_Name2&gt;</text><!--link Entity_Name3 to Entity_Name2--><path d="M314,262.396 C314,283.92 314,311.427 314,335.681 " fill="none" id="Entity_Name3-Entity_Name2" style="stroke: #A80036; stroke-width: 1.0;"/><text fill="#000000" font-family="sans-serif" font-size="13" lengthAdjust="spacingAndGlyphs" textLength="26" x="285.9281" y="283.3247">0...1</text><text fill="#000000" font-family="sans-serif" font-size="13" lengthAdjust="spacingAndGlyphs" textLength="24" x="288.5375" y="325.0316">1...*</text><!--link Entity_Name1 to Entity_Name3--><path d="M314,112.258 C314,136.174 314,164.107 314,185.936 " fill="none" id="Entity_Name1-Entity_Name3" style="stroke: #A80036; stroke-width: 1.0;"/><text fill="#000000" font-family="sans-serif" font-size="13" lengthAdjust="spacingAndGlyphs" textLength="7" x="306.5734" y="133.147">1</text><text fill="#000000" font-family="sans-serif" font-size="13" lengthAdjust="spacingAndGlyphs" textLength="24" x="287.8625" y="175.2698">0...*</text><!--link Entity_Name3 to Entity_Name4--><path d="M405.123,224 C416.596,224 428.069,224 439.543,224 " fill="none" id="Entity_Name3-Entity_Name4" style="stroke: #A80036; stroke-width: 1.0;"/><text fill="#000000" font-family="sans-serif" font-size="13" lengthAdjust="spacingAndGlyphs" textLength="24" x="407.8849" y="220.5011">1...*</text><text fill="#000000" font-family="sans-serif" font-size="13" lengthAdjust="spacingAndGlyphs" textLength="24" x="407.9454" y="238.1067">0...*</text><!--link Entity_Name5 to Entity_Name3--><path d="M188.123,224 C199.596,224 211.069,224 222.543,224 " fill="none" id="Entity_Name5-Entity_Name3" style="stroke: #A80036; stroke-width: 1.0;"/><text fill="#000000" font-family="sans-serif" font-size="13" lengthAdjust="spacingAndGlyphs" textLength="7" x="195.959" y="220.8666">1</text><text fill="#000000" font-family="sans-serif" font-size="13" lengthAdjust="spacingAndGlyphs" textLength="7" x="207.9761" y="220.8772">1</text><!--
@startuml
hide methods
hide stereotypes


class Entity_Name1 as "Entity_Name1\n(Entity description)" << (E,#FFAAAA) >> {
<b>id</b> INTEGER
<u><color:green><UniqueAttribute></color></u> <Type_Name1>
<u><NotNullAttribute>></u> <Type_Name1>
<Attribute_Name1> <Type_Name2>
}

class Entity_Name2 as "Entity_Name2\n(Entity description)" << (E,#FFAAAA) >> {
<b>id</b> INTEGER
<u><NotNullAttribute>></u> <Type_Name3>
<Attribute_Name1> <Type_Name1>
<Attribute_Name2> <Type_Name2>
<Attribute_Name3> <Type_Name3>
}

class Entity_Name3 as "Entity_Name3\n(Entity description)" << (E,#FFAAAA) >> {
<b>id</b> INTEGER
<Attribute_Name1> <Type_Name2>
}

class Entity_Name4 as "Entity_Name4\n(Entity description)" << (E,#FFAAAA) >> {
<b>id</b> INTEGER
<u><NotNullAttribute>></u> <Type_Name1>
<Attribute_Name5> <Type_Name3>
}

class Entity_Name5 as "Entity_Name5\n(Entity description)" << (E,#FFAAAA) >> {
<b>id</b> INTEGER
<u><color:green><UniqueAttribute></color></u> <Type_Name1>
<u><NotNullAttribute>></u> <Type_Name1>
<Attribute_Name1> <Type_Name2>
}

Entity_Name3 "0...1" -down- "1...*" Entity_Name2
Entity_Name3 "0...*" -up- "1" Entity_Name1
Entity_Name3 "1...*" -right- "0...*" Entity_Name4
Entity_Name3 "1" -left- "1" Entity_Name5

@enduml

PlantUML version 1.2017.20(Mon Dec 11 17:57:05 CET 2017)
(GPL source distribution)
Java Runtime: Java(TM) SE Runtime Environment
JVM: Java HotSpot(TM) 64-Bit Server VM
Java Version: 1.8.0_74-b02
Operating System: Windows 10
OS Version: 10.0
Default Encoding: Cp1252
Language: en
Country: US
--></g></svg>