<?xml version="1.0" encoding="UTF-8" standalone="no"?><svg xmlns="http://www.w3.org/2000/svg" xmlns:xlink="http://www.w3.org/1999/xlink" contentScriptType="application/ecmascript" contentStyleType="text/css" height="638px" preserveAspectRatio="none" style="width:437px;height:638px;" version="1.1" viewBox="0 0 437 638" width="437px" zoomAndPan="magnify"><defs><filter height="300%" id="f8ssgdq" width="300%" x="-1" y="-1"><feGaussianBlur result="blurOut" stdDeviation="2.0"/><feColorMatrix in="blurOut" result="blurOut2" type="matrix" values="0 0 0 0 0 0 0 0 0 0 0 0 0 0 0 0 0 0 .4 0"/><feOffset dx="4.0" dy="4.0" in="blurOut2" result="blurOut3"/><feBlend in="SourceGraphic" in2="blurOut3" mode="normal"/></filter></defs><g><!--cluster MCO_Booking--><polygon fill="#DDDDDD" filter="url(#f8ssgdq)" points="22,24,128,24,135,47.6094,214,47.6094,214,166,22,166,22,24" style="stroke: #000000; stroke-width: 2.0;"/><line style="stroke: #000000; stroke-width: 2.0;" x1="22" x2="135" y1="47.6094" y2="47.6094"/><text fill="#000000" font-family="sans-serif" font-size="14" font-weight="bold" lengthAdjust="spacingAndGlyphs" textLength="100" x="26" y="40.5332">MCO_Booking</text><!--cluster MCO_Menu--><polygon fill="#DDDDDD" filter="url(#f8ssgdq)" points="196,190,284,190,291,213.6094,404,213.6094,404,332,196,332,196,190" style="stroke: #000000; stroke-width: 2.0;"/><line style="stroke: #000000; stroke-width: 2.0;" x1="196" x2="291" y1="213.6094" y2="213.6094"/><text fill="#000000" font-family="sans-serif" font-size="14" font-weight="bold" lengthAdjust="spacingAndGlyphs" textLength="82" x="200" y="206.5332">MCO_Menu</text><!--class ETY_Booking--><rect fill="#FEFECE" filter="url(#f8ssgdq)" height="89.5078" style="stroke: #A80036; stroke-width: 1.5;" width="160" x="38" y="60"/><ellipse cx="77.3" cy="76" fill="#ADD1B2" rx="11" ry="11" style="stroke: #A80036; stroke-width: 1.0;"/><path d="M80.0656,71.875 Q80.2219,71.6563 80.4094,71.5469 Q80.5969,71.4375 80.8156,71.4375 Q81.1906,71.4375 81.425,71.6953 Q81.6594,71.9531 81.6594,72.5625 L81.6594,74.0156 Q81.6594,74.625 81.425,74.8906 Q81.1906,75.1563 80.8156,75.1563 Q80.4719,75.1563 80.2688,74.9531 Q80.0656,74.7656 79.9563,74.25 Q79.9094,73.8906 79.7219,73.7031 Q79.3938,73.3281 78.7844,73.1094 Q78.175,72.8906 77.55,72.8906 Q76.7844,72.8906 76.1516,73.2188 Q75.5188,73.5469 75.0266,74.2969 Q74.5344,75.0469 74.5344,76.0781 L74.5344,77.1719 Q74.5344,78.4063 75.425,79.2266 Q76.3156,80.0469 77.9094,80.0469 Q78.8469,80.0469 79.5031,79.7969 Q79.8938,79.6406 80.3156,79.2031 Q80.5813,78.9375 80.7297,78.8594 Q80.8781,78.7813 81.0813,78.7813 Q81.4094,78.7813 81.6672,79.0391 Q81.925,79.2969 81.925,79.6406 Q81.925,79.9844 81.5813,80.3906 Q81.0813,80.9688 80.2844,81.2969 Q79.2063,81.75 77.9094,81.75 Q76.3938,81.75 75.1906,81.125 Q74.2063,80.625 73.5188,79.5547 Q72.8313,78.4844 72.8313,77.2031 L72.8313,76.0469 Q72.8313,74.7188 73.4484,73.5703 Q74.0656,72.4219 75.1594,71.8047 Q76.2531,71.1875 77.4875,71.1875 Q78.2219,71.1875 78.8703,71.3516 Q79.5188,71.5156 80.0656,71.875 Z "/><text fill="#000000" font-family="sans-serif" font-size="12" lengthAdjust="spacingAndGlyphs" textLength="74" x="96.7" y="80.9102">ETY_Booking</text><line style="stroke: #A80036; stroke-width: 1.5;" x1="39" x2="197" y1="92" y2="92"/><text fill="#000000" font-family="sans-serif" font-size="11" lengthAdjust="spacingAndGlyphs" textLength="105" x="44" y="107.4189">ATT_ID: DTY_Number</text><text fill="#000000" font-family="sans-serif" font-size="11" lengthAdjust="spacingAndGlyphs" textLength="133" x="44" y="121.2549">ATT_Amount: DTY_Number</text><text fill="#000000" font-family="sans-serif" font-size="11" lengthAdjust="spacingAndGlyphs" textLength="148" x="44" y="135.0908">ATT_Comment: DTY_Text_255</text><line style="stroke: #A80036; stroke-width: 1.5;" x1="39" x2="197" y1="141.5078" y2="141.5078"/><!--class ETY_Dish--><rect fill="#FEFECE" filter="url(#f8ssgdq)" height="89.5078" style="stroke: #A80036; stroke-width: 1.5;" width="176" x="212" y="226"/><ellipse cx="268.25" cy="242" fill="#ADD1B2" rx="11" ry="11" style="stroke: #A80036; stroke-width: 1.0;"/><path d="M271.0156,237.875 Q271.1719,237.6563 271.3594,237.5469 Q271.5469,237.4375 271.7656,237.4375 Q272.1406,237.4375 272.375,237.6953 Q272.6094,237.9531 272.6094,238.5625 L272.6094,240.0156 Q272.6094,240.625 272.375,240.8906 Q272.1406,241.1563 271.7656,241.1563 Q271.4219,241.1563 271.2188,240.9531 Q271.0156,240.7656 270.9063,240.25 Q270.8594,239.8906 270.6719,239.7031 Q270.3438,239.3281 269.7344,239.1094 Q269.125,238.8906 268.5,238.8906 Q267.7344,238.8906 267.1016,239.2188 Q266.4688,239.5469 265.9766,240.2969 Q265.4844,241.0469 265.4844,242.0781 L265.4844,243.1719 Q265.4844,244.4063 266.375,245.2266 Q267.2656,246.0469 268.8594,246.0469 Q269.7969,246.0469 270.4531,245.7969 Q270.8438,245.6406 271.2656,245.2031 Q271.5313,244.9375 271.6797,244.8594 Q271.8281,244.7813 272.0313,244.7813 Q272.3594,244.7813 272.6172,245.0391 Q272.875,245.2969 272.875,245.6406 Q272.875,245.9844 272.5313,246.3906 Q272.0313,246.9688 271.2344,247.2969 Q270.1563,247.75 268.8594,247.75 Q267.3438,247.75 266.1406,247.125 Q265.1563,246.625 264.4688,245.5547 Q263.7813,244.4844 263.7813,243.2031 L263.7813,242.0469 Q263.7813,240.7188 264.3984,239.5703 Q265.0156,238.4219 266.1094,237.8047 Q267.2031,237.1875 268.4375,237.1875 Q269.1719,237.1875 269.8203,237.3516 Q270.4688,237.5156 271.0156,237.875 Z "/><text fill="#000000" font-family="sans-serif" font-size="12" lengthAdjust="spacingAndGlyphs" textLength="55" x="288.75" y="246.9102">ETY_Dish</text><line style="stroke: #A80036; stroke-width: 1.5;" x1="213" x2="387" y1="258" y2="258"/><text fill="#000000" font-family="sans-serif" font-size="11" lengthAdjust="spacingAndGlyphs" textLength="131" x="218" y="273.4189">ATT_Name: DTY_Text_120</text><text fill="#000000" font-family="sans-serif" font-size="11" lengthAdjust="spacingAndGlyphs" textLength="164" x="218" y="287.2549">ATT_Description: DTY_Text_4000</text><text fill="#000000" font-family="sans-serif" font-size="11" lengthAdjust="spacingAndGlyphs" textLength="154" x="218" y="301.0908">ATT_Price: DTY_Decimal_Value</text><line style="stroke: #A80036; stroke-width: 1.5;" x1="213" x2="387" y1="307.5078" y2="307.5078"/><!--class ETY_Order--><rect fill="#FEFECE" filter="url(#f8ssgdq)" height="61.8359" style="stroke: #A80036; stroke-width: 1.5;" width="117" x="59.5" y="240"/><ellipse cx="85.75" cy="256" fill="#ADD1B2" rx="11" ry="11" style="stroke: #A80036; stroke-width: 1.0;"/><path d="M88.5156,251.875 Q88.6719,251.6563 88.8594,251.5469 Q89.0469,251.4375 89.2656,251.4375 Q89.6406,251.4375 89.875,251.6953 Q90.1094,251.9531 90.1094,252.5625 L90.1094,254.0156 Q90.1094,254.625 89.875,254.8906 Q89.6406,255.1563 89.2656,255.1563 Q88.9219,255.1563 88.7188,254.9531 Q88.5156,254.7656 88.4063,254.25 Q88.3594,253.8906 88.1719,253.7031 Q87.8438,253.3281 87.2344,253.1094 Q86.625,252.8906 86,252.8906 Q85.2344,252.8906 84.6016,253.2188 Q83.9688,253.5469 83.4766,254.2969 Q82.9844,255.0469 82.9844,256.0781 L82.9844,257.1719 Q82.9844,258.4063 83.875,259.2266 Q84.7656,260.0469 86.3594,260.0469 Q87.2969,260.0469 87.9531,259.7969 Q88.3438,259.6406 88.7656,259.2031 Q89.0313,258.9375 89.1797,258.8594 Q89.3281,258.7813 89.5313,258.7813 Q89.8594,258.7813 90.1172,259.0391 Q90.375,259.2969 90.375,259.6406 Q90.375,259.9844 90.0313,260.3906 Q89.5313,260.9688 88.7344,261.2969 Q87.6563,261.75 86.3594,261.75 Q84.8438,261.75 83.6406,261.125 Q82.6563,260.625 81.9688,259.5547 Q81.2813,258.4844 81.2813,257.2031 L81.2813,256.0469 Q81.2813,254.7188 81.8984,253.5703 Q82.5156,252.4219 83.6094,251.8047 Q84.7031,251.1875 85.9375,251.1875 Q86.6719,251.1875 87.3203,251.3516 Q87.9688,251.5156 88.5156,251.875 Z "/><text fill="#000000" font-family="sans-serif" font-size="12" lengthAdjust="spacingAndGlyphs" textLength="60" x="102.25" y="260.9102">ETY_Order</text><line style="stroke: #A80036; stroke-width: 1.5;" x1="60.5" x2="175.5" y1="272" y2="272"/><text fill="#000000" font-family="sans-serif" font-size="11" lengthAdjust="spacingAndGlyphs" textLength="105" x="65.5" y="287.4189">ATT_ID: DTY_Number</text><line style="stroke: #A80036; stroke-width: 1.5;" x1="60.5" x2="175.5" y1="293.8359" y2="293.8359"/><!--class ETY_Order_Line--><rect fill="#FEFECE" filter="url(#f8ssgdq)" height="89.5078" style="stroke: #A80036; stroke-width: 1.5;" width="160" x="87" y="376"/><ellipse cx="118.65" cy="392" fill="#ADD1B2" rx="11" ry="11" style="stroke: #A80036; stroke-width: 1.0;"/><path d="M121.4156,387.875 Q121.5719,387.6563 121.7594,387.5469 Q121.9469,387.4375 122.1656,387.4375 Q122.5406,387.4375 122.775,387.6953 Q123.0094,387.9531 123.0094,388.5625 L123.0094,390.0156 Q123.0094,390.625 122.775,390.8906 Q122.5406,391.1563 122.1656,391.1563 Q121.8219,391.1563 121.6188,390.9531 Q121.4156,390.7656 121.3063,390.25 Q121.2594,389.8906 121.0719,389.7031 Q120.7438,389.3281 120.1344,389.1094 Q119.525,388.8906 118.9,388.8906 Q118.1344,388.8906 117.5016,389.2188 Q116.8688,389.5469 116.3766,390.2969 Q115.8844,391.0469 115.8844,392.0781 L115.8844,393.1719 Q115.8844,394.4063 116.775,395.2266 Q117.6656,396.0469 119.2594,396.0469 Q120.1969,396.0469 120.8531,395.7969 Q121.2438,395.6406 121.6656,395.2031 Q121.9313,394.9375 122.0797,394.8594 Q122.2281,394.7813 122.4313,394.7813 Q122.7594,394.7813 123.0172,395.0391 Q123.275,395.2969 123.275,395.6406 Q123.275,395.9844 122.9313,396.3906 Q122.4313,396.9688 121.6344,397.2969 Q120.5563,397.75 119.2594,397.75 Q117.7438,397.75 116.5406,397.125 Q115.5563,396.625 114.8688,395.5547 Q114.1813,394.4844 114.1813,393.2031 L114.1813,392.0469 Q114.1813,390.7188 114.7984,389.5703 Q115.4156,388.4219 116.5094,387.8047 Q117.6031,387.1875 118.8375,387.1875 Q119.5719,387.1875 120.2203,387.3516 Q120.8688,387.5156 121.4156,387.875 Z "/><text fill="#000000" font-family="sans-serif" font-size="12" lengthAdjust="spacingAndGlyphs" textLength="91" x="136.35" y="396.9102">ETY_Order_Line</text><line style="stroke: #A80036; stroke-width: 1.5;" x1="88" x2="246" y1="408" y2="408"/><text fill="#000000" font-family="sans-serif" font-size="11" lengthAdjust="spacingAndGlyphs" textLength="105" x="93" y="423.4189">ATT_ID: DTY_Number</text><text fill="#000000" font-family="sans-serif" font-size="11" lengthAdjust="spacingAndGlyphs" textLength="133" x="93" y="437.2549">ATT_Amount: DTY_Number</text><text fill="#000000" font-family="sans-serif" font-size="11" lengthAdjust="spacingAndGlyphs" textLength="148" x="93" y="451.0908">ATT_Comment: DTY_Text_255</text><line style="stroke: #A80036; stroke-width: 1.5;" x1="88" x2="246" y1="457.5078" y2="457.5078"/><!--class ETY_Ingredient--><rect fill="#FEFECE" filter="url(#f8ssgdq)" height="103.3438" style="stroke: #A80036; stroke-width: 1.5;" width="166" x="150" y="526"/><ellipse cx="187.5" cy="542" fill="#ADD1B2" rx="11" ry="11" style="stroke: #A80036; stroke-width: 1.0;"/><path d="M190.2656,537.875 Q190.4219,537.6563 190.6094,537.5469 Q190.7969,537.4375 191.0156,537.4375 Q191.3906,537.4375 191.625,537.6953 Q191.8594,537.9531 191.8594,538.5625 L191.8594,540.0156 Q191.8594,540.625 191.625,540.8906 Q191.3906,541.1563 191.0156,541.1563 Q190.6719,541.1563 190.4688,540.9531 Q190.2656,540.7656 190.1563,540.25 Q190.1094,539.8906 189.9219,539.7031 Q189.5938,539.3281 188.9844,539.1094 Q188.375,538.8906 187.75,538.8906 Q186.9844,538.8906 186.3516,539.2188 Q185.7188,539.5469 185.2266,540.2969 Q184.7344,541.0469 184.7344,542.0781 L184.7344,543.1719 Q184.7344,544.4063 185.625,545.2266 Q186.5156,546.0469 188.1094,546.0469 Q189.0469,546.0469 189.7031,545.7969 Q190.0938,545.6406 190.5156,545.2031 Q190.7813,544.9375 190.9297,544.8594 Q191.0781,544.7813 191.2813,544.7813 Q191.6094,544.7813 191.8672,545.0391 Q192.125,545.2969 192.125,545.6406 Q192.125,545.9844 191.7813,546.3906 Q191.2813,546.9688 190.4844,547.2969 Q189.4063,547.75 188.1094,547.75 Q186.5938,547.75 185.3906,547.125 Q184.4063,546.625 183.7188,545.5547 Q183.0313,544.4844 183.0313,543.2031 L183.0313,542.0469 Q183.0313,540.7188 183.6484,539.5703 Q184.2656,538.4219 185.3594,537.8047 Q186.4531,537.1875 187.6875,537.1875 Q188.4219,537.1875 189.0703,537.3516 Q189.7188,537.5156 190.2656,537.875 Z "/><text fill="#000000" font-family="sans-serif" font-size="12" lengthAdjust="spacingAndGlyphs" textLength="84" x="206.5" y="546.9102">ETY_Ingredient</text><line style="stroke: #A80036; stroke-width: 1.5;" x1="151" x2="315" y1="558" y2="558"/><text fill="#000000" font-family="sans-serif" font-size="11" lengthAdjust="spacingAndGlyphs" textLength="105" x="156" y="573.4189">ATT_ID: DTY_Number</text><text fill="#000000" font-family="sans-serif" font-size="11" lengthAdjust="spacingAndGlyphs" textLength="131" x="156" y="587.2549">ATT_Name: DTY_Text_120</text><text fill="#000000" font-family="sans-serif" font-size="11" lengthAdjust="spacingAndGlyphs" textLength="134" x="156" y="601.0908">ATT_Description: DTY_Text</text><text fill="#000000" font-family="sans-serif" font-size="11" lengthAdjust="spacingAndGlyphs" textLength="154" x="156" y="614.9268">ATT_Price: DTY_Decimal_Value</text><line style="stroke: #A80036; stroke-width: 1.5;" x1="151" x2="315" y1="621.3438" y2="621.3438"/><path d="M260.456,316.004 C243.457,334.92 223.629,356.984 206.622,375.91 " fill="none" style="stroke: #A80036; stroke-width: 1.0;"/><text fill="#000000" font-family="sans-serif" font-size="13" lengthAdjust="spacingAndGlyphs" textLength="7" x="247.4029" y="337.0121">1</text><text fill="#000000" font-family="sans-serif" font-size="13" lengthAdjust="spacingAndGlyphs" textLength="134" x="223.9336" y="365.0111">0..*: used in order lines</text><path d="M293.364,316.184 C287.115,355.68 276.947,415.018 265,466 C260.375,485.737 254.387,507.194 248.844,525.904 " fill="none" style="stroke: #A80036; stroke-width: 1.0;"/><text fill="#000000" font-family="sans-serif" font-size="13" lengthAdjust="spacingAndGlyphs" textLength="20" x="271.1285" y="336.8824">0..*</text><text fill="#000000" font-family="sans-serif" font-size="13" lengthAdjust="spacingAndGlyphs" textLength="173" x="263.2361" y="515.019">0..*: Allowed extra ingredients</text><path d="M128.034,302.307 C135.062,323.534 144.564,352.234 152.425,375.978 " fill="none" style="stroke: #A80036; stroke-width: 1.0;"/><text fill="#000000" font-family="sans-serif" font-size="13" lengthAdjust="spacingAndGlyphs" textLength="7" x="122.2795" y="323.3442">1</text><text fill="#000000" font-family="sans-serif" font-size="13" lengthAdjust="spacingAndGlyphs" textLength="20" x="128.5084" y="365.09">0..*</text><path d="M185.913,466.273 C193.874,484.91 203.182,506.698 211.41,525.96 " fill="none" style="stroke: #A80036; stroke-width: 1.0;"/><text fill="#000000" font-family="sans-serif" font-size="13" lengthAdjust="spacingAndGlyphs" textLength="20" x="167.1107" y="486.9834">0..*</text><text fill="#000000" font-family="sans-serif" font-size="13" lengthAdjust="spacingAndGlyphs" textLength="179" x="16.7882" y="515.0829">0..*: Selected extra ingredients</text><path d="M118,150.381 C118,178.744 118,214.775 118,239.845 " fill="none" style="stroke: #A80036; stroke-width: 1.0;"/><text fill="#000000" font-family="sans-serif" font-size="13" lengthAdjust="spacingAndGlyphs" textLength="7" x="110.5297" y="171.1059">1</text><text fill="#000000" font-family="sans-serif" font-size="13" lengthAdjust="spacingAndGlyphs" textLength="20" x="95.9375" y="229.3176">0..*</text></g></svg>