<?xml version="1.0" encoding="UTF-8" standalone="no"?><svg xmlns="http://www.w3.org/2000/svg" xmlns:xlink="http://www.w3.org/1999/xlink" contentScriptType="application/ecmascript" contentStyleType="text/css" height="312px" preserveAspectRatio="none" style="width:1118px;height:312px;" version="1.1" viewBox="0 0 1118 312" width="1118px" zoomAndPan="magnify"><defs><filter height="300%" id="fups0do" width="300%" x="-1" y="-1"><feGaussianBlur result="blurOut" stdDeviation="2.0"/><feColorMatrix in="blurOut" result="blurOut2" type="matrix" values="0 0 0 0 0 0 0 0 0 0 0 0 0 0 0 0 0 0 .4 0"/><feOffset dx="4.0" dy="4.0" in="blurOut2" result="blurOut3"/><feBlend in="SourceGraphic" in2="blurOut3" mode="normal"/></filter></defs><g><!--cluster Save Order--><polygon fill="#DDDDDD" filter="url(#fups0do)" points="22,155.5,108,155.5,115,179.1094,396,179.1094,396,277.5,22,277.5,22,155.5" style="stroke: #000000; stroke-width: 2.0;"/><line style="stroke: #000000; stroke-width: 2.0;" x1="22" x2="115" y1="179.1094" y2="179.1094"/><text fill="#000000" font-family="sans-serif" font-size="14" font-weight="bold" lengthAdjust="spacingAndGlyphs" textLength="80" x="26" y="172.0332">Save Order</text><!--cluster Delete Order--><polygon fill="#DDDDDD" filter="url(#fups0do)" points="420,155.5,517,155.5,524,179.1094,606,179.1094,606,277.5,420,277.5,420,155.5" style="stroke: #000000; stroke-width: 2.0;"/><line style="stroke: #000000; stroke-width: 2.0;" x1="420" x2="524" y1="179.1094" y2="179.1094"/><text fill="#000000" font-family="sans-serif" font-size="14" font-weight="bold" lengthAdjust="spacingAndGlyphs" textLength="91" x="424" y="172.0332">Delete Order</text><!--cluster Find Orders--><polygon fill="#DDDDDD" filter="url(#fups0do)" points="630,128,720,128,727,151.6094,1111,151.6094,1111,305,630,305,630,128" style="stroke: #000000; stroke-width: 2.0;"/><line style="stroke: #000000; stroke-width: 2.0;" x1="630" x2="727" y1="151.6094" y2="151.6094"/><text fill="#000000" font-family="sans-serif" font-size="14" font-weight="bold" lengthAdjust="spacingAndGlyphs" textLength="84" x="634" y="144.5332">Find Orders</text><!--class IET_Save_Order--><rect fill="#FEFECE" filter="url(#fups0do)" height="70.0234" style="stroke: #A80036; stroke-width: 1.5;" width="153" x="38.5" y="191.5"/><ellipse cx="53.5" cy="211.5938" fill="#ADD1B2" rx="11" ry="11" style="stroke: #A80036; stroke-width: 1.0;"/><path d="M56.2656,207.4688 Q56.4219,207.25 56.6094,207.1406 Q56.7969,207.0313 57.0156,207.0313 Q57.3906,207.0313 57.625,207.2891 Q57.8594,207.5469 57.8594,208.1563 L57.8594,209.6094 Q57.8594,210.2188 57.625,210.4844 Q57.3906,210.75 57.0156,210.75 Q56.6719,210.75 56.4688,210.5469 Q56.2656,210.3594 56.1563,209.8438 Q56.1094,209.4844 55.9219,209.2969 Q55.5938,208.9219 54.9844,208.7031 Q54.375,208.4844 53.75,208.4844 Q52.9844,208.4844 52.3516,208.8125 Q51.7188,209.1406 51.2266,209.8906 Q50.7344,210.6406 50.7344,211.6719 L50.7344,212.7656 Q50.7344,214 51.625,214.8203 Q52.5156,215.6406 54.1094,215.6406 Q55.0469,215.6406 55.7031,215.3906 Q56.0938,215.2344 56.5156,214.7969 Q56.7813,214.5313 56.9297,214.4531 Q57.0781,214.375 57.2813,214.375 Q57.6094,214.375 57.8672,214.6328 Q58.125,214.8906 58.125,215.2344 Q58.125,215.5781 57.7813,215.9844 Q57.2813,216.5625 56.4844,216.8906 Q55.4063,217.3438 54.1094,217.3438 Q52.5938,217.3438 51.3906,216.7188 Q50.4063,216.2188 49.7188,215.1484 Q49.0313,214.0781 49.0313,212.7969 L49.0313,211.6406 Q49.0313,210.3125 49.6484,209.1641 Q50.2656,208.0156 51.3594,207.3984 Q52.4531,206.7813 53.6875,206.7813 Q54.4219,206.7813 55.0703,206.9453 Q55.7188,207.1094 56.2656,207.4688 Z "/><text fill="#000000" font-family="sans-serif" font-size="12" font-style="italic" lengthAdjust="spacingAndGlyphs" textLength="125" x="65.5" y="208.957">«Interface Entity Type»</text><text fill="#000000" font-family="sans-serif" font-size="12" lengthAdjust="spacingAndGlyphs" textLength="90" x="83" y="224.0508">IET_Save_Order</text><line style="stroke: #A80036; stroke-width: 1.5;" x1="39.5" x2="190.5" y1="231.6875" y2="231.6875"/><text fill="#000000" font-family="sans-serif" font-size="11" lengthAdjust="spacingAndGlyphs" textLength="75" x="44.5" y="247.1064">see ETY_Order</text><line style="stroke: #A80036; stroke-width: 1.5;" x1="39.5" x2="190.5" y1="253.5234" y2="253.5234"/><!--class IET_Order--><rect fill="#FEFECE" filter="url(#fups0do)" height="70.0234" style="stroke: #A80036; stroke-width: 1.5;" width="153" x="226.5" y="191.5"/><ellipse cx="241.5" cy="211.5938" fill="#ADD1B2" rx="11" ry="11" style="stroke: #A80036; stroke-width: 1.0;"/><path d="M244.2656,207.4688 Q244.4219,207.25 244.6094,207.1406 Q244.7969,207.0313 245.0156,207.0313 Q245.3906,207.0313 245.625,207.2891 Q245.8594,207.5469 245.8594,208.1563 L245.8594,209.6094 Q245.8594,210.2188 245.625,210.4844 Q245.3906,210.75 245.0156,210.75 Q244.6719,210.75 244.4688,210.5469 Q244.2656,210.3594 244.1563,209.8438 Q244.1094,209.4844 243.9219,209.2969 Q243.5938,208.9219 242.9844,208.7031 Q242.375,208.4844 241.75,208.4844 Q240.9844,208.4844 240.3516,208.8125 Q239.7188,209.1406 239.2266,209.8906 Q238.7344,210.6406 238.7344,211.6719 L238.7344,212.7656 Q238.7344,214 239.625,214.8203 Q240.5156,215.6406 242.1094,215.6406 Q243.0469,215.6406 243.7031,215.3906 Q244.0938,215.2344 244.5156,214.7969 Q244.7813,214.5313 244.9297,214.4531 Q245.0781,214.375 245.2813,214.375 Q245.6094,214.375 245.8672,214.6328 Q246.125,214.8906 246.125,215.2344 Q246.125,215.5781 245.7813,215.9844 Q245.2813,216.5625 244.4844,216.8906 Q243.4063,217.3438 242.1094,217.3438 Q240.5938,217.3438 239.3906,216.7188 Q238.4063,216.2188 237.7188,215.1484 Q237.0313,214.0781 237.0313,212.7969 L237.0313,211.6406 Q237.0313,210.3125 237.6484,209.1641 Q238.2656,208.0156 239.3594,207.3984 Q240.4531,206.7813 241.6875,206.7813 Q242.4219,206.7813 243.0703,206.9453 Q243.7188,207.1094 244.2656,207.4688 Z "/><text fill="#000000" font-family="sans-serif" font-size="12" font-style="italic" lengthAdjust="spacingAndGlyphs" textLength="125" x="253.5" y="208.957">«Interface Entity Type»</text><text fill="#000000" font-family="sans-serif" font-size="12" lengthAdjust="spacingAndGlyphs" textLength="56" x="288" y="224.0508">IET_Order</text><line style="stroke: #A80036; stroke-width: 1.5;" x1="227.5" x2="378.5" y1="231.6875" y2="231.6875"/><text fill="#000000" font-family="sans-serif" font-size="11" lengthAdjust="spacingAndGlyphs" textLength="75" x="232.5" y="247.1064">see ETY_Order</text><line style="stroke: #A80036; stroke-width: 1.5;" x1="227.5" x2="378.5" y1="253.5234" y2="253.5234"/><!--class IET_Delete_Order--><rect fill="#FEFECE" filter="url(#fups0do)" height="70.0234" style="stroke: #A80036; stroke-width: 1.5;" width="153" x="436.5" y="191.5"/><ellipse cx="451.5" cy="211.5938" fill="#ADD1B2" rx="11" ry="11" style="stroke: #A80036; stroke-width: 1.0;"/><path d="M454.2656,207.4688 Q454.4219,207.25 454.6094,207.1406 Q454.7969,207.0313 455.0156,207.0313 Q455.3906,207.0313 455.625,207.2891 Q455.8594,207.5469 455.8594,208.1563 L455.8594,209.6094 Q455.8594,210.2188 455.625,210.4844 Q455.3906,210.75 455.0156,210.75 Q454.6719,210.75 454.4688,210.5469 Q454.2656,210.3594 454.1563,209.8438 Q454.1094,209.4844 453.9219,209.2969 Q453.5938,208.9219 452.9844,208.7031 Q452.375,208.4844 451.75,208.4844 Q450.9844,208.4844 450.3516,208.8125 Q449.7188,209.1406 449.2266,209.8906 Q448.7344,210.6406 448.7344,211.6719 L448.7344,212.7656 Q448.7344,214 449.625,214.8203 Q450.5156,215.6406 452.1094,215.6406 Q453.0469,215.6406 453.7031,215.3906 Q454.0938,215.2344 454.5156,214.7969 Q454.7813,214.5313 454.9297,214.4531 Q455.0781,214.375 455.2813,214.375 Q455.6094,214.375 455.8672,214.6328 Q456.125,214.8906 456.125,215.2344 Q456.125,215.5781 455.7813,215.9844 Q455.2813,216.5625 454.4844,216.8906 Q453.4063,217.3438 452.1094,217.3438 Q450.5938,217.3438 449.3906,216.7188 Q448.4063,216.2188 447.7188,215.1484 Q447.0313,214.0781 447.0313,212.7969 L447.0313,211.6406 Q447.0313,210.3125 447.6484,209.1641 Q448.2656,208.0156 449.3594,207.3984 Q450.4531,206.7813 451.6875,206.7813 Q452.4219,206.7813 453.0703,206.9453 Q453.7188,207.1094 454.2656,207.4688 Z "/><text fill="#000000" font-family="sans-serif" font-size="12" font-style="italic" lengthAdjust="spacingAndGlyphs" textLength="125" x="463.5" y="208.957">«Interface Entity Type»</text><text fill="#000000" font-family="sans-serif" font-size="12" lengthAdjust="spacingAndGlyphs" textLength="99" x="476.5" y="224.0508">IET_Delete_Order</text><line style="stroke: #A80036; stroke-width: 1.5;" x1="437.5" x2="588.5" y1="231.6875" y2="231.6875"/><text fill="#000000" font-family="sans-serif" font-size="11" lengthAdjust="spacingAndGlyphs" textLength="135" x="442.5" y="247.1064">IAT_Order_ID: DTY_Number</text><line style="stroke: #A80036; stroke-width: 1.5;" x1="437.5" x2="588.5" y1="253.5234" y2="253.5234"/><!--class IET_Find_Order--><rect fill="#FEFECE" filter="url(#fups0do)" height="125.3672" style="stroke: #A80036; stroke-width: 1.5;" width="212" x="646" y="164"/><ellipse cx="687.55" cy="184.0938" fill="#ADD1B2" rx="11" ry="11" style="stroke: #A80036; stroke-width: 1.0;"/><path d="M690.3156,179.9688 Q690.4719,179.75 690.6594,179.6406 Q690.8469,179.5313 691.0656,179.5313 Q691.4406,179.5313 691.675,179.7891 Q691.9094,180.0469 691.9094,180.6563 L691.9094,182.1094 Q691.9094,182.7188 691.675,182.9844 Q691.4406,183.25 691.0656,183.25 Q690.7219,183.25 690.5188,183.0469 Q690.3156,182.8594 690.2063,182.3438 Q690.1594,181.9844 689.9719,181.7969 Q689.6438,181.4219 689.0344,181.2031 Q688.425,180.9844 687.8,180.9844 Q687.0344,180.9844 686.4016,181.3125 Q685.7688,181.6406 685.2766,182.3906 Q684.7844,183.1406 684.7844,184.1719 L684.7844,185.2656 Q684.7844,186.5 685.675,187.3203 Q686.5656,188.1406 688.1594,188.1406 Q689.0969,188.1406 689.7531,187.8906 Q690.1438,187.7344 690.5656,187.2969 Q690.8313,187.0313 690.9797,186.9531 Q691.1281,186.875 691.3313,186.875 Q691.6594,186.875 691.9172,187.1328 Q692.175,187.3906 692.175,187.7344 Q692.175,188.0781 691.8313,188.4844 Q691.3313,189.0625 690.5344,189.3906 Q689.4563,189.8438 688.1594,189.8438 Q686.6438,189.8438 685.4406,189.2188 Q684.4563,188.7188 683.7688,187.6484 Q683.0813,186.5781 683.0813,185.2969 L683.0813,184.1406 Q683.0813,182.8125 683.6984,181.6641 Q684.3156,180.5156 685.4094,179.8984 Q686.5031,179.2813 687.7375,179.2813 Q688.4719,179.2813 689.1203,179.4453 Q689.7688,179.6094 690.3156,179.9688 Z "/><text fill="#000000" font-family="sans-serif" font-size="12" font-style="italic" lengthAdjust="spacingAndGlyphs" textLength="125" x="705.45" y="181.457">«Interface Entity Type»</text><text fill="#000000" font-family="sans-serif" font-size="12" lengthAdjust="spacingAndGlyphs" textLength="87" x="724.45" y="196.5508">IET_Find_Order</text><line style="stroke: #A80036; stroke-width: 1.5;" x1="647" x2="857" y1="204.1875" y2="204.1875"/><text fill="#000000" font-family="sans-serif" font-size="11" lengthAdjust="spacingAndGlyphs" textLength="162" x="652" y="219.6064">IAT_Order_ID: DTY_Number [0..1]</text><text fill="#000000" font-family="sans-serif" font-size="11" lengthAdjust="spacingAndGlyphs" textLength="200" x="652" y="233.4424">IAT_Invited_Guest_ID: DTY_Number [0..1]</text><text fill="#000000" font-family="sans-serif" font-size="11" lengthAdjust="spacingAndGlyphs" textLength="160" x="652" y="247.2783">IAT_Host_Token: DTY_Text [0..1]</text><text fill="#000000" font-family="sans-serif" font-size="11" lengthAdjust="spacingAndGlyphs" textLength="175" x="652" y="261.1143">IAT_Email_Address: DTY_Text [0..1]</text><text fill="#000000" font-family="sans-serif" font-size="11" lengthAdjust="spacingAndGlyphs" textLength="176" x="652" y="274.9502">IAT_Booking_Token: DTY_Text [0..1]</text><line style="stroke: #A80036; stroke-width: 1.5;" x1="647" x2="857" y1="281.3672" y2="281.3672"/><!--class IET_Paginated_List_of_Orders--><rect fill="#FEFECE" filter="url(#fups0do)" height="70.0234" style="stroke: #A80036; stroke-width: 1.5;" width="202" x="893" y="191.5"/><ellipse cx="908" cy="211.5938" fill="#ADD1B2" rx="11" ry="11" style="stroke: #A80036; stroke-width: 1.0;"/><path d="M910.7656,207.4688 Q910.9219,207.25 911.1094,207.1406 Q911.2969,207.0313 911.5156,207.0313 Q911.8906,207.0313 912.125,207.2891 Q912.3594,207.5469 912.3594,208.1563 L912.3594,209.6094 Q912.3594,210.2188 912.125,210.4844 Q911.8906,210.75 911.5156,210.75 Q911.1719,210.75 910.9688,210.5469 Q910.7656,210.3594 910.6563,209.8438 Q910.6094,209.4844 910.4219,209.2969 Q910.0938,208.9219 909.4844,208.7031 Q908.875,208.4844 908.25,208.4844 Q907.4844,208.4844 906.8516,208.8125 Q906.2188,209.1406 905.7266,209.8906 Q905.2344,210.6406 905.2344,211.6719 L905.2344,212.7656 Q905.2344,214 906.125,214.8203 Q907.0156,215.6406 908.6094,215.6406 Q909.5469,215.6406 910.2031,215.3906 Q910.5938,215.2344 911.0156,214.7969 Q911.2813,214.5313 911.4297,214.4531 Q911.5781,214.375 911.7813,214.375 Q912.1094,214.375 912.3672,214.6328 Q912.625,214.8906 912.625,215.2344 Q912.625,215.5781 912.2813,215.9844 Q911.7813,216.5625 910.9844,216.8906 Q909.9063,217.3438 908.6094,217.3438 Q907.0938,217.3438 905.8906,216.7188 Q904.9063,216.2188 904.2188,215.1484 Q903.5313,214.0781 903.5313,212.7969 L903.5313,211.6406 Q903.5313,210.3125 904.1484,209.1641 Q904.7656,208.0156 905.8594,207.3984 Q906.9531,206.7813 908.1875,206.7813 Q908.9219,206.7813 909.5703,206.9453 Q910.2188,207.1094 910.7656,207.4688 Z "/><text fill="#000000" font-family="sans-serif" font-size="12" font-style="italic" lengthAdjust="spacingAndGlyphs" textLength="125" x="944.5" y="208.957">«Interface Entity Type»</text><text fill="#000000" font-family="sans-serif" font-size="12" lengthAdjust="spacingAndGlyphs" textLength="170" x="922" y="224.0508">IET_Paginated_List_of_Orders</text><line style="stroke: #A80036; stroke-width: 1.5;" x1="894" x2="1094" y1="231.6875" y2="231.6875"/><text fill="#000000" font-family="sans-serif" font-size="11" lengthAdjust="spacingAndGlyphs" textLength="75" x="899" y="247.1064">see ETY_Order</text><line style="stroke: #A80036; stroke-width: 1.5;" x1="894" x2="1094" y1="253.5234" y2="253.5234"/><!--class EIF_Manage_Booking--><rect fill="#FEFECE" filter="url(#fups0do)" height="56.1875" style="stroke: #A80036; stroke-width: 1.5;" width="153" x="457.5" y="8"/><ellipse cx="472.5" cy="28.0938" fill="#ADD1B2" rx="11" ry="11" style="stroke: #A80036; stroke-width: 1.0;"/><path d="M475.2656,23.9688 Q475.4219,23.75 475.6094,23.6406 Q475.7969,23.5313 476.0156,23.5313 Q476.3906,23.5313 476.625,23.7891 Q476.8594,24.0469 476.8594,24.6563 L476.8594,26.1094 Q476.8594,26.7188 476.625,26.9844 Q476.3906,27.25 476.0156,27.25 Q475.6719,27.25 475.4688,27.0469 Q475.2656,26.8594 475.1563,26.3438 Q475.1094,25.9844 474.9219,25.7969 Q474.5938,25.4219 473.9844,25.2031 Q473.375,24.9844 472.75,24.9844 Q471.9844,24.9844 471.3516,25.3125 Q470.7188,25.6406 470.2266,26.3906 Q469.7344,27.1406 469.7344,28.1719 L469.7344,29.2656 Q469.7344,30.5 470.625,31.3203 Q471.5156,32.1406 473.1094,32.1406 Q474.0469,32.1406 474.7031,31.8906 Q475.0938,31.7344 475.5156,31.2969 Q475.7813,31.0313 475.9297,30.9531 Q476.0781,30.875 476.2813,30.875 Q476.6094,30.875 476.8672,31.1328 Q477.125,31.3906 477.125,31.7344 Q477.125,32.0781 476.7813,32.4844 Q476.2813,33.0625 475.4844,33.3906 Q474.4063,33.8438 473.1094,33.8438 Q471.5938,33.8438 470.3906,33.2188 Q469.4063,32.7188 468.7188,31.6484 Q468.0313,30.5781 468.0313,29.2969 L468.0313,28.1406 Q468.0313,26.8125 468.6484,25.6641 Q469.2656,24.5156 470.3594,23.8984 Q471.4531,23.2813 472.6875,23.2813 Q473.4219,23.2813 474.0703,23.4453 Q474.7188,23.6094 475.2656,23.9688 Z "/><text fill="#000000" font-family="sans-serif" font-size="12" font-style="italic" lengthAdjust="spacingAndGlyphs" textLength="110" x="492" y="25.457">«External Interface»</text><text fill="#000000" font-family="sans-serif" font-size="12" lengthAdjust="spacingAndGlyphs" textLength="121" x="486.5" y="40.5508">EIF_Manage_Booking</text><line style="stroke: #A80036; stroke-width: 1.5;" x1="458.5" x2="609.5" y1="48.1875" y2="48.1875"/><line style="stroke: #A80036; stroke-width: 1.5;" x1="458.5" x2="609.5" y1="56.1875" y2="56.1875"/><path d="M610.56,51.444 C638.855,59.936 669.482,73.253 692,94 C707.156,107.964 718.763,126.502 727.538,145.242 " fill="none" style="stroke: #A80036; stroke-width: 1.0;"/><polygon fill="none" points="734.079,142.738,735.395,163.887,721.178,148.175,734.079,142.738" style="stroke: #A80036; stroke-width: 1.0;"/><text fill="#000000" font-family="sans-serif" font-size="13" lengthAdjust="spacingAndGlyphs" textLength="154" x="709" y="108.4951">&lt;&lt;uses input parameter&gt;&gt;</text><path d="M457.133,39.426 C360.78,44.003 202.905,57.066 159,94 C136.245,113.142 125.205,144.424 119.873,171.676 " fill="none" style="stroke: #A80036; stroke-width: 1.0;"/><polygon fill="none" points="126.787,172.769,116.808,191.462,112.952,170.626,126.787,172.769" style="stroke: #A80036; stroke-width: 1.0;"/><text fill="#000000" font-family="sans-serif" font-size="13" lengthAdjust="spacingAndGlyphs" textLength="154" x="160" y="108.4951">&lt;&lt;uses input parameter&gt;&gt;</text><path d="M530.991,64.007 C527.887,91.874 522.959,136.105 519.045,171.237 " fill="none" style="stroke: #A80036; stroke-width: 1.0;"/><polygon fill="none" points="525.994,172.09,516.822,191.192,512.08,170.539,525.994,172.09" style="stroke: #A80036; stroke-width: 1.0;"/><text fill="#000000" font-family="sans-serif" font-size="13" lengthAdjust="spacingAndGlyphs" textLength="154" x="529" y="108.4951">&lt;&lt;uses input parameter&gt;&gt;</text><path d="M610.766,44.158 C696.193,53.128 828.012,70.256 872,94 C907.456,113.138 938.235,146.52 960.009,174.86 " fill="none" style="stroke: #A80036; stroke-width: 1.0;"/><polygon fill="none" points="965.85,170.988,972.058,191.248,954.571,179.282,965.85,170.988" style="stroke: #A80036; stroke-width: 1.0;"/><text fill="#000000" font-family="sans-serif" font-size="13" lengthAdjust="spacingAndGlyphs" textLength="181" x="898" y="108.4951">&lt;&lt;provides output parameter&gt;&gt;</text><path d="M457.419,40.76 C415.84,46.798 366.617,61.084 335,94 C315.35,114.457 307.117,144.865 303.902,171.288 " fill="none" style="stroke: #A80036; stroke-width: 1.0;"/><polygon fill="none" points="310.869,171.988,302.278,191.359,296.914,170.859,310.869,171.988" style="stroke: #A80036; stroke-width: 1.0;"/><text fill="#000000" font-family="sans-serif" font-size="13" lengthAdjust="spacingAndGlyphs" textLength="181" x="336" y="108.4951">&lt;&lt;provides output parameter&gt;&gt;</text></g></svg>